<?xml version="1.0" encoding="utf-8"?>
<!-- Generator: Adobe Illustrator 24.2.0, SVG Export Plug-In . SVG Version: 6.00 Build 0)  -->
<svg version="1.1" id="Layer_1" xmlns="http://www.w3.org/2000/svg" xmlns:xlink="http://www.w3.org/1999/xlink" x="0px" y="0px"
	 viewBox="0 0 463.4 121.6" style="enable-background:new 0 0 463.4 121.6;" xml:space="preserve">
<style type="text/css">
	.st0{fill:#BBE2F2;}
	.st1{fill:#1C31B5;}
	.st2{fill:#009CF8;}
	.st3{fill:#006BDE;}
	.st4{fill:#18315B;}
	.st5{fill:#000B29;}
	.st6{fill:#F97853;}
	.st7{fill:#EA5143;}
	.st8{fill:#FFA681;}
	.st9{fill:#FFFFFF;}
	.st10{fill:#264CBE;}
	.st11{fill:#E3E3E3;}
	.st12{fill:#1D567E;}
	.st13{fill:#21295B;}
	.st14{font-family:'Roboto-Bold';}
	.st15{font-size:10.6917px;}
</style>
<g id="Layer_2_1_">
	<g id="OBJECTS">
		<path class="st0" d="M223.8,25.2c-4-14.5-22-19.2-32.3-8.3c-0.1,0.2-0.3,0.3-0.4,0.5c-14.8,16.1-7.8,55.8,23.1,65.8
			s63-8.3,64.8-24.7c1.8-16.4-12.5-21.6-34.6-17C231.9,44,226.3,34.2,223.8,25.2z"/>
		<path class="st0" d="M249.5,27.6c-4.1,0.7-5.3,4.3-2.1,6.9c1.1,0.9,2.6,1.6,4.7,1.9c8.2,1.4,12.5-2.3,9.2-7
			C259.4,26.7,253.6,27,249.5,27.6z"/>
		<path class="st0" d="M183.6,57c-2.6-3.3-6.3-2.6-7.1,1.5c-0.3,1.3-0.2,3,0.6,5.1c2.7,7.8,8,9.9,10.5,4.8
			C189.2,65.1,186.2,60.2,183.6,57z"/>
		<path class="st0" d="M281.9,60.3c-0.4,2,1.3,3.4,3.1,2.6c0.7-0.3,1.4-0.9,1.8-1.6c2.1-3.3,1-6.1-1.9-5.8
			C283.1,55.7,282.3,58.3,281.9,60.3z"/>
		<path class="st0" d="M271.4,39.3c2,0.4,3.4-1.2,2.7-3.1c-0.3-0.8-0.9-1.4-1.6-1.8c-3.2-2.2-6.1-1.1-5.8,1.8
			C266.9,38,269.5,38.9,271.4,39.3z"/>
		<path class="st0" d="M223.1,17.9c1.6,1.3,3.6,0.5,3.8-1.5c0.1-0.8-0.1-1.6-0.6-2.3c-1.9-3.4-4.9-3.8-6-1.1
			C219.7,14.7,221.6,16.7,223.1,17.9z"/>
		<path class="st1" d="M286.8,70.3c3.2-3.2,5.6-6.8,3.2-7.3c-2.4-0.6-6.4,5.7-7.1,11.4l-0.7,1.9c0.6-4.1-0.8-9.2-2.9-9.4
			c-2.1-0.2-0.8,3.1,0.8,5.9c1.2,2.1,1.6,3.8,1.7,4.7l-3.3,8.9c0.9-6.6-1.3-14.5-4.6-14.8c-3.3-0.3-1.3,4.9,1.3,9.3
			c2,3.3,2.5,6,2.6,7.4l-0.7,1.8l0.9,0.5l3.9-10.5c1.1-0.8,2.3-1.4,3.6-1.8c3.1-1,6.1-2.7,4.5-3.9c-1.5-1-4.9,1-7.3,3.8l1.4-3.6
			C284.6,73.2,285.5,71.6,286.8,70.3z"/>
		<path class="st1" d="M187.4,28.9c0.4-3.8,0.1-7.5-1.8-6.6s-1.2,7.3,1.4,11.5l0.5,1.6c-1.8-3.1-5.5-5.7-7-4.7
			c-1.5,1,1.1,2.5,3.7,3.5c2,0.8,3.1,1.7,3.6,2.2l2.6,7.7c-2.9-4.9-8.7-9-11.1-7.5c-2.4,1.5,1.8,4,5.9,5.5c3.1,1.2,4.9,2.7,5.7,3.5
			l0.5,1.5l0.8-0.1l-3-9.2c0.3-1.1,0.8-2.2,1.4-3.1c1.5-2.3,2.7-5.1,0.9-5c-1.5,0.1-2.8,3.3-2.9,6.5l-1.1-3.2
			C187.3,31.7,187.3,30.3,187.4,28.9z"/>
		<path class="st2" d="M265.5,80.8c0,0.2,0.1,0.5,0.1,0.7l0,0c0.6,2.6,2,7,5.1,7.8c0,0-1.7-8.9,4.4-11.2c6.1-2.3,5.4-4.5,5.1-8.5
			c-0.3-3.9-1.7-4.7,2.5-8.4c4.2-3.7,3.4-9.2,3.4-9.2s-4,6.3-8.3,6.4c-4.3,0.1-5,3.8-4.8,6.5s-3.4,3-5.4,4.6s-2.3,9.9-2.3,9.9
			S265.4,80,265.5,80.8z"/>
		<path class="st3" d="M265.5,80.8c0,0.2,0.1,0.5,0.1,0.7c0.4-1.2,0.9-2.3,1.6-3.3c1.4-2,3.3-3.7,5-4.3c2.8-1,4.1-3.7,4.4-8.8
			c0.2-2.9,3.2-4.6,3.2-4.7c0.1,0,0.1-0.2,0.1-0.2c0,0,0,0,0,0c0-0.1-0.2-0.1-0.2-0.1c0,0,0,0,0,0c-0.1,0.1-3.3,1.8-3.4,5
			c-0.3,4.9-1.5,7.5-4.1,8.4c-1.8,0.7-3.8,2.4-5.2,4.5C266.4,78.9,265.9,79.8,265.5,80.8z"/>
		<path class="st3" d="M198.1,89.3h4.3c-2.3-0.4-8-2.8-8.6-7.8c-0.6-6.2-2.9-6.2-6.6-6.8c-3.7-0.7-4.8,0.4-7.2-4.4s-7.7-5.5-7.7-5.5
			s4.8,5.3,3.9,9.3c-0.9,4,2.3,5.6,4.9,6.1c2.6,0.5,2,4,2.9,6.2c0.4,1,2.3,2.1,4.1,2.9H198.1z"/>
		<path class="st1" d="M188.9,83.1c0.2,1.9,1.3,4.1,2.9,6c0.1,0.1,0.1,0.1,0.2,0.2h0.5c-0.1-0.1-0.3-0.3-0.4-0.4
			c-1.5-1.8-2.6-4-2.8-5.8c-0.3-2.8-2.5-4.7-7.1-6.2c-2.7-0.9-3.5-4.1-3.5-4.2c0-0.1-0.1-0.1-0.2-0.1c-0.1,0-0.1,0.1-0.1,0.2
			c0,0.1,0.9,3.5,3.8,4.4C186.5,78.6,188.6,80.5,188.9,83.1z"/>
		<path class="st2" d="M200.4,77.7c-0.1,0.3-0.2,0.6-0.3,1l0,0c-1.2,3.7-3.7,9.9-8.3,10.6c0,0,3.6-12.7-4.7-16.9
			c-8.3-4.2-7-7.3-5.9-12.9s3.1-6.4-2.3-12.3s-3.5-13.6-3.5-13.6s4.7,9.6,10.8,10.4c6.1,0.9,6.6,6.2,5.9,10s4.5,4.8,7,7.4
			c2.6,2.5,1.8,14.4,1.8,14.4S200.8,76.5,200.4,77.7z"/>
		<path class="st3" d="M200.4,77.7c-0.1,0.3-0.2,0.6-0.3,1c-0.4-1.7-1-3.4-1.8-4.9c-1.6-3.1-4.1-5.8-6.5-7c-3.8-1.9-5.3-6-4.9-13.2
			c0.2-4.2-3.9-7.1-3.9-7.1c-0.1-0.1-0.1-0.3-0.1-0.4s0.3-0.1,0.4-0.1l0,0c0.2,0.1,4.4,3.1,4.1,7.6c-0.4,7,1,10.9,4.6,12.7
			c2.5,1.3,5,3.9,6.7,7.2C199.5,74.8,200.1,76.2,200.4,77.7z"/>
		<path class="st4" d="M203.8,86.3c0,1,0,2,0.1,3h9.3c0-1.1,0-2.2,0-3.2c0-2.7,0-4.9,0-6.3c0-1,0-1.5,0-1.5l-9.5-0.1
			c0,0,0,0.8,0,2.2C203.7,81.8,203.7,83.9,203.8,86.3z"/>
		<path class="st5" d="M203.7,80.3c0,1.5,0,3.6,0.1,6c3.1,0.3,6.3,0.2,9.4-0.2c0-2.7,0-4.9,0-6.3L203.7,80.3z"/>
		<path class="st4" d="M192,84.2c0,1.5,0,3.3,0.1,5.1h9.3c0-1.1,0-2.2,0.1-3.2c0-2.2,0-4.2,0.1-5.7s0-2.3,0-2.3l-9.5,0.1
			c0,0,0,1,0,2.7C192,81.8,192,82.9,192,84.2z"/>
		<path class="st5" d="M192,81c0,0.9,0,2,0,3.2c3.1,0.9,6.2,1.5,9.4,1.9c0-2.2,0-4.2,0.1-5.7L192,81z"/>
		<path class="st4" d="M207.6,28.2c0,0,1.5-1.4,1.5-2.9c0-1.4-1-1-1.5-2.3c-0.5-1.3-2-2.1-2.9-2s-2.6-3.1-5.1-2.6
			c-2.4,0.6-2.2,3.7-3.3,4.1c-1,0.4-0.8,2.3-0.2,2.7c0.6,0.4,0.8,2.1,1.1,2.1C197.6,27.4,207.6,28.2,207.6,28.2z"/>
		<path class="st6" d="M197.5,28.2c0,0-0.9-1.3-1.6-0.2c-0.7,1,0.3,4.1,2,3.3L197.5,28.2z"/>
		<path class="st7" d="M197.5,30.4c-0.1,0-0.1,0-0.1-0.1c-0.3-0.9-1.2-1.3-1.3-1.3c-0.1,0-0.1-0.1-0.1-0.2c0,0,0,0,0,0
			c0-0.1,0.1-0.1,0.2-0.1c0,0,0,0,0,0c0.7,0.3,1.2,0.8,1.4,1.5C197.7,30.3,197.7,30.4,197.5,30.4C197.6,30.4,197.6,30.4,197.5,30.4
			L197.5,30.4z"/>
		<path class="st7" d="M196.5,29.9C196.5,29.9,196.5,29.9,196.5,29.9c-0.1-0.1-0.2-0.2-0.1-0.2c0.1-0.2,0.3-0.3,0.5-0.4
			c0.1,0,0.2,0,0.2,0.1c0,0.1,0,0.1-0.1,0.1c-0.2,0.1-0.3,0.2-0.4,0.3C196.6,29.9,196.6,29.9,196.5,29.9z"/>
		<path class="st6" d="M207.2,28.2c0,0,0.9-1.3,1.6-0.2s-0.3,4.1-2,3.3L207.2,28.2z"/>
		<path class="st7" d="M207.2,30.4c0.1,0,0.1,0,0.1-0.1c0.3-0.9,1.2-1.3,1.3-1.3c0.1,0,0.1-0.1,0.1-0.2c0,0,0,0,0,0
			c0-0.1-0.1-0.1-0.2-0.1c0,0,0,0,0,0c-0.7,0.3-1.2,0.8-1.4,1.5C207.1,30.3,207.1,30.4,207.2,30.4C207.2,30.4,207.2,30.4,207.2,30.4
			L207.2,30.4z"/>
		<path class="st7" d="M208.2,29.9C208.3,29.9,208.3,29.9,208.2,29.9c0.1-0.1,0.2-0.2,0.1-0.2c-0.1-0.2-0.3-0.3-0.5-0.4
			c-0.1,0-0.2,0-0.2,0c0,0.1,0,0.2,0,0.2c0,0,0,0,0,0c0.2,0.1,0.3,0.2,0.4,0.3C208.1,29.9,208.2,29.9,208.2,29.9z"/>
		<path class="st8" d="M204.7,33.9V37c0,0-0.9,1.6-2.1,1.7c-1.2,0.1-2.3-1.3-2.3-1.3v-3.2L204.7,33.9z"/>
		<path class="st6" d="M204.7,33.9v1.4c-0.8,0.9-2.3,1.1-4.5,0.8v-2L204.7,33.9z"/>
		<path class="st8" d="M207.9,26.1c0,1.3-0.2,2.6-0.4,3.8c-0.1,0.3-0.1,0.6-0.2,0.8c-0.6,2.2-2.2,6.1-6.7,4.5
			c-2-0.7-2.9-2.9-3.3-5.2c-0.2-1.4-0.3-2.8-0.3-4.2c0-1.1,0.6-2.2,1.6-2.7c2.6-1.5,5.4-0.9,7.3-0.2C207.2,23.5,208,24.7,207.9,26.1
			z"/>
		<path class="st4" d="M197.3,30.1c0,0,0.4,2.6,0.8,3.5s1.5,1.1,2,1.9c0.6,1.1,1.5,2,3,1.5c1.3-0.5,1.2-1.1,1.9-1.6
			c1.2-0.8,1.8-1.8,1.9-2.6c0.1-0.8,0.6-2.9,0.6-2.9l-0.6,0c-0.3,0.6-0.6,1.1-0.9,1.6c-0.5-1.2-3.2-0.3-3.2-0.3l-0.5,0.2l-0.5-0.2
			c0,0-2.6-0.8-3.2,0.4c-0.3-0.5-0.6-1-0.7-1.6L197.3,30.1z M202.3,31.8c3-0.5,2.5,1.2,2.4,1.3l0,0c-0.2,0.2-0.4,0.3-0.6,0.5
			c-1.2,0.6-1.3,0.5-1.8,0.6c-0.6,0-1.2-0.2-1.8-0.5c-0.3-0.2-0.6-0.4-0.8-0.6C199.8,33,199.3,31.3,202.3,31.8z"/>
		<path class="st4" d="M200.5,28.6c0,0.3-0.2,0.6-0.4,0.6c-0.2,0-0.4-0.3-0.4-0.6c0-0.3,0.2-0.6,0.4-0.6
			C200.3,28,200.5,28.3,200.5,28.6z"/>
		<path class="st4" d="M204.9,28.6c0,0.3-0.2,0.6-0.4,0.6c-0.2,0-0.4-0.3-0.4-0.6c0-0.3,0.2-0.6,0.4-0.6
			C204.8,28,204.9,28.3,204.9,28.6z"/>
		<path class="st4" d="M206,26.7c0,0-1.5-0.6-2.7-0.1l0.1,0.7c0,0,1.7-0.1,2.6,0.2C206.1,27.2,206.1,26.9,206,26.7z"/>
		<path class="st4" d="M198.7,26.7c0,0,1.6-0.6,2.8-0.1l-0.1,0.7c0,0-1.8-0.1-2.6,0.2C198.6,27.2,198.6,26.9,198.7,26.7z"/>
		<path class="st6" d="M202.4,31.1c0.2,0,0.3,0,0.5-0.1c0.1,0,0.1-0.1,0.1-0.2c0-0.1-0.1-0.1-0.2-0.1c-0.2,0.1-0.4,0.1-0.6,0.1
			c0,0-0.1-0.1-0.1-0.1c0-0.7,0-1.5,0.1-2.2c0-0.1-0.1-0.1-0.1-0.2c-0.1,0-0.1,0.1-0.2,0.1c0,0,0,0,0,0c-0.1,0.8-0.1,1.5-0.1,2.3
			c0,0.1,0.1,0.3,0.2,0.4C202.2,31,202.3,31.1,202.4,31.1z"/>
		<path class="st9" d="M200.6,32c0.1,0.6,0.5,1.6,1.7,1.6c1.2,0,1.6-0.9,1.7-1.6H200.6z"/>
		<path class="st4" d="M207.9,26.1c0,1.3-0.2,2.6-0.4,3.8l-0.6,0c0,0,0.2-1,0.2-1.7c0.1-0.7,0.2-1.9-0.4-2c-0.6-0.2-0.2-1.5-1-2.1
			c-0.8-0.6-2.5-1.1-3.6-0.4c-1.1,0.7-2.4,0.3-3,0.4c-0.5,0.1-1.2,0.8-1,1.5s-0.4,1.1-0.5,1.8c-0.1,0.7,0.3,2.6,0.3,2.6l-0.6,0.1
			c-0.2-1.4-0.3-2.8-0.3-4.2c0-1.1,0.6-2.2,1.6-2.7c2.6-1.5,5.4-0.9,7.3-0.2C207.2,23.5,208,24.7,207.9,26.1z"/>
		<path class="st3" d="M215.1,82.8c-2.9,0.7-5.8,1.2-8.8,1.4l-0.4,0c-0.4,0-0.8,0-1.2,0.1c-2,0.1-4,0.1-6-0.1
			c-0.4,0-0.8-0.1-1.2-0.1l-0.4,0c-2.4-0.3-4.8-0.7-7.1-1.3c0-2.2,0-9.1,0.1-16.6c0-0.9,0-1.8,0.1-2.7c0.2-9.9,0.6-20,1.3-21
			c0.7-1,2.8-2.2,4.8-3.3l0.4-0.2l1.3-0.7c0.9-0.5,1.7-0.9,2.1-1.3v0.3c0,0,1.1,1.4,2.3,1.3c1.1-0.1,2-1.4,2.1-1.6
			c0.8,0.5,1.7,1,2.6,1.5c0.3,0.2,0.6,0.3,0.9,0.5l0.4,0.2c2.2,1.2,4.6,2.5,5.4,3.5c0.1,0.1,0.1,0.2,0.2,0.4
			c0.4,1.4,0.7,6.3,0.9,12.1v0.1c0,0.2,0,0.5,0,0.7c0,0,0,0.1,0,0.1c0.1,2,0.1,4.2,0.1,6.4v0.5c0,0.1,0,0.2,0,0.3c0,0.4,0,0.9,0,1.3
			c0,0.3,0,0.6,0,0.9C215.2,73.2,215.2,80.5,215.1,82.8z"/>
		<path class="st10" d="M215,55.9c-0.7-1.1-1.5-2.3-2.2-3.4l0,0c-0.3-0.4-0.6-0.8-0.9-1.2l0,0c-0.1-0.1-0.2-0.2-0.3-0.3
			c0,0,0,0,0-0.1l0,0c0-0.1,0-0.2,0.1-0.2c0.1,0,0.2,0,0.2,0.1c0.9,1.1,1.9,2.8,3,4.4v0.1C215,55.4,215,55.7,215,55.9z"/>
		<path class="st3" d="M214,42.5c0,0,4.4,8.1,7.1,12.2c0,0,1.5-1.4,3.5-3.3c2.2-2,5.1-5.4,5.1-5.4l1.6,1.9c0,0-6.6,11.9-9.6,13.4
			c-3,1.5-8.4-9.1-8.4-9.1L214,42.5z"/>
		<path class="st10" d="M195.3,74.4L195.3,74.4c-0.1,0-0.2-0.1-0.2-0.2c0,0,0,0,0,0c0.2-6.5-3.2-8.6-3.2-8.7
			c-0.1-0.1-0.1-0.2-0.1-0.3s0.2-0.1,0.3-0.1c0,0,0.9,0.6,1.8,2c0.8,1.3,1.7,3.5,1.6,7.1C195.5,74.3,195.4,74.4,195.3,74.4z"/>
		<path class="st10" d="M209.7,68.2c-0.1,0-0.2-0.1-0.2-0.2c-0.1-1.4,0.3-2.4,0.9-3.6c0.2-0.4,0.3-0.8,0.5-1.2
			c1.1-2.7,0.6-5.8,0.5-5.8c0-0.1,0.1-0.2,0.2-0.2c0.1,0,0.2,0,0.2,0.2c0,0,0,0,0,0c0,0.1,0.6,3.2-0.6,6c-0.2,0.4-0.4,0.8-0.5,1.2
			c-0.6,1.3-1,2.2-0.9,3.5C209.9,68.1,209.8,68.2,209.7,68.2C209.7,68.2,209.7,68.2,209.7,68.2L209.7,68.2z"/>
		<path class="st9" d="M198.1,38.3c0.1,0.6,0.2,1.5,0.3,2.4c0,0.3,0.1,0.6,0.1,0.9c0.1,1,0.3,2,0.4,3.1c0,0.3,0.1,0.6,0.1,0.9
			c0.1,1.1,0.2,2.1,0.2,3.1c0,0.3,0,0.6,0,0.9c0,0.7,0,1.4-0.1,2c-0.1,0.4-0.1,0.7-0.2,1.1c0,0.3-0.1,0.6-0.1,0.9
			c-0.1,1.1-0.2,2.1-0.2,3.1c0,0.3,0,0.6,0,0.9c0,1.1,0.1,2.1,0.2,3.1c0,0.3,0.1,0.6,0.1,0.9c0.1,1.1,0.3,2.1,0.4,3.1l0.1,0.9
			c0.1,0.5,0.1,0.9,0.2,1.4c0,0.5,0.1,1.1,0.1,1.7c0,0.3,0,0.6,0,0.9c0,1,0,2-0.1,3.1c0,0.3,0,0.6,0,0.9c-0.1,1-0.1,2.1-0.2,3.1
			c0,0.3,0,0.6-0.1,0.9c-0.1,1.1-0.2,2.1-0.3,3.1c0,0.3-0.1,0.6-0.1,0.9c-0.1,1.1-0.2,2-0.3,2.8c2,0.2,4,0.2,6,0.1
			c0-0.8,0.2-2.1,0.3-3.7c0-0.3,0-0.6,0.1-0.9c0.1-1,0.1-2,0.2-3.1c0-0.3,0-0.6,0-0.9c0-1.1,0-2.1,0-3.1c0-0.3,0-0.6-0.1-0.9
			c0-0.3-0.1-0.6-0.1-0.9c-0.1-0.8-0.1-1.5-0.1-2.3c0-0.3,0-0.6,0-0.9c0-1,0.2-2,0.3-3.1c0-0.3,0.1-0.6,0.1-0.9c0.1-1,0.2-2,0.3-3.1
			c0-0.3,0-0.6,0.1-0.9c0.1-1,0.1-2,0.1-3.1c0-0.3,0-0.6,0-0.9c0-1-0.1-2-0.1-3.1c0-0.1,0-0.2,0-0.3c0-0.2,0-0.4,0-0.6
			c0-1,0-2.1,0-3.1c0-0.3,0-0.6,0.1-0.9c0.1-1,0.2-2.1,0.3-3.1c0-0.3,0.1-0.6,0.1-0.9c0.2-1.1,0.3-2.1,0.5-3
			c0.1-0.3,0.1-0.6,0.2-0.9c0.1-0.6,0.2-1.2,0.3-1.6c-0.9-0.4-1.7-0.9-2.6-1.5c-0.1,0.2-1,1.5-2.1,1.6c-1.2,0.1-2.3-1.3-2.3-1.3V37
			C199.8,37.4,199,37.8,198.1,38.3z"/>
		<path class="st11" d="M198.5,40.7c0,0.3,0.1,0.6,0.1,0.9c1.3,0,2.7-0.2,4-0.5c1.4-0.3,2.9-0.4,4.3-0.1c0.1-0.3,0.1-0.6,0.2-0.9
			c-1.5-0.3-3.1-0.2-4.6,0.1C201.1,40.5,199.8,40.7,198.5,40.7z"/>
		<path class="st11" d="M199,44.7c0,0.3,0.1,0.6,0.1,0.9c1.2-0.1,2.3-0.2,3.5-0.5c1.2-0.3,2.4-0.3,3.7-0.2c0-0.3,0.1-0.6,0.1-0.9
			c-1.3-0.2-2.7-0.1-4,0.2C201.2,44.5,200.1,44.6,199,44.7z"/>
		<path class="st11" d="M199.3,48.7c0,0.3,0,0.6,0,0.9c1.1-0.1,2.2-0.2,3.2-0.5c1.1-0.2,2.2-0.3,3.3-0.2c0-0.3,0-0.6,0.1-0.9
			c-1.2-0.1-2.4,0-3.5,0.3C201.3,48.4,200.3,48.6,199.3,48.7z"/>
		<path class="st11" d="M198.9,53.5c1.2,0,2.4-0.2,3.6-0.5c1.1-0.3,2.2-0.3,3.3-0.2c0-0.1,0-0.2,0-0.3c0-0.2,0-0.4,0-0.6
			c-1.2-0.1-2.3,0-3.5,0.3c-1.1,0.3-2.2,0.4-3.3,0.5C199,53,198.9,53.2,198.9,53.5z"/>
		<path class="st11" d="M198.7,57.5c1.3,0,2.6-0.2,3.8-0.5c1.1-0.3,2.3-0.3,3.5-0.2c0-0.3,0-0.6,0-0.9c-1.2-0.1-2.5,0-3.7,0.3
			c-1.2,0.3-2.4,0.5-3.6,0.5C198.7,56.9,198.7,57.2,198.7,57.5z"/>
		<path class="st11" d="M198.9,60.6c0,0.3,0.1,0.6,0.1,0.9c1.2,0,2.4-0.2,3.6-0.5c1.1-0.3,2.2-0.3,3.3-0.2c0-0.3,0-0.6,0.1-0.9
			c-1.2-0.1-2.4,0-3.5,0.3C201.2,60.4,200.1,60.6,198.9,60.6z"/>
		<path class="st11" d="M199.4,64.6l0.1,0.9c1-0.1,2-0.2,3-0.5c0.9-0.2,1.9-0.3,2.8-0.3c0-0.3,0.1-0.6,0.1-0.9
			c-1.1-0.1-2.1,0-3.1,0.3C201.4,64.4,200.4,64.5,199.4,64.6z"/>
		<path class="st11" d="M199.8,68.6c0,0.3,0,0.6,0,0.9c0.9-0.1,1.9-0.2,2.8-0.5c0.8-0.2,1.7-0.3,2.5-0.3c0-0.3,0-0.6,0-0.9
			c-0.9,0-1.8,0.1-2.7,0.3C201.5,68.3,200.6,68.5,199.8,68.6z"/>
		<path class="st11" d="M199.7,73.4c1-0.1,1.9-0.2,2.9-0.5c0.9-0.2,1.9-0.3,2.8-0.3c0-0.3,0-0.6-0.1-0.9c-1,0-2,0.1-2.9,0.3
			c-0.9,0.2-1.7,0.4-2.6,0.4C199.7,72.9,199.7,73.1,199.7,73.4z"/>
		<path class="st11" d="M199.4,77.4c1.1-0.1,2.1-0.2,3.1-0.5c0.9-0.2,1.8-0.3,2.8-0.3c0-0.3,0-0.6,0-0.9c-1,0-2,0.1-3,0.3
			c-0.9,0.2-1.9,0.4-2.9,0.5C199.5,76.9,199.4,77.2,199.4,77.4z"/>
		<path class="st11" d="M199.1,81.4c1.2-0.1,2.3-0.2,3.5-0.5c0.8-0.2,1.7-0.3,2.5-0.3c0-0.3,0-0.6,0.1-0.9c-0.9,0-1.9,0.1-2.8,0.3
			c-1,0.3-2.1,0.4-3.2,0.5C199.1,80.9,199.1,81.2,199.1,81.4z"/>
		<path class="st10" d="M206,84.3l0.4,0c0.8-4.6,0.3-11.4,0.2-13.5c-0.2-2.2,0.2-4.9,0.9-7.6c0.6-2.1,0.2-6.9-0.1-10.8
			c-0.1-1.1-0.2-2.1-0.2-3c-0.1-2.7,0.8-7.8,1.4-10.3l-0.4-0.2c-0.5,2.5-1.6,7.7-1.4,10.5c0,0.8,0.1,1.9,0.2,3
			c0.3,3.8,0.6,8.6,0.1,10.6c-0.8,2.7-1.1,5.5-0.9,7.7C206.3,72.9,206.8,79.7,206,84.3z"/>
		<path class="st10" d="M197.9,65.5c0.5,2.8,0.3,4.7,0.1,6.8c-0.1,0.7-0.1,1.4-0.2,2.2c-0.1,2.5-0.5,7.4-0.7,9.6l0.4,0
			c0.2-2.2,0.6-7.1,0.7-9.6c0-0.8,0.1-1.5,0.2-2.2c0.2-2.2,0.3-4-0.2-6.9c-0.1-0.6-0.2-1.2-0.3-1.9c-0.5-3.1-1.1-6.3-0.8-7.8
			c0.1-0.4,0.1-0.8,0.2-1.2c0.3-1.9,0.8-4.2,0.6-6.1c-0.1-2-0.9-7.3-1.3-9.4l-0.4,0.2c0.3,2.1,1.1,7.3,1.2,9.2
			c0.1,1.9-0.3,4.2-0.6,6.1c-0.1,0.5-0.2,0.9-0.2,1.3c-0.3,1.6,0.3,4.7,0.8,8C197.7,64.3,197.8,64.9,197.9,65.5z"/>
		<path class="st8" d="M190.3,45.8c0,0-4,13.2-4.9,17.9s-1.1,14.5-1.1,14.5s-1.7,3.6-1.8,5.2c0,1.7,0.8,3.1,0.7,4.2
			c-0.1,1.1,1.3,0.5,0.9-1.7s0.7-4.3,1.2-4.2c0.5,0.1-0.4,2.5,0,3.3s1-0.8,1.5-1.8c0.6-1.1,0.5-3.4,0.3-5
			c-0.3-1.6,2.7-11.6,2.7-14.5l3.8-12.8C193.6,50.6,192.4,45.3,190.3,45.8z"/>
		<path class="st3" d="M194.1,50.3c-0.1,0.8-0.6,2.3-1.2,4.1l0,0c-0.1,0.2-0.1,0.3-0.2,0.5v0l-0.5,1.4l0,0c-0.7,2-1.4,4.4-2,6.8
			c-0.2,0.8-0.4,1.6-0.6,2.5c-0.2,1.1-0.4,2.1-0.6,3.1c-0.5,3.7-1.5,8.4-1.5,8.4c-1.4,0.6-3.6-0.2-3.6-0.2s-0.1-6.7,0.3-9.4
			c0.3-2.8,0.8-5.5,1.5-8.2c1.7-7.3,4.7-14.4,5.5-16.3l0.2-0.4h0.7C193.5,43.6,194.5,48,194.1,50.3z"/>
		<path class="st2" d="M183.9,75.6l0.1,1.6c0,0,2.1,0.7,3.7,0.2l0.4-1.4C186.6,76,185.2,76,183.9,75.6z"/>
		<path class="st10" d="M192.9,54.5L192.9,54.5C192.9,54.5,192.9,54.5,192.9,54.5l-0.1,0.5v0c-0.2,0.4-0.3,0.9-0.5,1.4l0,0
			c-0.8,2.6-1.5,5.3-2,8l0-1.3c-0.2,0.8-0.4,1.6-0.6,2.5c0.1-1.1,0.3-2.2,0.6-3.2c0.6-2.7,1.4-5.4,2.3-8c0-0.1,0.2-0.2,0.3-0.1
			C192.9,54.3,192.9,54.4,192.9,54.5L192.9,54.5z"/>
		<path class="st4" d="M263.6,89.3h9.3c0-0.6-0.1-1.3-0.1-1.9c-0.2-3.2-0.3-5.4-0.3-5.4l-7.6,0.3l-0.6,0l-1.1,0.1
			c0,0,0.1,1.9,0.3,4.8C263.5,87.9,263.5,88.6,263.6,89.3z"/>
		<path class="st5" d="M264.3,82.4l-1.1,0.1c0,0,0.1,1.9,0.3,4.8c3.1,0.3,6.2,0.3,9.4,0.2c-0.2-3.2-0.3-5.4-0.3-5.4l-7.6,0.3
			L264.3,82.4z"/>
		<path class="st5" d="M265.3,89.3c-0.2-3-0.3-5.5-0.4-6.9l-0.6,0c0.1,1.4,0.2,3.9,0.4,6.9L265.3,89.3z"/>
		<path class="st4" d="M260.8,89.3c0-0.8,0.1-1.6,0.1-2.3c0.2-2.7,0.3-4.5,0.3-4.5l-1.2-0.1l-0.6,0l-7.5-0.3c0,0-0.1,1.3-0.2,3.4
			c-0.1,1.1-0.1,2.4-0.2,3.9L260.8,89.3z"/>
		<path class="st5" d="M251.7,85.4c3.1,0.7,6.2,1.2,9.3,1.6c0.2-2.7,0.3-4.5,0.3-4.5l-1.2-0.1l-0.6,0l-7.5-0.3
			C251.9,82.1,251.8,83.4,251.7,85.4z"/>
		<path class="st5" d="M259.7,89.3c0.2-3,0.3-5.5,0.4-6.9l-0.6,0c-0.1,1.4-0.2,3.9-0.4,6.9H259.7z"/>
		<path class="st3" d="M273.9,83.5c-1.9,0.5-3.8,0.9-5.7,1.2c-0.7,0.1-1.3,0.2-2,0.2c-0.9,0.1-1.8,0.1-2.7,0.2c-1.5,0-2.9,0-4.4-0.1
			c-2.9-0.2-5.7-0.7-8.5-1.5c0-2.7,0-12.2,0.2-21.4c0-0.4,0-0.8,0-1.2v-0.3c0-0.1,0-0.2,0-0.3l0-0.9c0-0.6,0-1.2,0-1.8
			c0-0.3,0-0.7,0-1v-0.2c0-0.2,0-0.4,0-0.7l0,0v-0.2c0-0.2,0-0.4,0-0.6c0-0.2,0-0.3,0-0.5c0.2-6.2,0.5-11.1,1-11.8
			c0.8-1.2,3.5-2.7,5.6-4c0.8-0.4,1.7-0.9,2.2-1.3c0.8,0.6,1.3,1.2,2.4,1.1c1.3,0,1.6-0.8,2-1.5c0.3,0.2,1,0.8,1.4,1
			c0.3,0.2,0.7,0.4,1.1,0.6c0.6,0.3,1.2,0.7,1.8,1c0.9,0.5,1.8,1.1,2.5,1.6c0.6,0.4,1.2,0.9,1.6,1.5c0.4,0.6,0.7,4.7,0.9,10.1
			c0,0.2,0,0.4,0,0.6v0.1c0,0.2,0,0.4,0,0.6c0,0.6,0,1.2,0,1.8c0,0.1,0,0.3,0,0.4c0,0.1,0,0.2,0,0.3c0,0.3,0,0.5,0,0.8
			c0,0.1,0,0.1,0,0.2c0,0.7,0,1.4,0,2.1c0,0.2,0,0.4,0,0.6C273.9,70.1,273.9,80.7,273.9,83.5z"/>
		<path class="st10" d="M273.8,60.4l-3,3.1l-2.8-2.8l-2.8,2.8l-2.8-2.9l-2.8,2.9l-2.8-2.9l-2.8,2.9l-3.1-3.1l0-0.9
			c0-0.6,0-1.2,0-1.8l3-3l2.8,2.9l2.8-2.9l2.8,2.9l2.8-2.9l2.8,2.8l2.8-2.8l3,3c0,0.7,0,1.4,0,2.1C273.8,60,273.8,60.2,273.8,60.4z"
			/>
		<path class="st10" d="M268.6,76.2L268.6,76.2c-4,0-7.5-1.9-9.6-3.4c-1.4-1-2.7-2.1-3.8-3.4c-0.1-0.1-0.1-0.2,0-0.3
			c0.1-0.1,0.2-0.1,0.3,0l0,0c1.1,1.2,2.4,2.3,3.7,3.3c2.1,1.5,5.5,3.3,9.4,3.3c0.1,0,0.2,0.1,0.2,0.2c0,0,0,0,0,0
			C268.8,76.1,268.7,76.2,268.6,76.2C268.6,76.2,268.6,76.2,268.6,76.2z"/>
		<path class="st10" d="M266.1,73.8c-3.4-0.7-6.5-3.3-6.6-3.4c-0.1-0.1-0.1-0.2,0-0.3c0,0,0,0,0,0c0.1-0.1,0.2-0.1,0.3,0
			c0,0,3.6,3.1,7.3,3.5c0.1,0,0.2,0.1,0.2,0.2c0,0.1-0.1,0.2-0.2,0.2c0,0,0,0,0,0C266.7,73.9,266.4,73.8,266.1,73.8z"/>
		<path class="st10" d="M259.2,44c-0.1,0-0.2-0.1-0.2-0.2c0-0.1,0.1-0.2,0.2-0.2c4.9-0.9,6.4-4.1,6.4-4.1c0-0.1,0.1-0.2,0.2-0.1
			s0.2,0.1,0.1,0.2c0,0,0,0,0,0C265.9,39.7,264.4,43,259.2,44L259.2,44z"/>
		<path class="st10" d="M253.2,52.5L253.2,52.5C253.2,52.5,253.2,52.5,253.2,52.5l-0.3,0.4v0c-0.3,0.4-0.5,0.8-0.8,1.3l0,0
			c-0.4,0.7-0.8,1.5-1.3,2.3c0-0.2,0-0.4,0-0.7l0,0v-0.2c0.7-1.2,1.3-2.4,1.9-3.3c0.1-0.1,0.2-0.1,0.3-0.1
			C253.2,52.3,253.2,52.4,253.2,52.5z"/>
		<path class="st8" d="M278,45.3c0,0,6.3-2,8.1-6.1c0.5-1.2-3.9-13.3-3.9-13.3l-2.1,0.1c0,0,0.6,4.2,1,6.6c0.3,2,0.8,4.3,1,5.1
			l0.1,0.3l-0.3,0.1c-2.9,0.6-6.7,2.5-6.7,2.5L278,45.3z"/>
		<path class="st6" d="M283.7,39c0.1,0.1,0.2,0,0.3,0c0.1-0.1,0-0.2,0-0.3c0,0,0,0,0,0c-0.6-0.4-1.2-0.8-1.9-1.1l0.1,0.3l-0.3,0.1
			C282.4,38.2,283.1,38.6,283.7,39z"/>
		<path class="st3" d="M268.4,39.7c0,0-1.9,4.5,2.9,6.9c3.3,1.7,11-2.8,11-2.8l-2.7-5.8C279.6,38.1,272.6,41,268.4,39.7z"/>
		<path class="st8" d="M281.1,19c-0.2,0.1-0.1,1-0.1,1.7l-0.1,0c-0.2-1-0.7-2.8-1.1-2.4c-0.3,0.2,0.1,1.7,0.3,2.6l-0.1,0
			c-0.3-1.1-0.9-3.1-1.3-2.7c-0.3,0.3,0.3,2.1,0.5,3l-0.1,0c-0.3-0.9-0.9-2.6-1.3-2.2c-0.4,0.4,0.7,2.9,0.7,2.9l0,0l0.3,1
			c0,0-0.3,0.1-0.9-0.4s-1.1-0.7-0.7,0.2c0.5,1,1.2,1.7,1.5,2.3c0.3,0.7,1.3,0.9,1.3,0.9l2-0.1c0,0,0.4-3.4-0.4-5l0,0
			C281.7,19.9,281.5,18.8,281.1,19z"/>
		<path class="st4" d="M256.3,26.8c0,3.4,2.1,5.8,5.5,5.8s5.8-2.5,5.8-6c0-0.9-0.1-1.8-0.5-2.6l-0.1-0.1c0-0.1-0.1-0.2-0.1-0.3
			c-0.1-0.1-0.1-0.3-0.2-0.4c-0.9-1.6-2.5-2.6-4.6-2.6C258.1,20.6,256.3,23.4,256.3,26.8z"/>
		<path class="st6" d="M257,28.3c0,0-1-1.3-1.7-0.2c-0.7,1,0.3,4.1,2,3.4L257,28.3z"/>
		<path class="st7" d="M257,30.5c-0.1,0-0.1,0-0.1-0.1c-0.3-1-1.3-1.3-1.3-1.3c-0.1,0-0.1-0.1-0.1-0.2c0-0.1,0.1-0.1,0.2-0.1
			c0,0,1.1,0.4,1.4,1.5C257.2,30.4,257.1,30.5,257,30.5C257.1,30.5,257.1,30.5,257,30.5C257.1,30.5,257,30.5,257,30.5z"/>
		<path class="st7" d="M256,30C256,30,256,30,256,30c-0.1-0.1-0.2-0.2-0.1-0.2c0.1-0.2,0.3-0.3,0.6-0.4c0.1,0,0.2,0,0.2,0.1
			c0,0.1,0,0.2-0.1,0.2c-0.2,0.1-0.3,0.2-0.4,0.3C256.1,30,256.1,30,256,30z"/>
		<path class="st6" d="M266.8,28.3c0,0,1-1.3,1.7-0.2s-0.3,4.1-2,3.4L266.8,28.3z"/>
		<path class="st7" d="M266.9,30.5c0.1,0,0.1,0,0.1-0.1c0.3-1,1.3-1.3,1.3-1.3c0.1,0,0.1-0.1,0.1-0.2c0,0,0,0,0,0
			c0-0.1-0.1-0.1-0.2-0.1c0,0-1.1,0.4-1.4,1.5C266.7,30.4,266.7,30.5,266.9,30.5C266.8,30.5,266.8,30.5,266.9,30.5
			C266.8,30.5,266.8,30.5,266.9,30.5z"/>
		<path class="st7" d="M267.8,30c0.1,0,0.1-0.1,0.1-0.1c0,0,0-0.1,0-0.1c-0.1-0.2-0.3-0.3-0.5-0.4c-0.1,0-0.2,0-0.2,0.1c0,0,0,0,0,0
			c0,0.1,0,0.2,0.1,0.2c0.2,0.1,0.3,0.2,0.4,0.3C267.7,30,267.8,30,267.8,30z"/>
		<path class="st8" d="M264.3,34.1v3.1c0,0-0.9,1.6-2.2,1.7s-2.3-1.3-2.3-1.3v-3.2L264.3,34.1z"/>
		<path class="st6" d="M264.3,34.1v1.4c-0.8,0.9-2.3,1.2-4.5,0.8v-2L264.3,34.1z"/>
		<path class="st8" d="M267.5,26.2c0,1.3-0.2,2.6-0.4,3.9c-0.1,0.3-0.1,0.6-0.2,0.8c-0.6,2.3-2.3,6.1-6.8,4.5
			c-2-0.7-2.9-2.9-3.3-5.2c-0.2-1.4-0.3-2.8-0.3-4.2c0-1.1,0.6-2.2,1.6-2.7c2.7-1.5,5.5-1,7.4-0.2C266.8,23.5,267.6,24.8,267.5,26.2
			z"/>
		<path class="st4" d="M260,28.7c0,0.3-0.2,0.6-0.4,0.6s-0.4-0.3-0.4-0.6c0-0.3,0.2-0.6,0.4-0.6S260,28.4,260,28.7z"/>
		<path class="st4" d="M264.5,28.7c0,0.3-0.2,0.6-0.4,0.6s-0.4-0.3-0.4-0.6c0-0.3,0.2-0.6,0.4-0.6S264.5,28.4,264.5,28.7z"/>
		<path class="st4" d="M265.3,26.6c0,0-1.2-0.5-2.1-0.1l0.1,0.5c0,0,1.3-0.1,2,0.2C265.4,27,265.4,26.8,265.3,26.6z"/>
		<path class="st4" d="M258.4,26.6c0,0,1.2-0.5,2.1-0.1l-0.1,0.5c0,0-1.3-0.1-2,0.2C258.3,27,258.3,26.8,258.4,26.6z"/>
		<path class="st6" d="M262,31.2c0.2,0,0.4,0,0.5-0.1c0.1,0,0.1-0.1,0.1-0.2c0-0.1-0.1-0.1-0.2-0.1l0,0c-0.2,0.1-0.4,0.1-0.6,0.1
			c0,0-0.1-0.1-0.1-0.1c0-0.7,0-1.5,0.1-2.2c0-0.1-0.1-0.2-0.1-0.2c0,0,0,0,0,0c-0.1,0-0.1,0.1-0.2,0.1c0,0,0,0,0,0
			c-0.1,0.8-0.1,1.5-0.1,2.3c0,0.1,0.1,0.3,0.2,0.4C261.8,31.2,261.9,31.2,262,31.2z"/>
		<path class="st9" d="M260,31.9c0.2,0.8,0.9,1.7,1.9,1.7s1.6-0.9,1.9-1.7H260z"/>
		<path class="st6" d="M261.8,34.5c0.2,0,0.5-0.1,0.7-0.2c0.1,0,0.1-0.1,0.1-0.2c0,0,0,0,0,0c0-0.1-0.1-0.1-0.2-0.1
			c-0.3,0.2-0.8,0.2-1.1,0c-0.1,0-0.2,0-0.2,0c0,0,0,0,0,0c0,0.1,0,0.2,0,0.2C261.4,34.5,261.6,34.5,261.8,34.5z"/>
		<path class="st4" d="M267.4,28.3h-0.7c0.1-0.7,0.2-1.8-0.4-2c-1.7-0.5,0.5-1.8-0.3-2.4c-0.8-0.6-2.7-0.3-4.1-0.4
			c-1.3,0-3.5,0-4.1,0.1c-0.5,0.1-0.2,1,0,1.7c0.2,0.7-0.6,1.4-0.8,2.1c0,0.3,0,0.6,0,0.8h-0.6c-0.1-0.9-0.1-1.7-0.1-2.3
			c0-1.1,0.6-2.2,1.6-2.7c2.7-1.5,5.5-1,7.4-0.2c1.3,0.5,2.1,1.8,2,3.1C267.5,26.8,267.4,27.6,267.4,28.3z"/>
		<path class="st9" d="M259.6,30.4c-0.9,0-1.7-0.7-1.7-1.7s0.7-1.7,1.7-1.7c0.9,0,1.7,0.7,1.7,1.7S260.5,30.4,259.6,30.4L259.6,30.4
			z M259.6,27.4c-0.8,0-1.4,0.6-1.4,1.4s0.6,1.4,1.4,1.4c0.8,0,1.4-0.6,1.4-1.4v0C261,28,260.3,27.4,259.6,27.4z"/>
		<path class="st9" d="M264.1,30.4c-0.9,0-1.7-0.7-1.7-1.7s0.7-1.7,1.7-1.7s1.7,0.7,1.7,1.7S265,30.4,264.1,30.4L264.1,30.4z
			 M264.1,27.4c-0.8,0-1.4,0.6-1.4,1.4s0.6,1.4,1.4,1.4c0.8,0,1.4-0.6,1.4-1.4v0C265.5,28,264.9,27.4,264.1,27.4z"/>
		<path class="st9" d="M258.2,28.2C258.1,28.2,258.1,28.2,258.2,28.2L258.2,28.2c-0.6-0.5-1.2-0.7-1.8-0.6c-0.1,0-0.1,0-0.2-0.1
			c0,0,0,0,0,0c0-0.1,0-0.1,0.1-0.2c0,0,0,0,0,0c0.7-0.1,1.5,0.1,2,0.6C258.3,28.1,258.3,28.2,258.2,28.2
			C258.2,28.2,258.2,28.2,258.2,28.2L258.2,28.2z"/>
		<path class="st9" d="M265.5,28.2c-0.1,0-0.1-0.1-0.1-0.1c0,0,0-0.1,0.1-0.1c0,0,1.2-0.8,2.2-0.6c0.1,0,0.1,0.1,0.1,0.1
			c0,0.1-0.1,0.1-0.1,0.1C266.7,27.5,265.6,28.2,265.5,28.2C265.5,28.2,265.5,28.2,265.5,28.2z"/>
		<path class="st9" d="M262.5,28.4c-0.2-0.2-0.4-0.4-0.7-0.4c-0.3,0-0.5,0.2-0.7,0.4l-0.2-0.1c0.2-0.3,0.5-0.5,0.9-0.5
			c0.4,0,0.7,0.2,0.9,0.5L262.5,28.4z"/>
		<path class="st8" d="M252.7,52.2c-1.1,2.1-2.4,4.1-3.8,6.1c-0.6,0.7-1.2,1.4-1.9,2.1c-1,0.9-2,1.4-2.8,1c-3-1.5-9.6-13.4-9.6-13.4
			l1.6-1.9c0,0,3,3.4,5.1,5.4c2,1.9,3.5,3.3,3.5,3.3c0.3-0.4,0.6-0.9,0.9-1.4c0.3-0.5,0.7-1.1,1-1.6c2.5-4.1,5.2-9,5.2-9L252.7,52.2
			z"/>
		<path class="st6" d="M248.9,58.3c-0.6,0.7-1.2,1.4-1.9,2.1l-1.3-7c0.3-0.5,0.7-1.1,1-1.6L248.9,58.3z"/>
		<path class="st3" d="M252,42.7l-6,9.4l2,8.2l4.9-8C253,52.3,253.6,46.8,252,42.7z"/>
		<path class="st3" d="M244.5,89.3c-0.4-2.4-0.8-5-1.2-7.6c-0.1-0.6-0.2-1.1-0.3-1.7c-0.3-2.1-0.6-4.2-0.8-5.8
			c-0.1-0.6-0.2-1.2-0.2-1.8c-0.2-1.7-0.3-2.7-0.3-2.7l-9.4,0.4l-9.4-0.4c0,0-0.3,2.1-0.6,5c-0.1,0.5-0.1,1.1-0.2,1.7
			c-0.2,1.6-0.5,3.3-0.7,5.1c0,0,0,0.1,0,0.1c-0.1,0.6-0.2,1.1-0.3,1.7c-0.1,0.8,0,0,0,0l0,0c-0.2,1.3-0.4,2.7-0.6,4
			c-0.1,0.5-0.2,1.1-0.3,1.6c0,0.2-0.1,0.3-0.1,0.5H244.5z"/>
		<path class="st10" d="M225,72.5c0,0.5-0.4,0.9-0.9,0.9s-0.9-0.4-0.9-0.9s0.4-0.9,0.9-0.9c0,0,0,0,0,0C224.6,71.6,225,72,225,72.5
			C225,72.5,225,72.5,225,72.5z"/>
		<path class="st10" d="M227.2,75.9c0,0.5-0.4,0.9-0.9,0.9c-0.5,0-0.9-0.4-0.9-0.9c0-0.5,0.4-0.9,0.9-0.9c0,0,0,0,0,0
			C226.8,75.1,227.2,75.5,227.2,75.9L227.2,75.9z"/>
		<path class="st10" d="M231.5,74.2c0,0.5-0.4,0.9-0.9,0.9c-0.5,0-0.9-0.4-0.9-0.9c0-0.5,0.4-0.9,0.9-0.9c0,0,0,0,0,0
			C231.1,73.3,231.5,73.7,231.5,74.2L231.5,74.2z"/>
		<path class="st10" d="M224.7,79.6c0,0.5-0.4,0.9-0.9,0.9c-0.5,0-0.9-0.4-0.9-0.9s0.4-0.9,0.9-0.9
			C224.3,78.7,224.7,79.1,224.7,79.6L224.7,79.6z"/>
		<path class="st10" d="M230.1,79.2c0,0.5-0.4,0.9-0.9,0.9c-0.5,0-0.9-0.4-0.9-0.9c0-0.5,0.4-0.9,0.9-0.9
			C229.7,78.3,230.1,78.7,230.1,79.2C230.1,79.2,230.1,79.2,230.1,79.2z"/>
		<path class="st10" d="M222.8,75.6c0,0.5-0.3,0.8-0.8,0.9c0.1-0.6,0.2-1.2,0.2-1.7C222.5,74.9,222.8,75.2,222.8,75.6z"/>
		<path class="st10" d="M238.9,84.4c0,0.5-0.4,0.9-0.9,0.9c-0.5,0-0.9-0.4-0.9-0.9c0-0.5,0.4-0.9,0.9-0.9c0,0,0,0,0,0
			C238.5,83.5,238.9,83.9,238.9,84.4C238.9,84.4,238.9,84.4,238.9,84.4z"/>
		<path class="st10" d="M238.5,79.6c0,0.5-0.4,0.9-0.9,0.9c-0.5,0-0.9-0.4-0.9-0.9s0.4-0.9,0.9-0.9
			C238.1,78.7,238.5,79.1,238.5,79.6z"/>
		<path class="st10" d="M243.3,81.7c-0.1,0-0.2,0.1-0.3,0.1c-0.5,0-0.9-0.4-0.8-0.9c0-0.5,0.4-0.8,0.8-0.8h0.1
			C243.1,80.6,243.2,81.1,243.3,81.7z"/>
		<path class="st10" d="M239.4,88c0,0.5-0.4,0.9-0.9,0.9s-0.9-0.4-0.9-0.9c0-0.5,0.4-0.9,0.9-0.9c0,0,0,0,0,0
			C239,87.1,239.4,87.5,239.4,88z"/>
		<path class="st10" d="M243.2,86.6c0,0.5-0.4,0.9-0.9,0.9c-0.5,0-0.9-0.4-0.9-0.9c0-0.5,0.4-0.9,0.9-0.9c0,0,0,0,0,0
			C242.8,85.7,243.2,86.1,243.2,86.6z"/>
		<path class="st10" d="M235.3,89.3c-0.3-0.4-0.8-0.5-1.2-0.2c-0.1,0.1-0.2,0.1-0.2,0.2H235.3z"/>
		<path class="st10" d="M224.1,85.2c0,0.5-0.4,0.9-0.9,0.9c-0.5,0-0.9-0.4-0.9-0.9c0-0.5,0.4-0.9,0.9-0.9c0,0,0,0,0,0
			C223.7,84.3,224.1,84.7,224.1,85.2z"/>
		<path class="st10" d="M221.8,82.4c0,0.4-0.3,0.8-0.8,0.9c0,0,0,0,0,0c0.1-0.6,0.2-1.1,0.3-1.7C221.6,81.7,221.8,82.1,221.8,82.4z"
			/>
		<path class="st10" d="M220.7,88c0,0.4-0.3,0.7-0.6,0.8c0.1-0.5,0.2-1,0.3-1.6C220.6,87.4,220.7,87.7,220.7,88z"/>
		<path class="st10" d="M226.3,88.3c0,0.5-0.4,0.9-0.9,0.9s-0.9-0.4-0.9-0.9c0-0.5,0.4-0.9,0.9-0.9
			C225.9,87.5,226.3,87.8,226.3,88.3C226.3,88.3,226.3,88.3,226.3,88.3z"/>
		<path class="st10" d="M231,87.6c0,0.5-0.4,0.9-0.9,0.9c-0.5,0-0.9-0.4-0.9-0.9c0-0.5,0.4-0.9,0.9-0.9c0,0,0,0,0,0
			C230.6,86.8,231,87.2,231,87.6z"/>
		<path class="st10" d="M227.6,83.3c0,0.5-0.4,0.9-0.9,0.9c-0.5,0-0.9-0.4-0.9-0.9c0-0.5,0.4-0.9,0.9-0.9c0,0,0,0,0,0
			C227.2,82.4,227.6,82.8,227.6,83.3z"/>
		<path class="st10" d="M232.4,82.4c0,0.5-0.4,0.9-0.9,0.9s-0.9-0.4-0.9-0.9c0-0.5,0.4-0.9,0.9-0.9C232,81.5,232.4,81.9,232.4,82.4
			C232.4,82.4,232.4,82.4,232.4,82.4z"/>
		<path class="st10" d="M234.5,77.7c0,0.5-0.4,0.9-0.9,0.9c-0.5,0-0.9-0.4-0.9-0.9s0.4-0.9,0.9-0.9c0,0,0,0,0,0
			C234.1,76.8,234.5,77.2,234.5,77.7z"/>
		<path class="st10" d="M242.2,74.2c-0.1,0-0.1,0-0.2,0c-0.5,0-0.9-0.4-0.9-0.9c0-0.5,0.4-0.8,0.8-0.9
			C242.1,72.9,242.1,73.5,242.2,74.2z"/>
		<path class="st10" d="M237.6,74.2c0,0.5-0.4,0.9-0.9,0.9c-0.5,0-0.9-0.4-0.9-0.9c0-0.5,0.4-0.9,0.9-0.9c0,0,0,0,0,0
			C237.2,73.3,237.6,73.7,237.6,74.2z"/>
		<path class="st10" d="M240.8,77.3c0,0.5-0.4,0.9-0.9,0.9c-0.5,0-0.9-0.4-0.9-0.9c0-0.5,0.4-0.9,0.9-0.9c0,0,0,0,0,0
			C240.5,76.4,240.8,76.8,240.8,77.3z"/>
		<path class="st10" d="M235.4,85.2c0,0.5-0.4,0.9-0.9,0.9s-0.9-0.4-0.9-0.9c0-0.5,0.4-0.9,0.9-0.9c0,0,0,0,0,0
			C235,84.3,235.4,84.7,235.4,85.2z"/>
		<path class="st2" d="M242.2,69.9c-5,3.2-14.1,3-19.8,0c0.5-3.4,1.3-6.8,1.1-11.4c0-0.5,0-1-0.1-1.5c0-0.4,0-0.8-0.1-1.3
			c-0.5-7.5-1.8-13.7-1.1-14.5c0.4-0.4,0.8-0.8,1.3-1.1c0.2-0.2,0.5-0.3,0.7-0.5c0.6-0.4,1.3-0.7,1.9-1.1c1.6-0.8,3.2-1.6,4-2.2
			c0.7,0.3,1.4,0.5,2.1,0.5h0.1c0.7,0,1.5-0.2,2.1-0.5c0.7,0.5,2.1,1.2,3.6,1.9c1,0.5,2,1.1,2.9,1.7c0.5,0.3,0.9,0.7,1.3,1.1
			c0.3,0.4,0.2,2.1-0.1,4.7c-0.3,2.5-0.7,5.9-0.9,9.5c-0.1,1-0.1,2.1-0.2,3.1C241,63.1,241.7,66.5,242.2,69.9z"/>
		<path class="st3" d="M239.2,66.2L239.2,66.2c-4,0-7.4-1.8-9.6-3.4c-1.4-1-2.6-2.1-3.8-3.3c-0.1-0.1-0.1-0.2,0-0.3
			c0.1-0.1,0.2-0.1,0.3,0c1.1,1.2,2.3,2.3,3.7,3.3c2.1,1.5,5.4,3.3,9.3,3.3c0.1,0,0.2,0.1,0.2,0.2C239.4,66.1,239.3,66.1,239.2,66.2
			L239.2,66.2z"/>
		<path class="st3" d="M236.6,63.8c-3.4-0.7-6.4-3.3-6.6-3.4c-0.1-0.1-0.1-0.2,0-0.3s0.2-0.1,0.3,0c0,0,3.6,3.1,7.2,3.4
			c0.1,0,0.2,0.1,0.2,0.2c0,0,0,0,0,0c0,0.1-0.1,0.2-0.2,0.2c0,0,0,0,0,0C237.1,63.9,236.8,63.9,236.6,63.8z"/>
		<path class="st3" d="M231.5,46.2c-0.1,0-0.2-0.1-0.2-0.2c0-0.1,0-0.2,0.2-0.2c4.9-0.9,6.3-4.1,6.4-4.1c0-0.1,0.2-0.1,0.3-0.1
			c0,0,0,0,0,0c0.1,0,0.1,0.2,0.1,0.3C238.1,42,236.6,45.2,231.5,46.2L231.5,46.2z"/>
		<path class="st8" d="M238.1,38.4c-1,2.2-3.3,4.5-6.4,4c-3-0.5-4.4-2.1-5.4-3.7c1.6-0.8,3.2-1.6,4-2.2c0.7,0.3,1.4,0.5,2.1,0.5h0.1
			c0.7,0,1.5-0.2,2.1-0.5C235.2,37,236.6,37.7,238.1,38.4z"/>
		<path class="st9" d="M235.5,36.7c-0.1,0-0.2,0.1-0.2,0.2c0,0.1-0.1,3-2.7,3.3c-2.4,0.2-3.4-2.1-3.7-3.1c0-0.1-0.1-0.1-0.1-0.1h0
			c-0.1,0-0.1,0.1-0.1,0.1c0,0,0,0,0,0c0.3,1,1.4,3.4,3.9,3.3h0.2c2.9-0.3,2.9-3.5,2.9-3.6C235.6,36.7,235.6,36.7,235.5,36.7
			C235.5,36.7,235.5,36.7,235.5,36.7z"/>
		<path class="st4" d="M237.3,21.2c0,0,2.3,3.6,2.1,7.4c-0.3,3.8,0.3,8.1-3,7.9s-9.4,1.4-11.3-1.6S237.3,21.2,237.3,21.2z"/>
		<path class="st5" d="M238.2,27.8c0,0,0.6,5.5-2,7c-2.6,1.5-4.5-0.2-4.5-0.2S237.2,27,238.2,27.8z"/>
		<path class="st6" d="M227.4,27.8c0,0-0.9-1.2-1.6-0.2c-0.7,1,0.3,4.1,2,3.3L227.4,27.8z"/>
		<path class="st7" d="M227.4,30c-0.1,0-0.1,0-0.1-0.1c-0.3-0.9-1.2-1.3-1.2-1.3c-0.1,0-0.1-0.1,0-0.2c0,0,0.1-0.1,0.1-0.1
			c0.7,0.3,1.2,0.8,1.4,1.5C227.6,29.9,227.5,29.9,227.4,30C227.4,30,227.4,30,227.4,30z"/>
		<path class="st7" d="M226.4,29.5c-0.1,0-0.1-0.1-0.1-0.1c0,0,0-0.1,0-0.1c0.1-0.2,0.3-0.3,0.5-0.4c0.1,0,0.2,0,0.2,0.1
			c0,0.1,0,0.1-0.1,0.2c-0.2,0.1-0.3,0.2-0.4,0.3C226.5,29.5,226.5,29.5,226.4,29.5z"/>
		<path class="st6" d="M237,27.8c0,0,0.9-1.2,1.6-0.2c0.7,1-0.3,4.1-2,3.3L237,27.8z"/>
		<path class="st7" d="M237,30c0.1,0,0.1,0,0.1-0.1c0.3-0.9,1.2-1.3,1.2-1.3c0.1,0,0.1-0.1,0.1-0.2c0-0.1-0.1-0.1-0.2-0.1
			c-0.7,0.3-1.2,0.8-1.4,1.5C236.9,29.9,236.9,29.9,237,30C237,30,237,30,237,30C237,30,237,30,237,30z"/>
		<path class="st7" d="M238,29.5C238,29.5,238.1,29.5,238,29.5c0.1-0.1,0.2-0.2,0.1-0.2c0,0,0,0,0,0c-0.1-0.2-0.3-0.3-0.5-0.4
			c-0.1,0-0.2,0-0.2,0c0,0.1,0,0.2,0,0.2c0,0,0,0,0,0c0.2,0.1,0.3,0.2,0.4,0.3C237.9,29.5,238,29.5,238,29.5z"/>
		<path class="st8" d="M234.5,33.5v3c0,0-0.9,1.5-2.1,1.6s-2.3-1.3-2.3-1.3v-3.1L234.5,33.5z"/>
		<path class="st6" d="M234.5,33.5v1.3c-0.8,0.9-2.3,1.2-4.4,0.9v-2L234.5,33.5z"/>
		<path class="st8" d="M237.7,25.7c0,1.3-0.2,2.6-0.4,3.8c-0.1,0.3-0.1,0.6-0.2,0.8c-0.6,2.2-2.2,6-6.7,4.5c-2-0.7-2.9-2.9-3.3-5.1
			c-0.2-1.4-0.3-2.7-0.3-4.1c0-1.1,0.6-2.1,1.6-2.7c2.6-1.5,5.4-0.9,7.2-0.2C237,23.1,237.8,24.4,237.7,25.7z"/>
		<path class="st4" d="M230.3,28c0,0.3-0.2,0.6-0.4,0.6s-0.4-0.3-0.4-0.6s0.2-0.6,0.4-0.6S230.3,27.6,230.3,28z"/>
		<path class="st4" d="M234.8,28c0,0.3-0.2,0.6-0.4,0.6c-0.2,0-0.4-0.3-0.4-0.6s0.2-0.6,0.4-0.6C234.7,27.4,234.8,27.6,234.8,28z"/>
		<path class="st4" d="M229.2,26.2c0.5-0.1,1-0.2,1.6-0.2c0.2,0,0.3,0.1,0.3,0.3c0,0,0,0,0,0l0,0c0,0.1-0.1,0.2-0.3,0.2
			c-0.4,0-1.6,0-2.2,0.3c0-0.1,0-0.2,0.1-0.3C228.8,26.4,229,26.3,229.2,26.2z"/>
		<path class="st4" d="M235.1,26.2c-0.5-0.1-1-0.2-1.6-0.2c-0.2,0-0.3,0.1-0.3,0.3c0,0,0,0,0,0l0,0c0,0.1,0.1,0.2,0.3,0.2
			c0.4,0,1.6,0,2.2,0.3c0-0.1,0-0.2-0.1-0.3C235.5,26.4,235.3,26.3,235.1,26.2z"/>
		<path class="st6" d="M232.3,30.6c-0.1,0-0.2,0-0.3-0.1c-0.1-0.1-0.2-0.2-0.2-0.4c0-0.8,0-1.5,0.1-2.2c0-0.1,0.1-0.1,0.2-0.1
			s0.1,0.1,0.1,0.2c-0.1,0.7-0.1,1.5-0.1,2.2c0,0.1,0,0.1,0.1,0.1c0.1,0.1,0.4,0,0.6-0.1c0.1,0,0.2,0,0.2,0.1c0,0,0,0,0,0
			c0,0.1,0,0.2-0.1,0.2C232.6,30.6,232.4,30.6,232.3,30.6z"/>
		<path class="st9" d="M230.4,31.5c0.1,0.5,0.5,1.6,1.7,1.6s1.6-0.9,1.7-1.6H230.4z"/>
		<path class="st6" d="M232.1,33.9c-0.2,0-0.5-0.1-0.7-0.2c-0.1,0-0.1-0.1,0-0.2c0-0.1,0.1-0.1,0.2,0c0,0,0,0,0,0l0,0
			c0.2,0.1,0.3,0.1,0.5,0.2c0.2,0,0.4-0.1,0.6-0.2c0.1,0,0.2,0,0.2,0c0,0,0,0,0,0c0,0.1,0,0.2,0,0.2c0,0,0,0,0,0
			C232.6,33.8,232.4,33.9,232.1,33.9z"/>
		<path class="st4" d="M238.3,25.5c-0.1,0.1-0.2,0.2-0.3,0.3c0,0.4,0,0.7-0.1,1.1c-0.2,2.1-0.7,2.4-0.8,1.9c-0.1-0.3-0.1-2.3,0-2.9
			c-0.3,0-0.5,0-0.8-0.1l-0.5-2l-0.2,2c-0.7,0.3-2.4-0.2-2.4-0.2l-0.6-2l-0.3,1.9c-1.1,0.5-2.4,0.2-2.4,0.2l-0.3-2l-0.7,2
			c0,0-2.3,0.8-2.3,0c0-0.5,0.3-1.8,0.6-2.9c0.3-1.1,1.1-2.1,2.1-2.7c2.9-1.5,5.9-0.7,6.9-0.1C238.4,21.3,238.3,25.5,238.3,25.5z"/>
		<path class="st4" d="M227.8,21.3c0,0-1.9,2.3-2.5,6.3s-1.5,7,0.9,8.4c2.6,1.4,2.4-1.5,2.4-2.3c0-0.8-2.3-3-0.8-9.2
			C228.3,22.4,227.8,21.3,227.8,21.3z"/>
		<path class="st5" d="M227.3,29.6L227.3,29.6c0,0,0,0.2,0,0.4c0,0.2,0,0.3,0,0.6c0.1,1.4,0.4,3.7,1.1,4.5c0.3,0.3,0.9,0.5,1.6,0.6
			v-1.1c-0.7-0.4-1.3-0.9-1.8-1.6c-0.5-0.9-0.8-1.9-1-3L227.3,29.6z"/>
		<path class="st9" d="M237.7,31c0,0.2-0.2,0.3-0.3,0.3s-0.3-0.2-0.3-0.3c0-0.2,0.1-0.3,0.3-0.3C237.6,30.6,237.7,30.8,237.7,31
			C237.7,31,237.7,31,237.7,31z"/>
		<path class="st2" d="M244.6,56.3c-1,2.7-5.2,2.5-10.1,1h0l0,0l-0.7-0.2l-0.3-0.1c-0.5-0.2-1.1-0.4-1.6-0.6
			c-1.7-0.7-3.5-1.4-5.1-2.3v0l0.5-1.3l0.2-0.4c0,0,9,1,13.5,0l0.2,0c0-0.1,0-0.2-0.1-0.3c-2.4-8.2,0.2-9.7,1.1-10.9
			C242.3,41.2,246.4,51.1,244.6,56.3z"/>
		<path class="st3" d="M243.1,53.8C243.1,53.8,243.1,53.8,243.1,53.8c-0.2,0-0.2,0-0.3-0.1c-0.3-0.7-1.5-1.1-1.9-1.2l0.2,0l-0.1-0.3
			c0.5,0.1,1.6,0.6,2,1.4C243.3,53.6,243.2,53.7,243.1,53.8C243.1,53.8,243.1,53.8,243.1,53.8z"/>
		<path class="st3" d="M230.5,53.4c-1.8,0-3.3-0.1-3.5-0.1c-0.1,0-0.2-0.1-0.2-0.2c0,0,0,0,0,0c0-0.1,0.1-0.2,0.2-0.2
			c0.1,0,6.8,0.5,9.5-0.6c0.1,0,0.2,0,0.3,0.1c0,0,0,0,0,0c0,0.1,0,0.2-0.1,0.3c0,0,0,0,0,0C235.2,53.3,232.6,53.4,230.5,53.4z"/>
		<path class="st3" d="M233.8,57.1L233.8,57.1c1.5-0.4,2.9-0.8,3.7-1.1c1.1-0.4,2-1.5,2.5-2.5c0-0.1,0.2-0.1,0.2-0.1c0,0,0,0,0,0
			c0.1,0,0.1,0.2,0.1,0.3c0,0,0,0,0,0c-0.5,1-1.5,2.3-2.7,2.7c-0.6,0.2-1.5,0.5-2.5,0.8C234.7,57.2,234.2,57.2,233.8,57.1
			L233.8,57.1z"/>
		<path class="st2" d="M237.9,55.8c-13.9,4.7-18.2,1.6-18.2,1.6c-0.9-8.5,2.5-16.1,2.5-16.1c1,1.7,2.2,4.6,2.2,4.6l0.3,6.5l0,0.2
			v0.1l-0.1,0.4l0,0l0.1,0c4.2,0.9,11.9-0.1,11.9-0.1L237.9,55.8z"/>
		<path class="st3" d="M224.7,53.1c-0.8,0.6-1.5,1.4-2.1,2.2c-0.1,0.1-0.2,0.1-0.3,0c-0.1-0.1-0.1-0.2,0-0.3l0,0l0,0
			c0.7-0.9,1.5-1.7,2.4-2.4L224.7,53.1L224.7,53.1L224.7,53.1z"/>
		<path class="st8" d="M236.6,53c0,0,1.5-3.5,3.9-3.2l0.7,2.5c-1.3,0.5-1.5,2.7-3.3,3.4L236.6,53z"/>
		<path class="st8" d="M227.5,52.4c-0.7-1.4-2-2.5-3.5-2.9c-2.6-0.7-4.2,0.5-4.4,1c-0.2,0.5,1,0,1,0c-0.5,0.2-0.9,0.5-1.2,0.9
			c-0.4,0.7,1-0.1,1-0.1s-1,0.5-1.2,0.9c-0.1,0.4,1.2-0.3,1.5-0.3c0,0-1.2,0.5-1.2,0.9s1.4-0.3,2.5-0.2c0.9,0.1,1.8,0.3,2.7,0.5
			c0.8,0.2,1.6,0.3,2.4,0.3L227.5,52.4z"/>
		<path class="st1" d="M181.8,89.3h101.3c1.1,0,2,0.9,2,2v0.2c0,1.1-0.9,2-2,2H181.8c-1.1,0-2-0.9-2-2v-0.2
			C179.8,90.2,180.7,89.3,181.8,89.3z"/>
		<path class="st3" d="M285.1,91.2L285.1,91.2l-105.2,0.1v-0.1c0-1.1,0.9-2,1.9-2c0,0,0,0,0,0h101.3
			C284.2,89.3,285.1,90.2,285.1,91.2z"/>
		<path class="st4" d="M216.1,63.7H248c0.8,0,1.4,0.6,1.4,1.4v16.7c0,0.8-0.6,1.4-1.4,1.4h-31.8c-0.8,0-1.4-0.6-1.4-1.4V65.1
			C214.8,64.4,215.4,63.7,216.1,63.7z"/>
		<rect x="229.4" y="83.1" class="st5" width="5.4" height="6.1"/>
		<circle class="st12" cx="232" cy="73.7" r="2.7"/>
		<path class="st4" d="M226.8,87.1h10.4c0.9,0,1.7,0.8,1.7,1.7l0,0v0.5l0,0h-13.8l0,0v-0.5C225.1,87.8,225.8,87.1,226.8,87.1z"/>
		<text transform="matrix(0.9 0 0 1 210.787 107.8623)" class="st13 st14 st15">About Us</text>
	</g>
</g>
</svg>
