<svg xmlns="http://www.w3.org/2000/svg" viewBox="0 0 463.35 390.31"><defs><style>.cls-1{fill:#bbe2f2;}.cls-2{fill:#1c31b5;}.cls-3{fill:#009cf8;}.cls-4{fill:#006bde;}.cls-5{fill:#18315b;}.cls-6{fill:#000b29;}.cls-7{fill:#f97853;}.cls-8{fill:#ea5143;}.cls-9{fill:#ffa681;}.cls-10{fill:#fff;}.cls-11{fill:#264cbe;}.cls-12{fill:#e3e3e3;}.cls-13{fill:#1d567e;}.cls-14{font-size:41.78px;fill:#21295b;font-family:Roboto-Black, Roboto;font-weight:800;}</style></defs><g id="Layer_2" data-name="Layer 2"><g id="OBJECTS"><path class="cls-1" d="M201.06,55.84C185.43-.85,115-19.11,74.66,23.26c-.58.6-1.16,1.22-1.74,1.85C15.06,88,42.39,243,163.14,282.28s246.35-32.45,253.41-96.58-48.66-84.27-135.11-66.34C232.6,129.49,210.79,91.13,201.06,55.84Z"/><path class="cls-1" d="M301.51,65.54c-16.16,2.63-20.63,16.94-8.16,27.09,4.12,3.36,10,6.15,18.4,7.54,31.95,5.3,48.91-8.84,36.1-27.17C340,61.69,317.52,62.93,301.51,65.54Z"/><path class="cls-1" d="M43.91,180.08c-10-12.92-24.75-10-27.7,5.81-1,5.23-.6,11.73,2.2,19.76,10.64,30.59,31.17,38.71,41.13,18.69C65.69,212,53.86,192.89,43.91,180.08Z"/><path class="cls-1" d="M427.93,193.16c-1.48,7.79,4.95,13.31,12.24,10.3a15.39,15.39,0,0,0,7-6.26c8.24-12.82,4.06-23.81-7.4-22.68C432.69,175.22,429.41,185.44,427.93,193.16Z"/><path class="cls-1" d="M387.09,110.94c7.77,1.62,13.39-4.72,10.51-12.06a15.47,15.47,0,0,0-6.14-7.11c-12.67-8.45-23.73-4.47-22.8,7C369.23,105.88,379.4,109.33,387.09,110.94Z"/><path class="cls-1" d="M198.36,27.57c6.15,5,14.07,2,14.89-5.87a15.46,15.46,0,0,0-2.19-9.14c-7.36-13.34-19-14.89-23.47-4.26C184.84,14.86,192.27,22.6,198.36,27.57Z"/><path class="cls-2" d="M447.18,232.13c12.33-12.39,21.72-26.4,12.38-28.58S434.51,225.77,431.78,248L429,255.32c2.27-16.15-3.26-35.83-11.37-36.64s-3.18,12,3.22,22.87c4.87,8.31,6.15,14.87,6.47,18.26l-12.93,34.64c3.53-25.6-5.24-56.65-18.06-57.93s-5,19,5.11,36.3c7.67,13.09,9.73,23.44,10.26,28.85l-2.58,6.91,3.39,1.88,15.39-41.21a49.54,49.54,0,0,1,13.89-7.07c12-4.05,24-10.5,17.42-15.17-5.74-4-19.23,3.75-28.52,14.75l5.32-14.25C438.45,243.38,441.86,237.48,447.18,232.13Z"/><path class="cls-2" d="M58.55,70.43c1.6-15,.35-29.43-7.1-25.86S46.61,73,56.75,89.39l2.11,6.4c-7.18-12.08-21.5-22.31-27.38-18.48S35.79,87.05,46,90.93c7.75,3,12.14,6.67,14.18,8.77l10,30.24c-11.42-19.09-34-35.22-43.35-29.17s6.84,15.47,23,21.63C62,127.05,69,132.89,72.23,136.24l2,6,3.29-.56-11.88-36A42.94,42.94,0,0,1,71.15,93.5c5.86-9.18,10.48-20,3.52-19.58-6,.37-10.89,12.88-11.2,25.28L59.36,86.76A62.4,62.4,0,0,1,58.55,70.43Z"/><path class="cls-3" d="M364,273.3c.16.85.34,1.78.55,2.76h0c2.22,10.32,7.67,27.21,19.93,30.54,0,0-6.67-34.81,17.12-43.87s21.16-17.7,19.8-33.06-6.62-18.29,9.89-32.68,13.35-35.83,13.35-35.83-15.62,24.47-32.31,25-19.61,14.81-18.9,25.41-13.46,11.79-21.12,17.93S363.15,268,363.15,268,363.37,270.07,364,273.3Z"/><path class="cls-4" d="M364,273.3c.16.85.34,1.78.55,2.76a52.56,52.56,0,0,1,6.37-12.86c5.34-7.91,12.85-14.41,19.61-16.95,10.76-4.06,16-14.62,17-34.23.59-11.39,12.5-18.12,12.62-18.18a.71.71,0,0,0,.28-1,.72.72,0,0,0-1-.29c-.52.29-12.73,7.18-13.37,19.37-1,19-5.95,29.13-16.1,33-7.13,2.68-14.72,9.22-20.3,17.49A54.91,54.91,0,0,0,364,273.3Z"/><path class="cls-4" d="M100.63,306.42h16.72c-9-1.5-31.43-11.11-33.42-30.39-2.53-24.42-11.23-24.11-25.88-26.67S39.36,251,30.06,232,0,210.67,0,210.67,18.92,231.31,15.3,247s8.92,21.95,19,23.92,7.63,15.48,11.45,24.15c1.74,3.95,8.87,8.06,16.11,11.35Z"/><path class="cls-2" d="M64.42,282.38c.73,7.31,4.94,16,11.25,23.26q.33.39.69.78h1.9c-.54-.58-1.06-1.14-1.54-1.69-6-6.94-10.22-15.56-10.91-22.49-1.1-11-9.63-18.56-27.66-24.38-10.46-3.38-13.76-16.16-13.79-16.29a.7.7,0,0,0-1.35.34c.13.56,3.51,13.65,14.72,17.27C55.15,264.81,63.38,272,64.42,282.38Z"/><path class="cls-3" d="M109.65,261.1c-.35,1.18-.76,2.48-1.21,3.85h0c-4.75,14.38-14.5,38.61-32.51,41.47,0,0,14.25-49.59-18.29-66.18S30.17,211.75,34.47,190,46.72,165,25.39,141.89,11.85,88.73,11.85,88.73s18.53,37.32,42.24,40.69,25.7,24.15,23,39.15,17.39,18.89,27.38,28.83,7.1,56.19,7.1,56.19S111,256.57,109.65,261.1Z"/><path class="cls-4" d="M109.65,261.1c-.35,1.18-.76,2.48-1.21,3.85a75.58,75.58,0,0,0-7.11-19.34c-6.39-12.1-16.12-22.52-25.37-27.19-14.73-7.44-20.6-23.31-19-51.45.91-16.34-15.05-27.76-15.22-27.87a1,1,0,1,1,1.2-1.7c.69.49,17.06,12.19,16.09,29.68-1.51,27.21,4,42.47,17.91,49.49,9.76,4.93,19.58,15.42,26.27,28.07A79,79,0,0,1,109.65,261.1Z"/><path class="cls-5" d="M122.56,294.76c0,3.77.12,7.69.2,11.66h36.36c.07-4.35.13-8.51.17-12.41.11-10.59.12-19.3.11-24.71,0-3.84,0-6,0-6l-37.08-.39s0,3.2,0,8.44C122.36,277.15,122.42,285.49,122.56,294.76Z"/><path class="cls-6" d="M122.33,271.33c0,5.82.09,14.16.23,23.43a182.34,182.34,0,0,0,36.73-.75c.11-10.59.12-19.3.11-24.71Z"/><path class="cls-5" d="M76.74,286.4c0,5.92.11,12.71.22,20h36.37c.09-4.28.16-8.51.22-12.54.12-8.67.19-16.47.22-22.08s0-8.91,0-8.91l-37.09.39s0,3.94,0,10.55C76.69,277.33,76.7,281.58,76.74,286.4Z"/><path class="cls-6" d="M76.69,273.83c0,3.5,0,7.75,0,12.57a228.23,228.23,0,0,0,36.81,7.48c.12-8.67.19-16.47.22-22.08Z"/><path class="cls-5" d="M137.64,67.82s5.84-5.63,5.82-11.19-3.79-3.91-5.82-9.09-8-8.34-11.35-7.71-10.28-12.25-19.74-10S97.92,44.25,93.84,46s-2.94,9-.79,10.61,3.06,8.24,4.27,8.09S137.64,67.82,137.64,67.82Z"/><path class="cls-7" d="M98.32,67.68s-3.68-4.89-6.41-.84,1.13,16,7.82,13.09Z"/><path class="cls-8" d="M98.27,76.23a.56.56,0,0,1-.54-.41c-1-3.69-4.87-5.19-4.91-5.21a.56.56,0,0,1-.32-.73.55.55,0,0,1,.72-.32,9.69,9.69,0,0,1,5.59,6,.56.56,0,0,1-.39.7Z"/><path class="cls-8" d="M94.41,74.37a.59.59,0,0,1-.31-.09.57.57,0,0,1-.17-.78,5.22,5.22,0,0,1,2.12-1.71.57.57,0,0,1,.47,1,4.13,4.13,0,0,0-1.64,1.29A.56.56,0,0,1,94.41,74.37Z"/><path class="cls-7" d="M136.17,67.68s3.68-4.89,6.41-.84-1.13,16-7.82,13.09Z"/><path class="cls-8" d="M136.22,76.23a.57.57,0,0,0,.55-.41c1-3.69,4.86-5.19,4.9-5.21a.56.56,0,0,0,.32-.73.55.55,0,0,0-.72-.32,9.69,9.69,0,0,0-5.59,6,.56.56,0,0,0,.39.7Z"/><path class="cls-8" d="M140.08,74.37a.59.59,0,0,0,.31-.09.57.57,0,0,0,.17-.78,5.22,5.22,0,0,0-2.12-1.71.56.56,0,1,0-.46,1,4.14,4.14,0,0,1,1.63,1.29A.56.56,0,0,0,140.08,74.37Z"/><path class="cls-9" d="M126.29,90.07V102s-3.55,6.06-8.35,6.47-9-5.21-9-5.21V90.91Z"/><path class="cls-7" d="M126.29,90.07v5.28c-3.22,3.58-8.94,4.47-17.4,3.22V90.91Z"/><path class="cls-9" d="M138.83,59.52a115.84,115.84,0,0,1-1.54,15c-.22,1.15-.47,2.24-.75,3.21-2.5,8.77-8.76,23.8-26.3,17.54-7.74-2.77-11.33-11.39-12.93-20.16a86,86,0,0,1-1.17-16.28,12.45,12.45,0,0,1,6.31-10.57c10.34-5.86,21.26-3.68,28.45-.91A12.37,12.37,0,0,1,138.83,59.52Z"/><path class="cls-5" d="M97.32,75.14S99,85.27,100.62,89s6,4.39,7.65,7.51c2.35,4.45,5.94,8,11.83,5.83,4.91-1.79,4.68-4.3,7.43-6.24,4.71-3.32,7-7,7.23-10s2.53-11.51,2.53-11.51l-2.53-.18a66.07,66.07,0,0,1-3.56,6.27c-2.12-4.67-12.36-1.28-12.36-1.28l-2,.64-2-.64S104.51,76.11,102.46,81a18.48,18.48,0,0,1-2.73-6.36Zm19.56,6.44c11.75-2,9.65,4.86,9.57,5.1h0A11.63,11.63,0,0,1,124,88.52c-4.56,2.46-5.05,2.09-6.84,2.17a13.47,13.47,0,0,1-6.91-1.88,20.27,20.27,0,0,1-3.29-2.5S105.16,80,116.88,81.58Z"/><path class="cls-5" d="M109.82,69.24c0,1.27-.65,2.3-1.46,2.3s-1.46-1-1.46-2.3.65-2.3,1.46-2.3S109.82,68,109.82,69.24Z"/><path class="cls-5" d="M127.2,69.24c0,1.27-.65,2.3-1.46,2.3s-1.46-1-1.46-2.3.65-2.3,1.46-2.3S127.2,68,127.2,69.24Z"/><path class="cls-5" d="M131.49,61.66s-6-2.38-10.69-.37l.47,2.58s6.82-.57,10.26.82A4.45,4.45,0,0,0,131.49,61.66Z"/><path class="cls-5" d="M102.77,61.68s6.09-2.41,10.77-.38l-.47,2.6s-6.87-.58-10.34.82A4.54,4.54,0,0,1,102.77,61.68Z"/><path class="cls-7" d="M117.44,78.87a6.11,6.11,0,0,0,2-.43.58.58,0,0,0,.31-.74.58.58,0,0,0-.74-.31,3.37,3.37,0,0,1-2.27.22.6.6,0,0,1-.27-.53,82.48,82.48,0,0,1,.34-8.65.57.57,0,0,0-.52-.61.56.56,0,0,0-.61.51,86,86,0,0,0-.34,8.87,1.73,1.73,0,0,0,.82,1.38A2.36,2.36,0,0,0,117.44,78.87Z"/><path class="cls-10" d="M110.24,82.71c.43,2.16,1.85,6.13,6.66,6.13s6.16-3.63,6.63-6.13Z"/><path class="cls-5" d="M138.83,59.52a115.84,115.84,0,0,1-1.54,15l-2.53-.18s.61-3.9.9-6.45.76-7.29-1.41-7.89-.9-6-3.91-8.36-9.7-4.43-14.14-1.69-9.5,1.22-11.54,1.69-4.84,3.3-4.08,5.94-1.51,4.24-2.06,7,1.21,10.08,1.21,10.08l-2.42.49a86,86,0,0,1-1.17-16.28,12.45,12.45,0,0,1,6.31-10.57c10.34-5.86,21.26-3.68,28.45-.91A12.37,12.37,0,0,1,138.83,59.52Z"/><path class="cls-4" d="M167.06,281.16a200.38,200.38,0,0,1-34.31,5.63l-1.55.11c-1.58.11-3.15.19-4.72.26a193.6,193.6,0,0,1-23.35-.39c-1.58-.12-3.14-.26-4.71-.42l-1.51-.16a204.78,204.78,0,0,1-27.89-5c-.09-8.57,0-35.66.54-65,.06-3.53.13-7.1.21-10.67.82-38.72,2.41-78,5.27-82,2.74-3.77,11-8.56,18.91-12.88l1.41-.76,5.15-2.79c3.5-1.91,6.52-3.6,8.38-4.91v1.08s4.26,5.63,9,5.21c4.37-.37,7.7-5.42,8.26-6.33a107.31,107.31,0,0,0,10.06,5.72c1.19.64,2.43,1.29,3.69,2l1.4.74c8.74,4.64,18.16,9.86,21,13.75a4.58,4.58,0,0,1,.61,1.43c1.67,5.66,2.71,24.46,3.34,47.23v.25c0,.92.05,1.85.07,2.78,0,.12,0,.25,0,.37.21,8,.37,16.39.49,24.84l0,2c0,.34,0,.67,0,1,0,1.67,0,3.33.06,5,0,1.23,0,2.45,0,3.67C167.32,243.38,167.19,272.18,167.06,281.16Z"/><path class="cls-11" d="M166.36,176c-2.75-4.49-5.7-9.08-8.48-13.14,0,0,0,0,0,0-1.17-1.7-2.31-3.31-3.39-4.78l-.06-.07c-.34-.47-.67-.91-1-1.35a1.08,1.08,0,0,1-.12-.24h0a.76.76,0,0,1,1.33-.67c3.35,4.43,7.62,10.79,11.66,17.25v.25C166.32,174.1,166.34,175,166.36,176Z"/><path class="cls-4" d="M162.45,123.64s17.25,31.6,27.76,47.61c0,0,6-5.49,13.75-12.84,8.43-8,20-21.28,20-21.28l6.38,7.57s-25.9,46.61-37.52,52.47-33-35.61-33-35.61Z"/><path class="cls-11" d="M89.44,248.16h0a.77.77,0,0,1-.75-.81c.9-25.51-12.33-33.78-12.46-33.86a.78.78,0,1,1,.8-1.34c.14.09,3.64,2.22,7,7.66,3.09,5,6.67,13.79,6.18,27.6A.77.77,0,0,1,89.44,248.16Z"/><path class="cls-11" d="M145.88,224.12a.78.78,0,0,1-.78-.71c-.42-5.38,1.35-9.3,3.59-14.26.66-1.45,1.34-3,2-4.63,4.35-10.55,2.16-22.61,2.14-22.73a.78.78,0,0,1,.62-.91.77.77,0,0,1,.91.62c.1.51,2.3,12.64-2.23,23.61-.7,1.71-1.38,3.22-2,4.68-2.24,5-3.85,8.52-3.46,13.49a.78.78,0,0,1-.72.84Z"/><path class="cls-10" d="M100.51,107.06c.33,2.51.82,5.77,1.35,9.47.17,1.1.33,2.24.49,3.41.55,3.82,1.11,8,1.58,12.19.13,1.13.26,2.26.37,3.39.42,4.16.74,8.3.85,12.15,0,1.16,0,2.3,0,3.4a53.86,53.86,0,0,1-.53,7.94c-.23,1.46-.43,2.89-.61,4.28-.14,1.16-.28,2.29-.39,3.41-.46,4.34-.69,8.38-.75,12.19,0,1.15,0,2.28,0,3.39,0,4.33.28,8.35.63,12.19.11,1.15.23,2.28.35,3.39.47,4.19,1,8.18,1.57,12.12l.45,3.38c.23,1.81.45,3.61.64,5.43s.33,4.17.39,6.67c0,1.09,0,2.23,0,3.41,0,3.73-.08,7.86-.25,12.19,0,1.13-.1,2.27-.15,3.43-.2,4-.45,8.14-.73,12.22-.09,1.15-.17,2.29-.26,3.43-.31,4.24-.66,8.37-1,12.22-.11,1.17-.22,2.31-.32,3.41-.41,4.23-.8,8-1.15,11a193.8,193.8,0,0,0,23.36.39c.18-3.19.68-8.35,1.17-14.41.09-1.11.17-2.26.26-3.42.29-3.86.56-8,.73-12.14.05-1.14.09-2.29.12-3.43.12-4.15.13-8.28,0-12.15-.06-1.17-.12-2.32-.22-3.44s-.2-2.25-.33-3.33a68.76,68.76,0,0,1-.5-8.84c0-1.15,0-2.28.09-3.42.18-4,.61-7.92,1.11-12.13.13-1.12.27-2.26.41-3.42.45-3.74.92-7.71,1.29-12.06q.15-1.66.27-3.42c.26-3.73.43-7.73.46-12.1,0-1.12,0-2.27,0-3.44,0-3.78-.2-7.82-.51-12.18,0-.38-.05-.78-.08-1.17-.06-.76-.11-1.53-.14-2.3a117,117,0,0,1,.07-12.13c.06-1.14.14-2.29.23-3.43.31-4.08.77-8.12,1.3-12,.16-1.15.32-2.29.49-3.41.63-4.25,1.32-8.24,2-11.81.21-1.17.41-2.3.6-3.38.42-2.41.8-4.56,1.07-6.38a109.64,109.64,0,0,1-10.06-5.72c-.56.91-3.89,6-8.26,6.33-4.79.42-9-5.21-9-5.21v-1.08C107,103.46,104,105.15,100.51,107.06Z"/><path class="cls-12" d="M101.86,116.53c.17,1.1.33,2.24.49,3.41a63.43,63.43,0,0,0,15.44-2,41.17,41.17,0,0,1,16.8-.4c.21-1.17.41-2.3.6-3.38a44.55,44.55,0,0,0-18.16.46A59.4,59.4,0,0,1,101.86,116.53Z"/><path class="cls-12" d="M103.93,132.13c.13,1.13.26,2.26.37,3.39a68.65,68.65,0,0,0,13.49-2,41.16,41.16,0,0,1,14.36-.76c.16-1.15.32-2.29.49-3.41a44.65,44.65,0,0,0-15.61.85A65.94,65.94,0,0,1,103.93,132.13Z"/><path class="cls-12" d="M105.15,147.67c0,1.16,0,2.3,0,3.4a72,72,0,0,0,12.59-1.91,41.39,41.39,0,0,1,12.83-.93c.06-1.14.14-2.29.23-3.43a45.26,45.26,0,0,0-13.82,1A69.81,69.81,0,0,1,105.15,147.67Z"/><path class="cls-12" d="M103.67,166.7a67.76,67.76,0,0,0,14.12-2,41.11,41.11,0,0,1,13-.91c0-.38-.05-.78-.08-1.17-.06-.76-.11-1.53-.14-2.3A44.92,44.92,0,0,0,117,161.42a66,66,0,0,1-13,1.87C103.92,164.45,103.78,165.58,103.67,166.7Z"/><path class="cls-12" d="M102.91,182.28a64.27,64.27,0,0,0,14.88-2,41.73,41.73,0,0,1,13.5-.87c0-1.12,0-2.27,0-3.44A44.63,44.63,0,0,0,117,177a62.81,62.81,0,0,1-14.11,1.89C102.9,180,102.9,181.17,102.91,182.28Z"/><path class="cls-12" d="M103.54,194.47c.11,1.15.23,2.28.35,3.39a67.32,67.32,0,0,0,13.9-2,41,41,0,0,1,12.77-.94q.15-1.66.27-3.42a44.86,44.86,0,0,0-13.8,1A64.51,64.51,0,0,1,103.54,194.47Z"/><path class="cls-12" d="M105.46,210l.45,3.38a72.33,72.33,0,0,0,11.88-1.87,41.25,41.25,0,0,1,11.07-1c.13-1.12.27-2.26.41-3.42A45.39,45.39,0,0,0,117,208.17,70.72,70.72,0,0,1,105.46,210Z"/><path class="cls-12" d="M106.94,225.46c0,1.09,0,2.23,0,3.41a75.76,75.76,0,0,0,10.8-1.8,41.75,41.75,0,0,1,9.87-1.07c0-1.15,0-2.28.09-3.42A45.05,45.05,0,0,0,117,223.75,76,76,0,0,1,106.94,225.46Z"/><path class="cls-12" d="M106.59,244.49a78.43,78.43,0,0,0,11.2-1.83,41.73,41.73,0,0,1,10.92-1c-.06-1.17-.12-2.32-.22-3.44A45.83,45.83,0,0,0,117,239.33a73.57,73.57,0,0,1-10.29,1.73C106.69,242.19,106.64,243.33,106.59,244.49Z"/><path class="cls-12" d="M105.6,260.14a73.81,73.81,0,0,0,12.19-1.9,41.69,41.69,0,0,1,10.85-1.05c.05-1.14.09-2.29.12-3.43A45.3,45.3,0,0,0,117,254.92a71.66,71.66,0,0,1-11.17,1.79C105.77,257.86,105.69,259,105.6,260.14Z"/><path class="cls-12" d="M104.27,275.77a68.17,68.17,0,0,0,13.52-1.95,41.67,41.67,0,0,1,9.86-1.07c.09-1.11.17-2.26.26-3.42A45.4,45.4,0,0,0,117,270.5a67.79,67.79,0,0,1-12.44,1.86C104.48,273.53,104.37,274.67,104.27,275.77Z"/><path class="cls-11" d="M131.2,286.9l1.55-.11c3.07-18,1.3-44.53.64-52.64-.68-8.43.63-19.27,3.6-29.72,2.3-8.13.89-27-.25-42.1-.31-4.24-.62-8.25-.8-11.55-.58-10.66,3.28-30.37,5.41-40.26l-1.4-.74c-2.13,9.79-6.13,29.95-5.52,41.08.18,3.31.48,7.33.8,11.59,1.13,15,2.53,33.7.3,41.56-3,10.63-4.34,21.66-3.65,30.26C132.54,242.4,134.32,269.05,131.2,286.9Z"/><path class="cls-11" d="M99.76,213.49c1.8,11.09,1.23,18.3.58,26.64-.22,2.69-.44,5.48-.59,8.56-.48,9.65-2.12,29.09-2.84,37.5l1.51.16c.72-8.41,2.36-27.9,2.84-37.59.16-3,.38-5.83.59-8.51.66-8.44,1.24-15.73-.6-27-.39-2.42-.8-4.87-1.22-7.32-2-12.09-4.15-24.59-3.15-30.58.24-1.46.55-3.12.88-4.88,1.36-7.23,3-16.23,2.52-24s-3.7-28.69-4.92-36.58l-1.41.77c1.27,8.25,4.3,28.4,4.82,35.91s-1.16,16.51-2.5,23.65c-.33,1.76-.64,3.43-.89,4.91-1,6.24,1,18.31,3.16,31.09C99,208.62,99.37,211.07,99.76,213.49Z"/><path class="cls-9" d="M69.94,136.36S54.5,187.84,50.68,206.18s-4.12,56.49-4.12,56.49-6.75,14-6.91,20.24c-.17,6.65,3.32,11.94,2.92,16.29s4.9,2,3.4-6.83,2.75-16.78,4.58-16.53-1.51,9.62.11,13,3.73-3.18,5.83-7.15c2.17-4.13,2-13.14,1-19.57s10.67-45.5,10.73-56.82L83,155.4S78.16,134.57,69.94,136.36Z"/><path class="cls-4" d="M84.93,154.14c-.53,3.31-2.36,9-4.72,16.14h0c-.2.6-.41,1.22-.61,1.84l0,.09-1.85,5.56v0c-2.62,7.94-5.52,17-7.95,26.38-.84,3.2-1.62,6.43-2.31,9.65-.89,4.11-1.64,8.21-2.19,12.23-2,14.45-5.74,32.76-5.74,32.76-5.54,2.27-14.19-.73-14.19-.73s-.23-26.37,1-36.61a275,275,0,0,1,5.88-32c6.63-28.49,18.3-56.36,21.5-63.75l.6-1.37h2.75C82.49,127.77,86.34,145.23,84.93,154.14Z"/><path class="cls-3" d="M44.88,252.82l.43,6.07s8.23,2.67,14.4.79l1.63-5.41C55.4,254.58,49.91,254.44,44.88,252.82Z"/><path class="cls-11" d="M80.21,170.28h0a.8.8,0,0,1,0,.26l-.56,1.58,0,.09c-.61,1.72-1.23,3.59-1.85,5.56v0a300.51,300.51,0,0,0-8,31.36l.06-5c-.84,3.2-1.62,6.43-2.31,9.65a118.19,118.19,0,0,1,2.35-12.67A297.92,297.92,0,0,1,78.74,170a.76.76,0,0,1,1.47.26Z"/><path class="cls-5" d="M356.35,306.42h36.46c-.12-2.53-.24-5-.36-7.25-.63-12.48-1.17-21-1.17-21l-29.66,1.32-2.46.11-4.36.2s.42,7.6,1.08,18.74C356,301,356.18,303.65,356.35,306.42Z"/><path class="cls-6" d="M359.16,279.61l-4.36.2s.42,7.6,1.08,18.74a265.13,265.13,0,0,0,36.57.62c-.63-12.48-1.17-21-1.17-21l-29.66,1.32Z"/><path class="cls-6" d="M363.13,306.42c-.66-11.56-1.21-21.43-1.51-26.92l-2.46.11c.3,5.46.85,15.29,1.51,26.81Z"/><path class="cls-5" d="M345.65,306.42c.19-3.13.36-6.1.52-8.84.63-10.61,1-17.77,1-17.77l-4.74-.21-2.45-.11-29.29-1.31s-.33,5.07-.77,13.13c-.23,4.29-.5,9.43-.77,15.11Z"/><path class="cls-6" d="M310,291.31a324.39,324.39,0,0,0,36.22,6.27c.63-10.61,1-17.77,1-17.77l-4.74-.21-2.45-.11-29.29-1.31S310.39,283.25,310,291.31Z"/><path class="cls-6" d="M341,306.42c.67-11.53,1.21-21.37,1.51-26.82l-2.45-.11c-.3,5.48-.85,15.36-1.52,26.93Z"/><path class="cls-4" d="M396.57,283.87a174.33,174.33,0,0,1-22.28,4.62c-2.58.36-5.16.67-7.75.9-3.48.33-7,.54-10.43.65a165.92,165.92,0,0,1-17.27-.37,175.33,175.33,0,0,1-33.38-5.8c-.1-10.38.05-47.59.83-83.48,0-1.61.07-3.22.11-4.82l0-1c0-.37,0-.74,0-1.11l.09-3.41c.06-2.3.12-4.59.18-6.85,0-1.35.08-2.7.12-4l0-.83c0-.88.05-1.75.08-2.62h0l0-.81c0-.8,0-1.59.08-2.38s0-1.34.07-2c.86-24.21,2.12-43.31,3.92-46,3.06-4.57,13.49-10.63,21.87-15.56,3-1.75,6.55-3.58,8.59-4.93,3,2.4,5.14,4.56,9.55,4.41,4.94-.17,6.16-3.14,8-5.68,1.15.74,4.07,3.14,5.58,4,1.3.76,2.71,1.58,4.18,2.42,2.26,1.3,4.68,2.68,7.07,4.08,3.54,2.09,7,4.24,9.92,6.29a26.46,26.46,0,0,1,6.33,5.72c1.64,2.46,2.7,18.39,3.38,39.35,0,.73.05,1.47.08,2.22v.28c0,.76.05,1.54.07,2.32.06,2.36.13,4.77.19,7.22,0,.52,0,1,0,1.56s0,.78,0,1.17c0,1,.05,2,.07,3,0,.2,0,.4,0,.61q.09,4,.16,8.16c0,.81,0,1.61,0,2.42C396.86,231.36,396.72,272.72,396.57,283.87Z"/><path class="cls-11" d="M396.24,193.63l-11.76,11.93-11-11.11-11,11.11-11-11.15-11,11.15-11.07-11.23-11.08,11.23-12-12.12.09-3.41c.06-2.3.12-4.59.18-6.85l11.69-11.86,11.08,11.23,11.07-11.23,11,11.16,11-11.16,11,11.11,11-11.11L396,183.05q.09,4,.16,8.16C396.21,192,396.23,192.82,396.24,193.63Z"/><path class="cls-11" d="M375.93,255.13h0c-15.75-.07-29.19-7.24-37.7-13.24a86,86,0,0,1-14.82-13.13.76.76,0,1,1,1.16-1,84.68,84.68,0,0,0,14.57,12.89c8.32,5.86,21.46,12.86,36.8,12.93a.75.75,0,0,1,.75.76A.76.76,0,0,1,375.93,255.13Z"/><path class="cls-11" d="M366.11,245.81c-13.41-2.63-25.28-12.9-25.82-13.38a.75.75,0,0,1-.07-1.06.76.76,0,0,1,1.07-.08c.14.13,14.11,12.2,28.34,13.5a.76.76,0,1,1-.14,1.51A32.37,32.37,0,0,1,366.11,245.81Z"/><path class="cls-11" d="M339.25,129.26a.76.76,0,0,1-.14-1.5c19.2-3.64,25-16,25.05-16.12a.76.76,0,1,1,1.38.62c-.24.54-6.18,13.2-26.14,17Z"/><path class="cls-11" d="M315.82,162.51h0a.56.56,0,0,1-.1.24l-.89,1.43,0,.08c-1,1.55-2,3.25-3,5l0,0c-1.61,2.82-3.28,5.87-4.91,9,0-.88.05-1.75.08-2.62h0l0-.81c2.63-4.88,5.26-9.46,7.46-12.93a.77.77,0,0,1,1.05-.23A.75.75,0,0,1,315.82,162.51Z"/><path class="cls-9" d="M412.58,134.43s24.56-7.89,31.82-24c2.11-4.66-15.21-52-15.21-52l-8.35.4s2.38,16.44,3.82,25.75c1.19,7.65,3.11,16.8,3.75,19.81l.22,1-1.24.24c-11.47,2.33-26.12,9.8-26.12,9.8Z"/><path class="cls-7" d="M434.8,109.9a.79.79,0,0,0,1.1-.18.78.78,0,0,0-.17-1.1,63,63,0,0,0-7.32-4.28l.22,1-1.24.24A61,61,0,0,1,434.8,109.9Z"/><path class="cls-4" d="M375,112.75s-7.42,17.43,11.48,27.14c13.09,6.71,42.9-10.82,42.9-10.82L418.76,106.5S391.49,117.75,375,112.75Z"/><path class="cls-9" d="M424.91,31.74c-.74.52-.58,3.72-.26,6.73l-.32.06c-.88-4-2.62-10.87-4.12-9.57-1,.86.33,6.76,1.22,10.29l-.55.18c-1.13-4.19-3.56-12.26-5.17-10.7-1.08,1.05,1,8.16,2.14,11.78l-.47.19c-1.1-3.52-3.45-10.17-5.06-8.61C410.86,33.51,415,43.57,415,43.57h0l1.09,3.94s-1.3.57-3.33-1.73-4.46-2.7-2.77.62c1.9,3.76,4.72,6.45,6,9.11s5.15,3.54,5.15,3.54l7.84-.38s1.53-13.27-1.4-19.59h0C427.09,35.32,426.2,30.84,424.91,31.74Z"/><path class="cls-5" d="M327.82,62.33c0,13.36,8.23,22.57,21.59,22.57S372.1,75,372.1,61.64a28.62,28.62,0,0,0-1.76-10.18l-.21-.54c-.14-.34-.29-.69-.45-1-.23-.52-.49-1-.76-1.51-3.49-6.26-9.72-10.24-18.11-10.24C334.79,38.15,327.82,49,327.82,62.33Z"/><path class="cls-7" d="M330.83,68.08s-3.72-4.95-6.48-.86,1.14,16.19,7.9,13.24Z"/><path class="cls-8" d="M330.78,76.72a.56.56,0,0,1-.55-.42c-1.05-3.73-4.92-5.24-5-5.26a.57.57,0,0,1,.41-1.07c.18.07,4.44,1.73,5.65,6a.57.57,0,0,1-.4.7A.39.39,0,0,1,330.78,76.72Z"/><path class="cls-8" d="M326.87,74.84a.61.61,0,0,1-.31-.09.58.58,0,0,1-.17-.79,5.31,5.31,0,0,1,2.15-1.73.57.57,0,0,1,.75.29.58.58,0,0,1-.29.76,4.18,4.18,0,0,0-1.65,1.3A.56.56,0,0,1,326.87,74.84Z"/><path class="cls-7" d="M369.09,68.08s3.72-4.95,6.48-.86-1.15,16.19-7.91,13.24Z"/><path class="cls-8" d="M369.14,76.72a.56.56,0,0,0,.55-.42c1.05-3.73,4.91-5.24,4.95-5.26a.55.55,0,0,0,.33-.73.57.57,0,0,0-.73-.34c-.18.07-4.44,1.73-5.65,6a.56.56,0,0,0,.4.7A.39.39,0,0,0,369.14,76.72Z"/><path class="cls-8" d="M373,74.84a.57.57,0,0,0,.48-.88,5.15,5.15,0,0,0-2.14-1.73.56.56,0,0,0-.75.29.58.58,0,0,0,.28.76,4,4,0,0,1,1.65,1.3A.58.58,0,0,0,373,74.84Z"/><path class="cls-9" d="M359.1,90.71v12s-3.59,6.12-8.44,6.54-9.15-5.27-9.15-5.27V91.56Z"/><path class="cls-7" d="M359.1,90.71v5.34c-3.26,3.61-9,4.51-17.59,3.25V91.56Z"/><path class="cls-9" d="M371.78,59.83A118.32,118.32,0,0,1,370.22,75c-.23,1.17-.48,2.26-.76,3.25-2.53,8.86-8.86,24-26.58,17.72-7.82-2.79-11.45-11.51-13.07-20.37a86.3,86.3,0,0,1-1.18-16.46A12.58,12.58,0,0,1,335,48.48c10.46-5.93,21.5-3.72,28.76-.92A12.51,12.51,0,0,1,371.78,59.83Z"/><path class="cls-5" d="M342.36,69.65c0,1.28-.66,2.33-1.48,2.33s-1.47-1-1.47-2.33.66-2.32,1.47-2.32S342.36,68.37,342.36,69.65Z"/><path class="cls-5" d="M359.78,69.6c0,1.29-.66,2.33-1.48,2.33s-1.48-1-1.48-2.33.66-2.32,1.48-2.32S359.78,68.32,359.78,69.6Z"/><path class="cls-5" d="M363.12,61.62s-4.67-1.85-8.26-.3l.36,2s5.27-.45,7.93.63A3.52,3.52,0,0,0,363.12,61.62Z"/><path class="cls-5" d="M336,61.62s4.66-1.85,8.25-.3l-.35,2s-5.27-.45-7.93.63A3.45,3.45,0,0,1,336,61.62Z"/><path class="cls-7" d="M350.16,79.39a6.2,6.2,0,0,0,2.07-.43.57.57,0,1,0-.44-1.06,3.36,3.36,0,0,1-2.29.21.62.62,0,0,1-.28-.53,84,84,0,0,1,.35-8.75.57.57,0,0,0-.53-.61.56.56,0,0,0-.61.52,84.3,84.3,0,0,0-.35,9,1.77,1.77,0,0,0,.84,1.4A2.47,2.47,0,0,0,350.16,79.39Z"/><path class="cls-10" d="M342.49,82.29c.95,3.3,3.65,6.59,7.36,6.63s6.42-3.33,7.37-6.63Z"/><path class="cls-7" d="M349.54,92.5a6,6,0,0,0,2.78-.78.56.56,0,0,0,.19-.78.57.57,0,0,0-.78-.2,4,4,0,0,1-4.27,0,.57.57,0,0,0-.79.18.58.58,0,0,0,.19.79A5.73,5.73,0,0,0,349.54,92.5Z"/><path class="cls-5" d="M371.17,68.18h-2.59c.29-2.6.7-7.17-1.43-7.83-6.75-2.07,2-6.84-1-9.22s-10.63-1.36-15.9-1.53-13.82-.09-15.89.39-.94,3.91-.18,6.58-2.54,5.61-3.1,8.37a12.46,12.46,0,0,0,0,3.24h-2.16c-.26-3.36-.3-6.48-.25-9A12.58,12.58,0,0,1,335,48.48c10.46-5.93,21.5-3.72,28.76-.92a12.51,12.51,0,0,1,8,12.27C371.66,62.39,371.47,65.3,371.17,68.18Z"/><path class="cls-10" d="M340.62,76.38a6.47,6.47,0,1,1,6.47-6.47A6.47,6.47,0,0,1,340.62,76.38Zm0-11.93a5.46,5.46,0,1,0,5.46,5.46A5.47,5.47,0,0,0,340.62,64.45Z"/><path class="cls-10" d="M358.3,76.38a6.47,6.47,0,1,1,6.47-6.47A6.47,6.47,0,0,1,358.3,76.38Zm0-11.93a5.46,5.46,0,1,0,5.46,5.46A5.47,5.47,0,0,0,358.3,64.45Z"/><path class="cls-10" d="M335.25,67.83a.51.51,0,0,1-.36-.15h0a8,8,0,0,0-6.82-2,.49.49,0,0,1-.6-.37.5.5,0,0,1,.37-.61A8.85,8.85,0,0,1,335.6,67a.5.5,0,0,1-.35.86Z"/><path class="cls-10" d="M363.79,67.83a.51.51,0,0,1-.27-.93c.19-.12,4.77-3.07,8.66-2.43a.5.5,0,0,1-.16,1c-3.51-.57-7.91,2.26-7.95,2.29A.57.57,0,0,1,363.79,67.83Z"/><path class="cls-10" d="M352.19,68.46a4.1,4.1,0,0,0-2.79-1.63,3.69,3.69,0,0,0-2.65,1.63l-.84-.55a4.63,4.63,0,0,1,3.49-2.09A5.08,5.08,0,0,1,353,67.87Z"/><path class="cls-9" d="M313.69,161.56a183.32,183.32,0,0,1-14.83,23.65,62.69,62.69,0,0,1-7.27,8.12c-3.95,3.56-7.79,5.42-10.92,3.84-11.62-5.86-37.53-52.47-37.53-52.47l6.38-7.57s11.53,13.31,20,21.28c7.78,7.35,13.76,12.84,13.76,12.84,1.07-1.64,2.22-3.43,3.41-5.33s2.58-4.15,3.92-6.35c9.71-15.94,20.48-35.07,20.48-35.07Z"/><path class="cls-7" d="M298.86,185.21a62.69,62.69,0,0,1-7.27,8.12l-4.94-27.41c1.27-2,2.58-4.15,3.92-6.35Z"/><path class="cls-4" d="M311.05,124.5l-23.28,36.62,7.81,32.21L314.85,162S317.19,140.49,311.05,124.5Z"/><path class="cls-4" d="M281.78,306.42c-1.67-9.22-3.31-19.61-4.8-29.71q-.48-3.34-1-6.63c-1.19-8.35-2.26-16.26-3.12-22.81-.32-2.49-.62-4.79-.88-6.85-.83-6.54-1.32-10.61-1.32-10.61l-36.77,1.39-36.88-1.39s-1,8.05-2.48,19.71c-.27,2.13-.57,4.36-.88,6.7-.82,6.12-1.76,12.88-2.76,19.81,0,.1,0,.2-.05.3q-.47,3.24-1,6.5s0,.06,0,.09h0c-.79,5.25-1.62,10.49-2.46,15.53q-.51,3.14-1.05,6.12c-.1.62-.21,1.24-.32,1.85Z"/><path class="cls-11" d="M205.52,240.86a3.47,3.47,0,1,1-3.46-3.47A3.46,3.46,0,0,1,205.52,240.86Z"/><path class="cls-11" d="M214.12,254.28a3.47,3.47,0,1,1-3.46-3.46A3.46,3.46,0,0,1,214.12,254.28Z"/><path class="cls-11" d="M231,247.35a3.47,3.47,0,1,1-3.46-3.46A3.46,3.46,0,0,1,231,247.35Z"/><path class="cls-11" d="M204.34,268.54a3.47,3.47,0,1,1-3.47-3.47A3.47,3.47,0,0,1,204.34,268.54Z"/><path class="cls-11" d="M225.48,267.06a3.47,3.47,0,1,1-3.47-3.47A3.46,3.46,0,0,1,225.48,267.06Z"/><path class="cls-11" d="M196.83,252.77a3.46,3.46,0,0,1-3.14,3.45c.31-2.34.61-4.57.88-6.7A3.47,3.47,0,0,1,196.83,252.77Z"/><path class="cls-11" d="M259.93,287.42a3.47,3.47,0,1,1-3.46-3.47A3.46,3.46,0,0,1,259.93,287.42Z"/><path class="cls-11" d="M258.3,268.54a3.47,3.47,0,1,1-3.47-3.47A3.48,3.48,0,0,1,258.3,268.54Z"/><path class="cls-11" d="M277,276.71a3.37,3.37,0,0,1-1.36.28,3.47,3.47,0,0,1,0-6.93l.4,0Q276.5,273.37,277,276.71Z"/><path class="cls-11" d="M261.76,301.25a3.47,3.47,0,1,1-3.46-3.46A3.46,3.46,0,0,1,261.76,301.25Z"/><path class="cls-11" d="M276.58,295.72a3.47,3.47,0,1,1-3.46-3.46A3.46,3.46,0,0,1,276.58,295.72Z"/><path class="cls-11" d="M245.74,306.42a3.45,3.45,0,0,0-5.71,0Z"/><path class="cls-11" d="M202.06,290.43a3.47,3.47,0,1,1-3.47-3.46A3.47,3.47,0,0,1,202.06,290.43Z"/><path class="cls-11" d="M192.91,279.49a3.46,3.46,0,0,1-3,3.43s0-.06,0-.09q.5-3.25,1-6.5A3.46,3.46,0,0,1,192.91,279.49Z"/><path class="cls-11" d="M188.86,301.25a3.47,3.47,0,0,1-2.47,3.32q.54-3,1.05-6.12A3.48,3.48,0,0,1,188.86,301.25Z"/><path class="cls-11" d="M210.66,302.72a3.47,3.47,0,1,1-3.47-3.47A3.46,3.46,0,0,1,210.66,302.72Z"/><path class="cls-11" d="M229,300a3.47,3.47,0,1,1-3.47-3.46A3.47,3.47,0,0,1,229,300Z"/><path class="cls-11" d="M215.9,283a3.47,3.47,0,1,1-3.47-3.46A3.47,3.47,0,0,1,215.9,283Z"/><path class="cls-11" d="M234.51,279.5A3.47,3.47,0,1,1,231,276,3.46,3.46,0,0,1,234.51,279.5Z"/><path class="cls-11" d="M242.88,261.21a3.47,3.47,0,1,1-3.46-3.46A3.46,3.46,0,0,1,242.88,261.21Z"/><path class="cls-11" d="M272.9,247.27a3.57,3.57,0,0,1-.74.08,3.47,3.47,0,0,1-.14-6.93C272.28,242.48,272.58,244.78,272.9,247.27Z"/><path class="cls-11" d="M254.83,247.35a3.47,3.47,0,1,1-3.47-3.46A3.47,3.47,0,0,1,254.83,247.35Z"/><path class="cls-11" d="M267.52,259.7a3.47,3.47,0,1,1-3.46-3.46A3.46,3.46,0,0,1,267.52,259.7Z"/><path class="cls-11" d="M246.35,290.43a3.47,3.47,0,1,1-3.47-3.46A3.47,3.47,0,0,1,246.35,290.43Z"/><path class="cls-3" d="M272.93,230.72c-19.39,12.67-55,11.67-77.39,0,2.14-13.31,5-26.65,4.35-44.37-.07-1.94-.15-3.88-.25-5.79-.09-1.66-.18-3.32-.29-4.95-1.93-29.49-7-53.6-4.49-56.71a23.5,23.5,0,0,1,5.1-4.35c.87-.59,1.8-1.19,2.79-1.79,2.32-1.42,4.9-2.85,7.5-4.24,6.15-3.28,12.39-6.33,15.52-8.41a20.06,20.06,0,0,0,8.24,2.08h.45a20.06,20.06,0,0,0,8.25-2.08c2.9,1.93,8.37,4.63,14,7.56a121.75,121.75,0,0,1,11.5,6.68,23.16,23.16,0,0,1,4.91,4.22c1.22,1.55.71,8.32-.34,18.35-1,9.87-2.59,22.91-3.53,37.23-.26,4-.47,8.06-.61,12.2C268,204.07,270.8,217.41,272.93,230.72Z"/><path class="cls-4" d="M261.07,216h0c-15.62-.07-28.95-7.18-37.39-13.13a85.78,85.78,0,0,1-14.7-13,.75.75,0,1,1,1.15-1,84,84,0,0,0,14.45,12.78c8.25,5.82,21.28,12.77,36.5,12.83a.76.76,0,0,1,0,1.51Z"/><path class="cls-4" d="M250.73,206.9c-13.3-2.61-25.07-12.8-25.61-13.27a.75.75,0,1,1,1-1.13c.14.12,14,12.1,28.11,13.39a.75.75,0,0,1,.68.82.74.74,0,0,1-.81.68A31.62,31.62,0,0,1,250.73,206.9Z"/><path class="cls-4" d="M231,138.1a.77.77,0,0,1-.74-.62.75.75,0,0,1,.6-.87c19-3.62,24.78-15.87,24.84-16a.75.75,0,0,1,1-.38.76.76,0,0,1,.38,1c-.24.53-6.12,13.08-25.93,16.84Z"/><path class="cls-9" d="M256.66,107.67c-3.78,8.63-13.07,17.55-25.16,15.47-11.7-2-17.25-8.22-21.25-14.62,6.15-3.28,12.39-6.33,15.52-8.41a20.06,20.06,0,0,0,8.24,2.08h.46a20.06,20.06,0,0,0,8.24-2.08C245.61,102,251.08,104.73,256.66,107.67Z"/><path class="cls-10" d="M246.56,100.74a.61.61,0,0,0-.61.59c0,.49-.2,11.89-10.43,12.77-9.49.82-13.41-8.26-14.63-12a.53.53,0,0,0-.51-.37h-.11a.54.54,0,0,0-.51.7c1.3,3.89,5.44,13.28,15.1,12.94l.77,0c11.32-1,11.52-13.82,11.52-14A.59.59,0,0,0,246.56,100.74Z"/><path class="cls-5" d="M253.79,40.17s9.14,14.16,8.14,28.91,1.35,31.78-11.85,31-36.75,5.29-44.23-6.2S253.79,40.17,253.79,40.17Z"/><path class="cls-6" d="M257.18,66.21s2.37,21.38-7.78,27.26-17.49-.68-17.49-.68S253.3,63,257.18,66.21Z"/><path class="cls-7" d="M215,66.11s-3.64-4.86-6.35-.84,1.12,15.88,7.75,13Z"/><path class="cls-8" d="M215,74.58a.56.56,0,0,1-.54-.41c-1-3.66-4.83-5.14-4.87-5.16A.56.56,0,0,1,210,68a9.68,9.68,0,0,1,5.55,5.91.57.57,0,0,1-.39.69A.39.39,0,0,1,215,74.58Z"/><path class="cls-8" d="M211.15,72.74a.57.57,0,0,1-.47-.87,5.19,5.19,0,0,1,2.11-1.69.56.56,0,0,1,.46,1,4,4,0,0,0-1.62,1.28A.56.56,0,0,1,211.15,72.74Z"/><path class="cls-7" d="M252.58,66.11s3.64-4.86,6.35-.84-1.12,15.88-7.75,13Z"/><path class="cls-8" d="M252.62,74.58a.56.56,0,0,0,.54-.41C254.19,70.51,258,69,258,69a.56.56,0,1,0-.39-1.05,9.68,9.68,0,0,0-5.55,5.91.56.56,0,0,0,.39.69A.39.39,0,0,0,252.62,74.58Z"/><path class="cls-8" d="M256.45,72.74a.59.59,0,0,0,.31-.09.56.56,0,0,0,.16-.78,5,5,0,0,0-2.1-1.69.56.56,0,1,0-.46,1A4,4,0,0,1,256,72.48.56.56,0,0,0,256.45,72.74Z"/><path class="cls-9" d="M242.77,88.31v11.8s-3.52,6-8.27,6.42-9-5.18-9-5.18V89.14Z"/><path class="cls-7" d="M242.77,88.31v5.24c-3.19,3.54-8.86,4.8-17.25,3.56v-8Z"/><path class="cls-9" d="M255.21,58a114.18,114.18,0,0,1-1.53,14.91c-.22,1.14-.46,2.22-.74,3.18-2.48,8.69-8.69,23.6-26.08,17.39-7.68-2.74-11.24-11.29-12.82-20a83.68,83.68,0,0,1-1.16-16.14,12.29,12.29,0,0,1,6.25-10.48c10.26-5.82,21.09-3.65,28.22-.91A12.27,12.27,0,0,1,255.21,58Z"/><path class="cls-5" d="M226.15,66.8c0,1.26-.65,2.28-1.45,2.28s-1.45-1-1.45-2.28.65-2.28,1.45-2.28S226.15,65.54,226.15,66.8Z"/><path class="cls-5" d="M244.05,66.8c0,1.26-.65,2.28-1.45,2.28s-1.45-1-1.45-2.28.65-2.28,1.45-2.28S244.05,65.54,244.05,66.8Z"/><path class="cls-5" d="M221.83,60a24.24,24.24,0,0,1,6.2-.93,1.08,1.08,0,0,1,1.07,1.26v0a1.07,1.07,0,0,1-1.11.88c-1.75-.08-6.33.17-8.49,1a1.61,1.61,0,0,1,.49-1.15A3.7,3.7,0,0,1,221.83,60Z"/><path class="cls-5" d="M245.25,60.06a23.88,23.88,0,0,0-6.2-.93A1.07,1.07,0,0,0,238,60.39v0a1.07,1.07,0,0,0,1.11.88c1.74-.08,6.33.16,8.49,1a1.67,1.67,0,0,0-.49-1.16A3.73,3.73,0,0,0,245.25,60.06Z"/><path class="cls-7" d="M234,77.2a2.32,2.32,0,0,1-1.22-.29,1.69,1.69,0,0,1-.81-1.37,82.26,82.26,0,0,1,.33-8.79.56.56,0,0,1,1.12.09,84.29,84.29,0,0,0-.34,8.59c0,.34.17.46.28.52.52.32,1.74,0,2.24-.21a.55.55,0,0,1,.73.31.56.56,0,0,1-.3.73A6.38,6.38,0,0,1,234,77.2Z"/><path class="cls-10" d="M226.88,80.74c.43,2.13,1.83,6.06,6.58,6.06s6.09-3.59,6.55-6.06Z"/><path class="cls-7" d="M233.39,90.07a5.62,5.62,0,0,1-2.63-.77.56.56,0,0,1-.18-.77.56.56,0,0,1,.77-.19h0a4.44,4.44,0,0,0,2,.61,4.67,4.67,0,0,0,2.15-.61.56.56,0,0,1,.77.19.56.56,0,0,1-.19.77A5.83,5.83,0,0,1,233.39,90.07Z"/><path class="cls-5" d="M257.47,57.1a1.83,1.83,0,0,1-1.35,1,35.7,35.7,0,0,1-.2,4.15c-.7,8.1-2.74,9.52-3.2,7.52-.31-1.33-.29-9-.14-11.45a25.45,25.45,0,0,1-3-.37l-1.88-7.86-.66,7.76c-2.81,1-9.39-.59-9.39-.59l-2.21-7.75L234.11,57c-4.23,2.06-9.51.69-9.51.69l-1.21-8-2.81,8s-9,3.23-9.11,0c-.06-1.88,1.32-7.19,2.48-11.29A17,17,0,0,1,222.14,36c11.19-6,23-2.81,27.08-.39C257.82,40.75,257.47,57.1,257.47,57.1Z"/><path class="cls-5" d="M216.43,40.76s-7.42,8.83-9.86,24.61S200.74,92.79,210.25,98c10.28,5.63,9.39-5.93,9.24-9.07S210.59,77.2,216.43,53C218.32,45.21,216.43,40.76,216.43,40.76Z"/><path class="cls-6" d="M214.7,73.35v0c0,.12,0,.75.05,1.73,0,.61.06,1.35.12,2.19.35,5.31,1.38,14.49,4.42,17.67,1.2,1.26,3.51,1.89,6.23,2.15V92.93a16.55,16.55,0,0,1-6.84-6.34,39.26,39.26,0,0,1-3.78-11.66Z"/><path class="cls-10" d="M255.35,78.52A1.32,1.32,0,1,1,254,77.2,1.32,1.32,0,0,1,255.35,78.52Z"/><path class="cls-3" d="M282.11,177.44c-3.72,10.65-20.38,9.87-39.35,4.05l-.09,0-.17-.05-2.61-.83-1.08-.36q-3.08-1-6.18-2.21a213.77,213.77,0,0,1-20-8.88l0-.12,1.94-5,.66-1.71s35.17,3.83,52.86.13l.88-.19a10.8,10.8,0,0,0-.21-1.16c-9.37-31.9.88-38,4.31-42.47C273.07,118.57,289.13,157.34,282.11,177.44Z"/><path class="cls-4" d="M276.37,167.56a.72.72,0,0,1-.32.08.77.77,0,0,1-.68-.42c-1.34-2.75-5.89-4.38-7.28-4.83l.88-.19-.21-1.16c1.78.58,6.42,2.37,8,5.52A.74.74,0,0,1,276.37,167.56Z"/><path class="cls-4" d="M227.11,166.23c-7.18,0-13-.41-13.51-.45a.75.75,0,0,1-.7-.8.76.76,0,0,1,.81-.7c.26,0,26.64,1.89,37-2.33a.74.74,0,0,1,1,.41.75.75,0,0,1-.41,1C245.56,165.67,235.43,166.23,227.11,166.23Z"/><path class="cls-4" d="M239.89,180.58h0c6-1.66,11.49-3.28,14.65-4.29,4.39-1.41,8-5.84,9.67-9.61a.74.74,0,0,1,1-.39.75.75,0,0,1,.39,1c-1.78,4.08-5.75,8.89-10.58,10.44-2.3.73-5.8,1.78-9.84,2.94a9.18,9.18,0,0,1-5.27-.08Z"/><path class="cls-3" d="M256.11,175.42c-54.35,18.31-71.08,6.33-71.08,6.33-3.66-33.1,9.83-62.85,9.83-62.85,4,6.57,8.49,18,8.49,18l1.19,25.37-.09.7,0,.33-.23,1.74v0l.35.08c16.44,3.47,46.51-.41,46.51-.41Z"/><path class="cls-4" d="M204.53,165.18a53,53,0,0,0-8.21,8.55.74.74,0,0,1-1,.14.75.75,0,0,1-.15-1.05h0a55.06,55.06,0,0,1,9.29-9.49l-.23,1.74v0Z"/><path class="cls-9" d="M251,164.77s6-13.67,15.16-12.45L269,162.2c-5,2.13-5.74,10.72-12.85,13.22Z"/><path class="cls-9" d="M215.23,162.26a21.78,21.78,0,0,0-13.8-11.51c-10-2.59-16.38,2.12-17.05,3.9s3.78.08,3.78.08a8.64,8.64,0,0,0-4.56,3.54c-1.66,2.72,4-.21,4-.21s-4.09,1.79-4.61,3.45,4.88-1.15,5.89-1.09c0,0-4.81,1.91-4.78,3.62s5.53-1.08,9.63-.86a64.37,64.37,0,0,1,10.41,1.93,69.7,69.7,0,0,0,9.47,1.24Z"/><rect class="cls-2" x="29.12" y="306.42" width="411.21" height="15.99" rx="7.63"/><path class="cls-4" d="M440.33,314.05v.36H29.12v-.36a7.62,7.62,0,0,1,7.63-7.63h396A7.63,7.63,0,0,1,440.33,314.05Z"/><rect class="cls-5" x="165.55" y="206.57" width="135.15" height="75.84" rx="5.38"/><rect class="cls-6" x="222.66" y="282.32" width="20.93" height="23.86"/><circle class="cls-13" cx="232.89" cy="245.42" r="10.39"/><path class="cls-5" d="M212.44,297.72h40.7a6.65,6.65,0,0,1,6.65,6.65v1.82a0,0,0,0,1,0,0h-54a0,0,0,0,1,0,0v-1.82A6.65,6.65,0,0,1,212.44,297.72Z"/><text class="cls-14" transform="translate(150.05 378.99) scale(0.9 1)">About Us</text></g></g></svg>