<svg xmlns="http://www.w3.org/2000/svg" viewBox="0 0 463.35 121.64"><defs><style>.cls-1{fill:#bbe2f2;}.cls-2{fill:#1c31b5;}.cls-3{fill:#009cf8;}.cls-4{fill:#006bde;}.cls-5{fill:#18315b;}.cls-6{fill:#000b29;}.cls-7{fill:#f97853;}.cls-8{fill:#ea5143;}.cls-9{fill:#ffa681;}.cls-10,.cls-15{fill:#fff;}.cls-11{fill:#264cbe;}.cls-12{fill:#e3e3e3;}.cls-13{fill:#1d567e;}.cls-14{isolation:isolate;font-size:10.69px;fill:#21295b;font-family:Roboto-Bold, Roboto;font-weight:700;}.cls-15{opacity:0;}</style></defs><g id="Layer_2" data-name="Layer 2"><g id="Layer_1-2" data-name="Layer 1"><g id="Layer_2-2" data-name="Layer 2"><g id="OBJECTS"><path class="cls-1" d="M223.84,25.17a19.14,19.14,0,0,0-32.35-8.34l-.44.47c-14.81,16.1-7.81,55.76,23.09,65.81s63-8.3,64.85-24.71-12.46-21.57-34.58-17C231.91,44,226.33,34.2,223.84,25.17Z"/><path class="cls-1" d="M249.55,27.65c-4.14.67-5.28,4.33-2.09,6.93a9.84,9.84,0,0,0,4.71,1.93c8.17,1.36,12.51-2.26,9.24-6.95C259.4,26.66,253.64,27,249.55,27.65Z"/><path class="cls-1" d="M183.63,57c-2.56-3.31-6.34-2.56-7.09,1.49a9.65,9.65,0,0,0,.56,5c2.72,7.83,8,9.91,10.53,4.79C189.2,65.13,186.17,60.24,183.63,57Z"/><path class="cls-1" d="M281.9,60.31A2.23,2.23,0,0,0,285,62.94a3.86,3.86,0,0,0,1.79-1.6c2.11-3.28,1-6.09-1.89-5.8C283.12,55.72,282.28,58.33,281.9,60.31Z"/><path class="cls-1" d="M271.45,39.27a2.24,2.24,0,0,0,2.69-3.09,4.09,4.09,0,0,0-1.57-1.82c-3.25-2.16-6.08-1.14-5.84,1.79C266.88,38,269.48,38.85,271.45,39.27Z"/><path class="cls-1" d="M223.15,17.93a2.24,2.24,0,0,0,3.81-1.5,4,4,0,0,0-.56-2.34c-1.88-3.41-4.86-3.81-6-1.09C219.69,14.68,221.59,16.66,223.15,17.93Z"/><path class="cls-2" d="M286.82,70.28C290,67.11,292.38,63.52,290,63s-6.41,5.68-7.11,11.37l-.71,1.87c.58-4.13-.83-9.17-2.91-9.37s-.81,3.07.83,5.85a11.63,11.63,0,0,1,1.65,4.67l-3.31,8.87c.91-6.55-1.34-14.5-4.62-14.83s-1.28,4.86,1.31,9.29a18.34,18.34,0,0,1,2.62,7.38l-.66,1.77.87.48,3.94-10.54A12.54,12.54,0,0,1,285.44,78c3.08-1,6.15-2.69,4.46-3.88-1.47-1-4.92,1-7.3,3.77L284,74.21A19,19,0,0,1,286.82,70.28Z"/><path class="cls-2" d="M187.37,28.9c.41-3.84.09-7.53-1.82-6.62s-1.23,7.28,1.36,11.47l.54,1.64c-1.84-3.09-5.5-5.71-7-4.73s1.11,2.49,3.72,3.49a10,10,0,0,1,3.63,2.24l2.56,7.74c-2.92-4.89-8.7-9-11.1-7.47s1.75,4,5.89,5.54a15.66,15.66,0,0,1,5.73,3.54l.51,1.54.85-.15-3-9.21a10.85,10.85,0,0,1,1.41-3.12c1.5-2.35,2.68-5.12.9-5-1.54.1-2.79,3.3-2.87,6.47l-1-3.18A16.26,16.26,0,0,1,187.37,28.9Z"/><path class="cls-3" d="M265.54,80.81c0,.22.08.46.14.71h0c.57,2.64,2,7,5.1,7.82,0,0-1.71-8.91,4.38-11.23s5.41-4.53,5.07-8.46-1.7-4.68,2.53-8.36a10.9,10.9,0,0,0,3.41-9.17s-4,6.26-8.26,6.4-5,3.79-4.84,6.5-3.45,3-5.41,4.59-2.34,9.85-2.34,9.85S265.38,80,265.54,80.81Z"/><path class="cls-4" d="M265.54,80.81c0,.22.08.46.14.71a13.46,13.46,0,0,1,1.63-3.29,11.72,11.72,0,0,1,5-4.34c2.75-1,4.09-3.74,4.35-8.76.15-2.91,3.2-4.63,3.23-4.65a.17.17,0,0,0,.07-.24v0a.18.18,0,0,0-.25-.07h0c-.13.07-3.25,1.84-3.42,5-.25,4.86-1.52,7.45-4.12,8.44A11.86,11.86,0,0,0,267,78,13.87,13.87,0,0,0,265.54,80.81Z"/><path class="cls-4" d="M198.14,89.29h4.28c-2.3-.38-8-2.84-8.55-7.78-.65-6.25-2.88-6.17-6.63-6.82s-4.78.42-7.16-4.44a10.44,10.44,0,0,0-7.69-5.46s4.84,5.28,3.91,9.29,2.29,5.62,4.87,6.13,2,4,2.93,6.18c.44,1,2.27,2.06,4.12,2.9Z"/><path class="cls-2" d="M188.87,83.14a11.55,11.55,0,0,0,2.88,6l.18.2h.49c-.14-.15-.28-.29-.4-.43a11.41,11.41,0,0,1-2.79-5.76c-.28-2.81-2.46-4.75-7.08-6.24-2.68-.86-3.52-4.13-3.53-4.17a.17.17,0,0,0-.23-.1.18.18,0,0,0-.11.19c0,.15.9,3.49,3.76,4.42C186.5,78.64,188.61,80.48,188.87,83.14Z"/><path class="cls-3" d="M200.45,77.69c-.09.3-.2.64-.31,1h0c-1.22,3.68-3.71,9.88-8.32,10.61,0,0,3.65-12.69-4.68-16.94s-7-7.29-5.93-12.85,3.13-6.4-2.32-12.31-3.47-13.61-3.47-13.61,4.74,9.55,10.81,10.42,6.58,6.18,5.89,10,4.45,4.84,7,7.38,1.82,14.38,1.82,14.38S200.79,76.53,200.45,77.69Z"/><path class="cls-4" d="M200.45,77.69c-.09.3-.2.64-.31,1a19.37,19.37,0,0,0-1.82-5,16.83,16.83,0,0,0-6.49-7c-3.77-1.9-5.27-6-4.87-13.17.24-4.18-3.85-7.1-3.89-7.13a.27.27,0,1,1,.31-.43h0c.17.12,4.36,3.12,4.11,7.59-.38,7,1,10.87,4.59,12.67a17,17,0,0,1,6.72,7.18A20,20,0,0,1,200.45,77.69Z"/><path class="cls-5" d="M203.75,86.31c0,1,0,2,.05,3h9.31c0-1.11,0-2.18,0-3.18,0-2.71,0-4.93,0-6.32V78.26l-9.49-.1v2.16C203.7,81.8,203.72,83.93,203.75,86.31Z"/><path class="cls-6" d="M203.69,80.31c0,1.49,0,3.62.06,6a46.89,46.89,0,0,0,9.4-.2c0-2.71,0-4.93,0-6.32Z"/><path class="cls-5" d="M192,84.17c0,1.51,0,3.25.05,5.12h9.31c0-1.1,0-2.18.06-3.21,0-2.22.05-4.22.05-5.65s0-2.28,0-2.28l-9.49.1V81C192,81.85,192,82.93,192,84.17Z"/><path class="cls-6" d="M192,81v3.22a59.58,59.58,0,0,0,9.42,1.91c0-2.22,0-4.21.06-5.65Z"/><path class="cls-5" d="M207.61,28.23a4.92,4.92,0,0,0,1.49-2.86c0-1.42-1-1-1.49-2.33a3.14,3.14,0,0,0-2.9-2c-.86.16-2.63-3.14-5.05-2.56s-2.21,3.69-3.26,4.14-.75,2.3-.2,2.71.78,2.11,1.09,2.07S207.61,28.23,207.61,28.23Z"/><path class="cls-7" d="M197.55,28.2s-.94-1.26-1.64-.22.29,4.1,2,3.35Z"/><path class="cls-8" d="M197.54,30.38a.14.14,0,0,1-.14-.1A2.19,2.19,0,0,0,196.14,29a.15.15,0,0,1-.08-.19h0a.14.14,0,0,1,.18-.08h0a2.44,2.44,0,0,1,1.43,1.53.14.14,0,0,1-.09.18h0Z"/><path class="cls-8" d="M196.55,29.91a.11.11,0,0,1-.08,0,.14.14,0,0,1,0-.2,1.21,1.21,0,0,1,.54-.43.14.14,0,0,1,.12.25,1.14,1.14,0,0,0-.42.33A.14.14,0,0,1,196.55,29.91Z"/><path class="cls-7" d="M207.24,28.2s.94-1.26,1.64-.22-.29,4.1-2,3.35Z"/><path class="cls-8" d="M207.25,30.38a.15.15,0,0,0,.14-.1A2.16,2.16,0,0,1,208.64,29a.16.16,0,0,0,.09-.19h0a.13.13,0,0,0-.18-.08h0a2.47,2.47,0,0,0-1.43,1.53.14.14,0,0,0,.1.18h0Z"/><path class="cls-8" d="M208.24,29.91l.08,0a.15.15,0,0,0,0-.2,1.33,1.33,0,0,0-.54-.43.14.14,0,1,0-.17.23l0,0a1.23,1.23,0,0,1,.42.33A.13.13,0,0,0,208.24,29.91Z"/><path class="cls-9" d="M204.71,33.93v3s-.91,1.55-2.14,1.65-2.3-1.33-2.3-1.33V34.14Z"/><path class="cls-7" d="M204.71,33.93v1.35c-.83.91-2.29,1.14-4.46.82v-2Z"/><path class="cls-9" d="M207.92,26.11a29.24,29.24,0,0,1-.4,3.84,8.28,8.28,0,0,1-.19.82c-.64,2.24-2.24,6.09-6.73,4.49-2-.71-2.9-2.92-3.31-5.16a22.39,22.39,0,0,1-.3-4.17,3.17,3.17,0,0,1,1.62-2.7,8.45,8.45,0,0,1,7.28-.24A3.18,3.18,0,0,1,207.92,26.11Z"/><path class="cls-5" d="M197.29,30.1a22.71,22.71,0,0,0,.85,3.55c.41,1,1.53,1.12,2,1.92.6,1.14,1.52,2,3,1.5,1.26-.46,1.2-1.11,1.9-1.6a3.78,3.78,0,0,0,1.85-2.56,27.4,27.4,0,0,1,.65-2.95l-.65,0a14.94,14.94,0,0,1-.91,1.6c-.54-1.19-3.16-.33-3.16-.33l-.51.17-.51-.17s-2.65-.84-3.17.41a4.78,4.78,0,0,1-.7-1.62Zm5,1.65c3-.51,2.47,1.25,2.45,1.31h0a3.23,3.23,0,0,1-.63.47c-1.17.63-1.29.53-1.75.55a3.37,3.37,0,0,1-1.77-.48,5.18,5.18,0,0,1-.84-.64S199.3,31.35,202.3,31.75Z"/><path class="cls-5" d="M200.49,28.59c0,.33-.16.59-.37.59s-.38-.25-.38-.59.17-.58.38-.58S200.49,28.28,200.49,28.59Z"/><path class="cls-5" d="M204.94,28.59c0,.33-.17.59-.37.59s-.38-.25-.38-.59.17-.58.38-.58S204.94,28.28,204.94,28.59Z"/><path class="cls-5" d="M206,26.66a4.18,4.18,0,0,0-2.74-.1l.12.66a7.56,7.56,0,0,1,2.63.21A1.13,1.13,0,0,0,206,26.66Z"/><path class="cls-5" d="M198.69,26.66a4.16,4.16,0,0,1,2.75-.1l-.12.67a7.63,7.63,0,0,0-2.64.21A1.16,1.16,0,0,1,198.69,26.66Z"/><path class="cls-7" d="M202.44,31.06A1.72,1.72,0,0,0,203,31a.14.14,0,0,0,.08-.19.15.15,0,0,0-.19-.08.83.83,0,0,1-.58.06.17.17,0,0,1-.07-.14,20.31,20.31,0,0,1,.09-2.21.15.15,0,0,0-.29,0h0a21.54,21.54,0,0,0-.09,2.27.44.44,0,0,0,.21.35A.56.56,0,0,0,202.44,31.06Z"/><path class="cls-10" d="M200.6,32a1.73,1.73,0,0,0,1.7,1.57A1.67,1.67,0,0,0,204,32Z"/><path class="cls-5" d="M207.92,26.11a29.24,29.24,0,0,1-.4,3.84l-.65-.05s.16-1,.23-1.65.2-1.87-.36-2-.23-1.54-1-2.14a3.56,3.56,0,0,0-3.62-.43c-1.13.7-2.43.31-3,.43s-1.24.85-1,1.52-.39,1.09-.53,1.79a9.71,9.71,0,0,0,.31,2.58l-.62.13a22.39,22.39,0,0,1-.3-4.17,3.17,3.17,0,0,1,1.62-2.7,8.45,8.45,0,0,1,7.28-.24A3.18,3.18,0,0,1,207.92,26.11Z"/><path class="cls-4" d="M215.14,82.83a52.21,52.21,0,0,1-8.78,1.44l-.4,0-1.2.06a47.72,47.72,0,0,1-6-.1c-.4,0-.8-.06-1.21-.11l-.38,0a52.36,52.36,0,0,1-7.14-1.28c0-2.19,0-9.12.14-16.63,0-.9,0-1.82.05-2.73.21-9.91.62-20,1.35-21s2.82-2.2,4.84-3.3l.36-.2,1.32-.71A22.72,22.72,0,0,0,200.25,37v.28s1.09,1.44,2.31,1.33,2-1.38,2.11-1.62a25.23,25.23,0,0,0,2.58,1.47l.94.51.36.19c2.23,1.19,4.65,2.52,5.37,3.52a1.17,1.17,0,0,1,.16.36c.43,1.45.69,6.26.85,12.09v.06c0,.24,0,.48,0,.72V56c.05,2,.1,4.19.13,6.36v.76c0,.43,0,.86,0,1.28v.94C215.21,73.16,215.17,80.53,215.14,82.83Z"/><path class="cls-11" d="M215,55.92c-.7-1.15-1.46-2.33-2.17-3.37h0c-.3-.43-.59-.84-.87-1.22v0l-.26-.34,0-.07h0a.18.18,0,0,1,.14-.23.19.19,0,0,1,.2.06c.86,1.14,1.95,2.76,3,4.42v.06C215,55.43,215,55.66,215,55.92Z"/><path class="cls-4" d="M214,42.52s4.41,8.08,7.1,12.18c0,0,1.54-1.41,3.52-3.29,2.16-2,5.12-5.44,5.12-5.44l1.63,1.94s-6.62,11.92-9.6,13.42-8.44-9.11-8.44-9.11Z"/><path class="cls-11" d="M195.28,74.38h0a.2.2,0,0,1-.2-.2h0c.24-6.52-3.15-8.64-3.18-8.66a.2.2,0,1,1,.2-.34,5.89,5.89,0,0,1,1.79,2,12.31,12.31,0,0,1,1.58,7.06A.19.19,0,0,1,195.28,74.38Z"/><path class="cls-11" d="M209.72,68.23a.2.2,0,0,1-.2-.18,7,7,0,0,1,.92-3.65c.17-.37.34-.77.51-1.19a11.83,11.83,0,0,0,.55-5.81.21.21,0,0,1,.16-.24.2.2,0,0,1,.23.16h0a11.82,11.82,0,0,1-.57,6c-.18.44-.35.83-.51,1.2a6.57,6.57,0,0,0-.89,3.45.2.2,0,0,1-.18.22h0Z"/><path class="cls-10" d="M198.11,38.27c.08.65.21,1.48.35,2.43l.12.87c.14,1,.28,2,.4,3.12,0,.29.07.58.1.87.11,1.06.19,2.12.22,3.11v.87a13.85,13.85,0,0,1-.14,2c-.06.37-.11.74-.15,1.09s-.08.59-.1.88c-.12,1.11-.18,2.14-.2,3.11v.87c0,1.11.08,2.14.16,3.12l.09.87c.12,1.07.26,2.09.41,3.1l.11.87c.06.46.12.92.17,1.39s.08,1.06.09,1.7v.87c0,1,0,2-.06,3.12,0,.29,0,.59,0,.88,0,1-.11,2.09-.18,3.13,0,.29-.05.59-.07.88-.08,1.08-.17,2.14-.26,3.12,0,.3,0,.6-.08.88-.1,1.08-.2,2-.29,2.81a47.59,47.59,0,0,0,6,.1c.05-.81.18-2.14.3-3.69,0-.28.05-.57.07-.87.08-1,.14-2,.19-3.11l0-.88c0-1.06,0-2.11,0-3.1,0-.3,0-.6-.06-.89s0-.57-.08-.85a17,17,0,0,1-.13-2.26c0-.29,0-.58,0-.87.05-1,.16-2,.29-3.11,0-.29.07-.58.1-.87.12-1,.24-2,.33-3.09,0-.28.05-.58.07-.88.07-1,.11-2,.12-3.09v-.88c0-1,0-2-.13-3.12,0-.1,0-.2,0-.3s0-.39,0-.59a29.14,29.14,0,0,1,0-3.1l.06-.88c.08-1,.2-2.08.33-3.07,0-.29.08-.59.13-.87.16-1.09.33-2.11.51-3q.07-.45.15-.87c.11-.62.21-1.17.28-1.63A25.23,25.23,0,0,1,204.69,37c-.14.24-1,1.54-2.11,1.62s-2.31-1.33-2.31-1.33V37C199.77,37.35,199,37.78,198.11,38.27Z"/><path class="cls-12" d="M198.46,40.7l.12.87a16.46,16.46,0,0,0,3.95-.51,10.56,10.56,0,0,1,4.3-.11c0-.29.11-.58.15-.86a11.34,11.34,0,0,0-4.64.12A15.46,15.46,0,0,1,198.46,40.7Z"/><path class="cls-12" d="M199,44.69c0,.29.07.58.1.87a17.54,17.54,0,0,0,3.45-.52,10.6,10.6,0,0,1,3.68-.19c0-.29.08-.59.12-.87a11.4,11.4,0,0,0-4,.21A16.53,16.53,0,0,1,199,44.69Z"/><path class="cls-12" d="M199.3,48.67v.87a19.58,19.58,0,0,0,3.22-.49,10.63,10.63,0,0,1,3.28-.24l.06-.88a11.41,11.41,0,0,0-3.54.26A19.19,19.19,0,0,1,199.3,48.67Z"/><path class="cls-12" d="M198.92,53.54a17.56,17.56,0,0,0,3.61-.52,10.64,10.64,0,0,1,3.33-.23c0-.1,0-.2,0-.3s0-.39,0-.59a11.59,11.59,0,0,0-3.47.28,17,17,0,0,1-3.33.48C199,53,199,53.25,198.92,53.54Z"/><path class="cls-12" d="M198.72,57.52a16.26,16.26,0,0,0,3.81-.51,10.58,10.58,0,0,1,3.46-.22v-.88a11.55,11.55,0,0,0-3.66.26,15.68,15.68,0,0,1-3.61.48Z"/><path class="cls-12" d="M198.88,60.64l.09.87a17.77,17.77,0,0,0,3.56-.51,10.56,10.56,0,0,1,3.27-.24c0-.29,0-.58.07-.88a11.32,11.32,0,0,0-3.53.26A16.14,16.14,0,0,1,198.88,60.64Z"/><path class="cls-12" d="M199.38,64.62l.11.86a17.34,17.34,0,0,0,3-.48,10.37,10.37,0,0,1,2.83-.25c0-.29.07-.58.11-.88a11.45,11.45,0,0,0-3.14.28A19.69,19.69,0,0,1,199.38,64.62Z"/><path class="cls-12" d="M199.76,68.57v.87a18.49,18.49,0,0,0,2.76-.46,10.69,10.69,0,0,1,2.52-.27,8.43,8.43,0,0,1,0-.87,12,12,0,0,0-2.74.29A18.91,18.91,0,0,1,199.76,68.57Z"/><path class="cls-12" d="M199.67,73.44a18.54,18.54,0,0,0,2.86-.47,11,11,0,0,1,2.8-.25c0-.3,0-.6-.06-.88a11.6,11.6,0,0,0-2.94.28,18.27,18.27,0,0,1-2.63.44Z"/><path class="cls-12" d="M199.41,77.45a19.3,19.3,0,0,0,3.12-.49,10.8,10.8,0,0,1,2.78-.27l0-.88a11.75,11.75,0,0,0-3,.3,18.52,18.52,0,0,1-2.86.46C199.46,76.86,199.44,77.16,199.41,77.45Z"/><path class="cls-12" d="M199.07,81.45a17.5,17.5,0,0,0,3.46-.5,10.76,10.76,0,0,1,2.52-.28c0-.28,0-.57.07-.87a11.87,11.87,0,0,0-2.79.3,17.07,17.07,0,0,1-3.18.47C199.13,80.87,199.1,81.17,199.07,81.45Z"/><path class="cls-11" d="M206,84.3l.4,0c.79-4.61.33-11.4.16-13.47a22.8,22.8,0,0,1,.92-7.61c.59-2.08.23-6.91-.06-10.77-.08-1.09-.16-2.11-.2-3-.15-2.73.84-7.77,1.38-10.3L208.2,39c-.54,2.5-1.57,7.66-1.41,10.51.05.85.12,1.88.2,3,.29,3.84.65,8.62.08,10.63a23.13,23.13,0,0,0-.93,7.75C206.31,72.91,206.76,79.73,206,84.3Z"/><path class="cls-11" d="M197.92,65.51a25.62,25.62,0,0,1,.15,6.82c-.06.68-.12,1.4-.15,2.19-.13,2.47-.55,7.44-.73,9.59l.38,0c.19-2.15.61-7.14.73-9.62,0-.76.1-1.49.15-2.17a25.47,25.47,0,0,0-.15-6.91c-.1-.62-.21-1.25-.31-1.88-.52-3.09-1.07-6.29-.81-7.82.06-.37.14-.8.23-1.25a27,27,0,0,0,.64-6.14c-.12-2-1-7.34-1.26-9.36l-.36.19c.33,2.12,1.1,7.27,1.23,9.19a25,25,0,0,1-.64,6.06c-.08.45-.16.87-.22,1.25-.26,1.6.25,4.69.81,8C197.72,64.26,197.82,64.89,197.92,65.51Z"/><path class="cls-9" d="M190.29,45.77S186.34,59,185.36,63.64s-1.06,14.45-1.06,14.45-1.72,3.59-1.76,5.18.84,3.06.74,4.17,1.26.51.87-1.75.71-4.29,1.17-4.23-.38,2.47,0,3.33,1-.81,1.49-1.83.52-3.36.26-5,2.73-11.64,2.75-14.54l3.78-12.77S192.39,45.31,190.29,45.77Z"/><path class="cls-4" d="M194.12,50.32a32.22,32.22,0,0,1-1.21,4.13h0l-.15.47v0l-.47,1.42h0c-.68,2-1.42,4.35-2,6.75-.21.82-.41,1.64-.59,2.47-.23,1-.42,2.1-.56,3.13-.51,3.7-1.47,8.38-1.47,8.38a6.33,6.33,0,0,1-3.63-.19s-.06-6.74.25-9.36a70.68,70.68,0,0,1,1.51-8.19A105.06,105.06,0,0,1,191.26,43l.16-.35h.7C193.5,43.57,194.48,48,194.12,50.32Z"/><path class="cls-3" d="M183.87,75.57l.11,1.56a7.39,7.39,0,0,0,3.69.2l.42-1.39A11.63,11.63,0,0,1,183.87,75.57Z"/><path class="cls-11" d="M192.91,54.45h0a.09.09,0,0,1,0,.07l-.14.4v0c-.15.44-.31.91-.47,1.42h0a76,76,0,0,0-2.05,8l0-1.28c-.22.82-.42,1.65-.6,2.47a32.43,32.43,0,0,1,.61-3.24,75.92,75.92,0,0,1,2.26-8,.19.19,0,0,1,.25-.11.2.2,0,0,1,.12.18Z"/><path class="cls-5" d="M263.58,89.29h9.33c0-.65-.06-1.28-.09-1.86-.16-3.19-.3-5.37-.3-5.37l-7.59.34-.63,0-1.12,0s.11,1.94.28,4.79C263.49,87.9,263.54,88.58,263.58,89.29Z"/><path class="cls-6" d="M264.3,82.43l-1.12,0s.11,2,.28,4.8a68,68,0,0,0,9.36.15c-.16-3.19-.3-5.37-.3-5.37l-7.59.34Z"/><path class="cls-6" d="M265.32,89.29c-.17-3-.31-5.48-.39-6.89l-.63,0c.08,1.4.22,3.91.39,6.86Z"/><path class="cls-5" d="M260.84,89.29c.05-.8.09-1.56.14-2.26.16-2.72.25-4.55.25-4.55l-1.21,0-.63,0-7.49-.34s-.09,1.3-.2,3.36c-.06,1.1-.13,2.42-.2,3.87Z"/><path class="cls-6" d="M251.72,85.42A83.16,83.16,0,0,0,261,87c.16-2.72.25-4.55.25-4.55l-1.21,0-.63,0-7.49-.34S251.82,83.36,251.72,85.42Z"/><path class="cls-6" d="M259.65,89.29c.17-3,.31-5.47.39-6.86l-.63,0c-.08,1.4-.22,3.93-.39,6.89Z"/><path class="cls-4" d="M273.87,83.52a44,44,0,0,1-5.7,1.18c-.66.09-1.32.17-2,.23-.89.09-1.79.14-2.67.17a43.48,43.48,0,0,1-4.42-.1,44.13,44.13,0,0,1-8.54-1.48c0-2.66,0-12.18.21-21.36,0-.42,0-.83,0-1.24v-.54l0-.87c0-.59,0-1.17.05-1.75,0-.35,0-.69,0-1v-.21c0-.22,0-.45,0-.67h0v-.21c0-.2,0-.4,0-.61s0-.34,0-.51c.22-6.19.54-11.08,1-11.77.78-1.17,3.45-2.72,5.6-4,.76-.45,1.67-.92,2.19-1.26a3.45,3.45,0,0,0,2.45,1.13c1.26,0,1.57-.81,2.05-1.46.29.19,1,.81,1.42,1l1.07.62,1.81,1c.91.53,1.79,1.08,2.54,1.61a6.84,6.84,0,0,1,1.62,1.46c.42.63.69,4.71.87,10.07,0,.19,0,.38,0,.57v.07c0,.2,0,.4,0,.6,0,.6,0,1.22.05,1.84v.7c0,.26,0,.51,0,.77v.16c0,.68,0,1.38,0,2.08v.62C274,70.08,273.91,80.67,273.87,83.52Z"/><path class="cls-11" d="M273.79,60.43l-3,3L268,60.64l-2.81,2.84-2.82-2.85-2.81,2.85-2.83-2.87-2.84,2.87-3.07-3.1,0-.87c0-.59,0-1.18,0-1.76l3-3,2.84,2.87,2.83-2.87,2.81,2.85,2.82-2.85L268,57.56l2.82-2.84,3,3c0,.68,0,1.38,0,2.09C273.78,60,273.79,60.22,273.79,60.43Z"/><path class="cls-11" d="M268.59,76.16h0a17.28,17.28,0,0,1-9.65-3.38,22,22,0,0,1-3.79-3.36.2.2,0,0,1,.3-.26h0a21.3,21.3,0,0,0,3.73,3.3,16.91,16.91,0,0,0,9.41,3.31.19.19,0,0,1,.2.19h0a.19.19,0,0,1-.19.2Z"/><path class="cls-11" d="M266.08,73.78a16.43,16.43,0,0,1-6.61-3.42.19.19,0,0,1,0-.27h0a.2.2,0,0,1,.28,0s3.61,3.13,7.25,3.46a.2.2,0,0,1,0,.39h0A8.1,8.1,0,0,1,266.08,73.78Z"/><path class="cls-11" d="M259.2,44a.18.18,0,0,1-.18-.2.18.18,0,0,1,.15-.18c4.91-.93,6.4-4.09,6.41-4.12a.19.19,0,0,1,.25-.13.21.21,0,0,1,.12.25l0,0c-.06.14-1.58,3.38-6.69,4.35Z"/><path class="cls-11" d="M253.21,52.46h0s0,0,0,.06l-.22.37v0c-.26.4-.52.83-.77,1.28h0c-.41.72-.84,1.5-1.26,2.3,0-.22,0-.44,0-.67h0v-.2c.67-1.25,1.35-2.43,1.91-3.31a.2.2,0,0,1,.27-.06A.19.19,0,0,1,253.21,52.46Z"/><path class="cls-9" d="M278,45.28s6.28-2,8.14-6.14c.54-1.2-3.89-13.31-3.89-13.31l-2.14.1s.61,4.21,1,6.59c.31,2,.8,4.3,1,5.07l.06.26-.32.06a31.93,31.93,0,0,0-6.68,2.51Z"/><path class="cls-7" d="M283.66,39a.2.2,0,0,0,.24-.33h0A16.58,16.58,0,0,0,282,37.58l.06.25-.32.06A17.13,17.13,0,0,1,283.66,39Z"/><path class="cls-4" d="M268.35,39.73a5.38,5.38,0,0,0,2.94,6.94c3.35,1.72,11-2.76,11-2.76l-2.72-5.78S272.57,41,268.35,39.73Z"/><path class="cls-9" d="M281.13,19c-.19.13-.15.95-.07,1.72l-.08,0c-.23-1-.67-2.79-1.06-2.45s.09,1.73.31,2.63l-.14,0c-.29-1.08-.91-3.14-1.32-2.74s.26,2.09.55,3l-.12.05c-.28-.9-.88-2.6-1.3-2.2s.69,2.94.69,2.94h0l.28,1s-.33.15-.85-.44-1.15-.69-.71.16,1.2,1.65,1.53,2.33a2.17,2.17,0,0,0,1.32.91l2-.1s.39-3.4-.36-5h0C281.68,19.91,281.46,18.77,281.13,19Z"/><path class="cls-5" d="M256.28,26.83c0,3.42,2.11,5.77,5.52,5.77a5.67,5.67,0,0,0,5.81-6,7.28,7.28,0,0,0-.45-2.61l-.05-.13-.12-.26c-.06-.13-.12-.26-.19-.39a5.08,5.08,0,0,0-4.64-2.62C258.06,20.64,256.28,23.42,256.28,26.83Z"/><path class="cls-7" d="M257.05,28.3s-.95-1.27-1.66-.22.29,4.14,2,3.39Z"/><path class="cls-8" d="M257,30.51a.13.13,0,0,1-.14-.11,2.23,2.23,0,0,0-1.28-1.34.15.15,0,0,1,.1-.28,2.52,2.52,0,0,1,1.45,1.54.16.16,0,0,1-.11.18h0Z"/><path class="cls-8" d="M256,30a.11.11,0,0,1-.08,0,.15.15,0,0,1-.05-.2,1.4,1.4,0,0,1,.55-.44.16.16,0,0,1,.2.07.16.16,0,0,1-.08.2,1,1,0,0,0-.42.33A.15.15,0,0,1,256,30Z"/><path class="cls-7" d="M266.84,28.3s1-1.27,1.66-.22-.3,4.14-2,3.39Z"/><path class="cls-8" d="M266.85,30.51a.13.13,0,0,0,.14-.11,2.25,2.25,0,0,1,1.27-1.34.16.16,0,0,0,.09-.18h0a.15.15,0,0,0-.19-.09,2.52,2.52,0,0,0-1.45,1.54.14.14,0,0,0,.1.17h0Z"/><path class="cls-8" d="M267.84,30a.15.15,0,0,0,.15-.15.13.13,0,0,0,0-.08,1.37,1.37,0,0,0-.54-.44.14.14,0,0,0-.19.07h0a.15.15,0,0,0,.08.2,1,1,0,0,1,.42.33A.15.15,0,0,0,267.84,30Z"/><path class="cls-9" d="M264.28,34.09v3.07s-.91,1.57-2.16,1.67-2.34-1.35-2.34-1.35V34.31Z"/><path class="cls-7" d="M264.28,34.09v1.37c-.83.92-2.3,1.15-4.5.83v-2Z"/><path class="cls-9" d="M267.53,26.19a29.84,29.84,0,0,1-.4,3.88c-.06.3-.12.58-.19.83-.65,2.27-2.27,6.14-6.81,4.54-2-.72-2.93-2.95-3.34-5.22a21.21,21.21,0,0,1-.3-4.21,3.21,3.21,0,0,1,1.63-2.73,8.52,8.52,0,0,1,7.36-.23A3.2,3.2,0,0,1,267.53,26.19Z"/><path class="cls-5" d="M260,28.7c0,.33-.17.6-.38.6s-.37-.26-.37-.6.16-.59.37-.59S260,28.37,260,28.7Z"/><path class="cls-5" d="M264.46,28.69c0,.33-.17.59-.38.59s-.38-.25-.38-.59.17-.6.38-.6S264.46,28.36,264.46,28.69Z"/><path class="cls-5" d="M265.31,26.64a3.19,3.19,0,0,0-2.11-.07l.09.51a5.77,5.77,0,0,1,2,.16A.88.88,0,0,0,265.31,26.64Z"/><path class="cls-5" d="M258.37,26.64a3.2,3.2,0,0,1,2.11-.07l-.09.51a5.77,5.77,0,0,0-2,.16A1,1,0,0,1,258.37,26.64Z"/><path class="cls-7" d="M262,31.19a1.4,1.4,0,0,0,.53-.11.15.15,0,0,0,.08-.19.16.16,0,0,0-.2-.08h0a.78.78,0,0,1-.58.05.13.13,0,0,1-.07-.13,20.87,20.87,0,0,1,.09-2.24.16.16,0,0,0-.14-.16h0a.15.15,0,0,0-.16.13h0a22,22,0,0,0-.09,2.3.45.45,0,0,0,.22.36A.59.59,0,0,0,262,31.19Z"/><path class="cls-10" d="M260,31.93a2.18,2.18,0,0,0,1.89,1.7,2.13,2.13,0,0,0,1.88-1.7Z"/><path class="cls-7" d="M261.84,34.55a1.61,1.61,0,0,0,.71-.2.15.15,0,0,0,.05-.2h0a.15.15,0,0,0-.2,0,1,1,0,0,1-1.09,0,.15.15,0,0,0-.21,0h0a.15.15,0,0,0,0,.2A1.43,1.43,0,0,0,261.84,34.55Z"/><path class="cls-5" d="M267.37,28.32h-.66c.07-.66.18-1.83-.37-2-1.72-.53.52-1.75-.25-2.36s-2.72-.35-4.07-.39a30,30,0,0,0-4.07.1c-.53.12-.24,1,0,1.68s-.65,1.44-.8,2.14a3.84,3.84,0,0,0,0,.83h-.55a20.8,20.8,0,0,1-.06-2.3,3.23,3.23,0,0,1,1.62-2.74,8.52,8.52,0,0,1,7.36-.23,3.19,3.19,0,0,1,2,3.14C267.5,26.84,267.45,27.59,267.37,28.32Z"/><path class="cls-10" d="M259.55,30.42a1.66,1.66,0,1,1,1.66-1.65,1.65,1.65,0,0,1-1.66,1.65Zm0-3.05a1.4,1.4,0,1,0,1.4,1.4h0A1.4,1.4,0,0,0,259.55,27.37Z"/><path class="cls-10" d="M264.08,30.42a1.66,1.66,0,1,1,1.65-1.65,1.65,1.65,0,0,1-1.65,1.65Zm0-3.05a1.4,1.4,0,1,0,1.4,1.4h0A1.4,1.4,0,0,0,264.08,27.37Z"/><path class="cls-10" d="M258.18,28.23a.14.14,0,0,1-.09,0h0a2,2,0,0,0-1.75-.52.12.12,0,0,1-.15-.09h0a.13.13,0,0,1,.09-.16h0a2.31,2.31,0,0,1,2,.59.13.13,0,0,1,0,.18.1.1,0,0,1-.09,0Z"/><path class="cls-10" d="M265.48,28.23a.12.12,0,0,1-.12-.13.11.11,0,0,1,.06-.1,3.76,3.76,0,0,1,2.21-.63.14.14,0,0,1,.11.15.13.13,0,0,1-.15.11,3.49,3.49,0,0,0-2,.59Z"/><path class="cls-10" d="M262.52,28.4a1,1,0,0,0-.72-.42.94.94,0,0,0-.68.42l-.21-.15a1.2,1.2,0,0,1,.89-.53,1.33,1.33,0,0,1,.92.52Z"/><path class="cls-9" d="M252.66,52.22a46.8,46.8,0,0,1-3.79,6.05A16,16,0,0,1,247,60.35c-1,.91-2,1.39-2.8,1-3-1.5-9.6-13.42-9.6-13.42L236.24,46s2.95,3.4,5.12,5.44c2,1.88,3.52,3.29,3.52,3.29.28-.42.57-.88.87-1.36s.66-1.07,1-1.63c2.48-4.08,5.24-9,5.24-9Z"/><path class="cls-7" d="M248.87,58.27A16,16,0,0,1,247,60.35l-1.27-7c.33-.52.66-1.07,1-1.63Z"/><path class="cls-4" d="M252,42.74l-6,9.37,2,8.24,4.93-8S253.56,46.83,252,42.74Z"/><path class="cls-4" d="M244.5,89.29c-.43-2.36-.85-5-1.23-7.6-.08-.57-.17-1.14-.26-1.7-.3-2.14-.58-4.16-.8-5.84-.08-.63-.15-1.22-.22-1.75l-.34-2.71-9.41.35-9.44-.35s-.25,2.06-.63,5c-.07.54-.15,1.12-.23,1.71-.21,1.57-.45,3.3-.7,5.07a.22.22,0,0,1,0,.08c-.08.55-.17,1.11-.26,1.66-.14.84,0,0,0,0h0c-.2,1.34-.41,2.68-.63,4-.09.54-.18,1.06-.27,1.57,0,.16,0,.31-.08.47Z"/><path class="cls-11" d="M225,72.51a.89.89,0,1,1-1.77,0,.87.87,0,0,1,.88-.88h0a.87.87,0,0,1,.88.88Z"/><path class="cls-11" d="M227.18,76a.89.89,0,1,1-.89-.89h0a.88.88,0,0,1,.88.89Z"/><path class="cls-11" d="M231.5,74.17a.89.89,0,1,1-.89-.88h0a.87.87,0,0,1,.88.88Z"/><path class="cls-11" d="M224.68,79.6a.89.89,0,1,1-.89-.89.88.88,0,0,1,.89.89Z"/><path class="cls-11" d="M230.09,79.22a.89.89,0,1,1-.89-.89.89.89,0,0,1,.89.89Z"/><path class="cls-11" d="M222.76,75.56a.88.88,0,0,1-.81.88c.08-.59.16-1.17.23-1.71A.88.88,0,0,1,222.76,75.56Z"/><path class="cls-11" d="M238.91,84.43a.89.89,0,1,1-.89-.89h0a.89.89,0,0,1,.89.89Z"/><path class="cls-11" d="M238.49,79.6a.89.89,0,1,1-.89-.89A.88.88,0,0,1,238.49,79.6Z"/><path class="cls-11" d="M243.27,81.69a.8.8,0,0,1-.34.07.89.89,0,0,1-.84-.94.87.87,0,0,1,.84-.83h.1Z"/><path class="cls-11" d="M239.37,88a.88.88,0,0,1-.88.89.89.89,0,0,1,0-1.78h0A.88.88,0,0,1,239.37,88Z"/><path class="cls-11" d="M243.17,86.55a.89.89,0,1,1-.89-.88h0A.88.88,0,0,1,243.17,86.55Z"/><path class="cls-11" d="M235.27,89.29a.87.87,0,0,0-1.22-.23,1,1,0,0,0-.24.23Z"/><path class="cls-11" d="M224.1,85.2a.89.89,0,1,1-.89-.89h0A.89.89,0,0,1,224.1,85.2Z"/><path class="cls-11" d="M221.76,82.4a.89.89,0,0,1-.77.88v0l.25-1.66A.89.89,0,0,1,221.76,82.4Z"/><path class="cls-11" d="M220.72,88a.9.9,0,0,1-.63.85c.09-.51.18-1,.27-1.57A.91.91,0,0,1,220.72,88Z"/><path class="cls-11" d="M226.3,88.34a.89.89,0,1,1-.89-.88.88.88,0,0,1,.89.88Z"/><path class="cls-11" d="M231,87.65a.88.88,0,0,1-.88.89.89.89,0,1,1,0-1.78h0A.89.89,0,0,1,231,87.65Z"/><path class="cls-11" d="M227.64,83.3a.89.89,0,1,1-.89-.89h0A.89.89,0,0,1,227.64,83.3Z"/><path class="cls-11" d="M232.4,82.4a.89.89,0,0,1-1.78,0,.89.89,0,0,1,1.78,0Z"/><path class="cls-11" d="M234.54,77.72a.89.89,0,1,1-.89-.88h0A.87.87,0,0,1,234.54,77.72Z"/><path class="cls-11" d="M242.23,74.15a.65.65,0,0,1-.19,0,.89.89,0,0,1,0-1.77C242.07,72.93,242.14,73.52,242.23,74.15Z"/><path class="cls-11" d="M237.6,74.17a.89.89,0,1,1-.89-.88h0A.88.88,0,0,1,237.6,74.17Z"/><path class="cls-11" d="M240.85,77.33a.89.89,0,0,1-.89.89.88.88,0,0,1-.89-.88.89.89,0,0,1,.89-.89h0A.89.89,0,0,1,240.85,77.33Z"/><path class="cls-11" d="M235.43,85.2a.88.88,0,0,1-.88.89.89.89,0,1,1,0-1.78h0A.89.89,0,0,1,235.43,85.2Z"/><path class="cls-3" d="M242.23,69.92c-5,3.24-14.07,3-19.8,0a52.45,52.45,0,0,0,1.11-11.36l-.06-1.48c0-.42,0-.85-.08-1.26-.49-7.55-1.79-13.72-1.15-14.52a6.07,6.07,0,0,1,1.31-1.11l.71-.46c.6-.36,1.26-.73,1.92-1.08,1.58-.84,3.17-1.62,4-2.16a5.19,5.19,0,0,0,2.11.54h.12a5.19,5.19,0,0,0,2.11-.54c.74.5,2.14,1.19,3.58,1.94A29.62,29.62,0,0,1,241,40.14a5.67,5.67,0,0,1,1.26,1.08c.31.4.18,2.13-.09,4.69s-.66,5.87-.9,9.53c-.07,1-.12,2.06-.16,3.12A53.79,53.79,0,0,0,242.23,69.92Z"/><path class="cls-4" d="M239.2,66.15h0a17.18,17.18,0,0,1-9.57-3.36,21.66,21.66,0,0,1-3.76-3.33.19.19,0,0,1,.29-.25,21.72,21.72,0,0,0,3.7,3.27,16.69,16.69,0,0,0,9.34,3.28.19.19,0,0,1,.17.22.19.19,0,0,1-.17.17Z"/><path class="cls-4" d="M236.55,63.82A16.34,16.34,0,0,1,230,60.43a.2.2,0,0,1,0-.28.19.19,0,0,1,.27,0s3.59,3.09,7.2,3.42a.2.2,0,0,1,.17.21h0a.19.19,0,0,1-.2.18h0A8.51,8.51,0,0,1,236.55,63.82Z"/><path class="cls-4" d="M231.5,46.22a.21.21,0,0,1-.19-.16.18.18,0,0,1,.16-.22c4.86-.93,6.34-4.07,6.35-4.1a.2.2,0,0,1,.26-.1h0a.2.2,0,0,1,.1.26c-.06.13-1.57,3.35-6.64,4.31Z"/><path class="cls-9" d="M238.07,38.43c-1,2.21-3.35,4.49-6.44,4a7.45,7.45,0,0,1-5.44-3.74c1.58-.84,3.17-1.62,4-2.16a5.19,5.19,0,0,0,2.11.54h.12a5.19,5.19,0,0,0,2.11-.54C235.24,37,236.64,37.68,238.07,38.43Z"/><path class="cls-10" d="M235.48,36.66a.15.15,0,0,0-.15.15c0,.12-.05,3-2.67,3.26-2.43.21-3.43-2.11-3.74-3.07a.16.16,0,0,0-.14-.09h0a.14.14,0,0,0-.14.14.06.06,0,0,0,0,0c.33,1,1.39,3.4,3.86,3.31h.2c2.89-.26,2.95-3.54,2.95-3.58a.15.15,0,0,0-.14-.16Z"/><path class="cls-5" d="M237.33,21.16a14,14,0,0,1,2.09,7.39c-.26,3.78.34,8.14-3,7.94S227,37.84,225.07,34.9,237.33,21.16,237.33,21.16Z"/><path class="cls-6" d="M238.2,27.82s.61,5.47-2,7a3.83,3.83,0,0,1-4.47-.18S237.21,27,238.2,27.82Z"/><path class="cls-7" d="M227.41,27.79s-.93-1.24-1.63-.21.29,4.06,2,3.33Z"/><path class="cls-8" d="M227.41,30a.14.14,0,0,1-.14-.1A2.19,2.19,0,0,0,226,28.54a.14.14,0,0,1,0-.2.13.13,0,0,1,.14-.06,2.47,2.47,0,0,1,1.42,1.51.16.16,0,0,1-.1.18Z"/><path class="cls-8" d="M226.42,29.49a.15.15,0,0,1-.14-.15.19.19,0,0,1,0-.07,1.33,1.33,0,0,1,.54-.43.14.14,0,0,1,.12.25,1,1,0,0,0-.41.33A.17.17,0,0,1,226.42,29.49Z"/><path class="cls-7" d="M237,27.79s.93-1.24,1.62-.21-.29,4.06-2,3.33Z"/><path class="cls-8" d="M237,30a.13.13,0,0,0,.13-.1,2.27,2.27,0,0,1,1.24-1.33.14.14,0,0,0,.09-.18.15.15,0,0,0-.19-.09,2.51,2.51,0,0,0-1.42,1.52.15.15,0,0,0,.1.17h0Z"/><path class="cls-8" d="M238,29.49l.07,0a.15.15,0,0,0,0-.2h0a1.33,1.33,0,0,0-.54-.43.13.13,0,0,0-.2,0,.14.14,0,0,0,0,.2l0,0a1,1,0,0,1,.42.33A.15.15,0,0,0,238,29.49Z"/><path class="cls-9" d="M234.51,33.47v3s-.9,1.54-2.11,1.65-2.3-1.33-2.3-1.33V33.69Z"/><path class="cls-7" d="M234.51,33.47v1.35c-.81.9-2.26,1.22-4.41.91v-2Z"/><path class="cls-9" d="M237.7,25.72a30.36,30.36,0,0,1-.39,3.81c-.06.3-.12.57-.19.82-.64,2.22-2.23,6-6.68,4.45-2-.7-2.87-2.89-3.28-5.12a21.15,21.15,0,0,1-.29-4.13,3.13,3.13,0,0,1,1.6-2.68,8.39,8.39,0,0,1,7.22-.24A3.16,3.16,0,0,1,237.7,25.72Z"/><path class="cls-5" d="M230.26,28c0,.32-.16.58-.37.58s-.37-.25-.37-.58.17-.58.37-.58S230.26,27.65,230.26,28Z"/><path class="cls-5" d="M234.84,28c0,.32-.16.58-.37.58s-.37-.25-.37-.58.17-.58.37-.58S234.84,27.65,234.84,28Z"/><path class="cls-5" d="M229.16,26.23a6,6,0,0,1,1.58-.24.27.27,0,0,1,.28.28v0h0a.28.28,0,0,1-.29.23,7.06,7.06,0,0,0-2.17.26.42.42,0,0,1,.13-.3A.93.93,0,0,1,229.16,26.23Z"/><path class="cls-5" d="M235.15,26.25a6.12,6.12,0,0,0-1.59-.24.27.27,0,0,0-.27.27v0h0a.29.29,0,0,0,.29.23,7.07,7.07,0,0,1,2.17.25.47.47,0,0,0-.12-.3A1,1,0,0,0,235.15,26.25Z"/><path class="cls-7" d="M232.27,30.63a.55.55,0,0,1-.31-.07.44.44,0,0,1-.21-.35,21.16,21.16,0,0,1,.09-2.25.14.14,0,0,1,.28,0c-.06.73-.09,1.47-.09,2.2a.12.12,0,0,0,.08.13c.13.08.44,0,.57,0a.14.14,0,0,1,.18.07h0a.14.14,0,0,1-.08.18A1.56,1.56,0,0,1,232.27,30.63Z"/><path class="cls-10" d="M230.45,31.54a1.71,1.71,0,0,0,1.68,1.55,1.65,1.65,0,0,0,1.68-1.55Z"/><path class="cls-7" d="M232.11,33.93a1.49,1.49,0,0,1-.67-.2.15.15,0,0,1,.15-.25h0a1.17,1.17,0,0,0,.51.16,1.14,1.14,0,0,0,.55-.16.15.15,0,0,1,.2.05h0a.15.15,0,0,1,0,.2h0A1.49,1.49,0,0,1,232.11,33.93Z"/><path class="cls-5" d="M238.28,25.49a.48.48,0,0,1-.35.25,9.58,9.58,0,0,1-.05,1.07c-.18,2.07-.7,2.43-.82,1.92a23.17,23.17,0,0,1,0-2.93c-.26,0-.52-.05-.77-.09l-.48-2-.17,2a6.15,6.15,0,0,1-2.41-.15l-.56-2-.34,1.91a4,4,0,0,1-2.44.18l-.3-2.05-.72,2.05s-2.31.83-2.34,0a15.91,15.91,0,0,1,.64-2.89,4.37,4.37,0,0,1,2.1-2.66,7.64,7.64,0,0,1,6.93-.1C238.37,21.3,238.28,25.49,238.28,25.49Z"/><path class="cls-5" d="M227.77,21.31a13.76,13.76,0,0,0-2.52,6.29c-.62,4-1.49,7,.94,8.35,2.63,1.45,2.41-1.51,2.37-2.32s-2.28-3-.79-9.19A5.29,5.29,0,0,0,227.77,21.31Z"/><path class="cls-6" d="M227.33,29.65h0s0,.19,0,.44,0,.34,0,.56c.09,1.36.36,3.71,1.14,4.52a2.54,2.54,0,0,0,1.59.55V34.66A4.23,4.23,0,0,1,228.35,33a10,10,0,0,1-1-3Z"/><path class="cls-10" d="M237.73,31a.34.34,0,1,1-.67,0,.34.34,0,1,1,.67,0Z"/><path class="cls-3" d="M244.58,56.28c-1,2.73-5.21,2.53-10.07,1h-.06l-.67-.22L233.5,57c-.52-.17-1.05-.36-1.58-.56a54.32,54.32,0,0,1-5.12-2.28v0l.5-1.28.17-.43s9,1,13.52,0l.23-.05c0-.1,0-.2-.05-.3-2.4-8.16.22-9.72,1.1-10.86C242.27,41.22,246.38,51.14,244.58,56.28Z"/><path class="cls-4" d="M243.11,53.76l-.08,0a.2.2,0,0,1-.17-.11c-.35-.71-1.51-1.12-1.87-1.24l.23,0-.05-.29a3.66,3.66,0,0,1,2,1.41.18.18,0,0,1-.09.25Z"/><path class="cls-4" d="M230.51,53.41c-1.84,0-3.33-.1-3.46-.11a.19.19,0,0,1-.18-.2h0a.19.19,0,0,1,.21-.18c.06,0,6.82.48,9.47-.6a.2.2,0,0,1,.25.09h0a.19.19,0,0,1-.1.26h0A19.55,19.55,0,0,1,230.51,53.41Z"/><path class="cls-4" d="M233.78,57.09h0c1.53-.43,2.94-.84,3.75-1.1A4.61,4.61,0,0,0,240,53.53a.19.19,0,0,1,.25-.1h0a.2.2,0,0,1,.1.25h0a5,5,0,0,1-2.71,2.67l-2.52.75a2.3,2.3,0,0,1-1.35,0Z"/><path class="cls-3" d="M237.93,55.77c-13.91,4.68-18.19,1.62-18.19,1.62a34.45,34.45,0,0,1,2.51-16.09,37.37,37.37,0,0,1,2.18,4.61l.3,6.49,0,.18v.09l-.06.44h0l.09,0c4.21.89,11.9-.1,11.9-.1Z"/><path class="cls-4" d="M224.73,53.15a13.13,13.13,0,0,0-2.1,2.18.19.19,0,0,1-.26,0,.2.2,0,0,1,0-.27h0a14.4,14.4,0,0,1,2.38-2.43l-.06.45h0Z"/><path class="cls-9" d="M236.62,53s1.54-3.5,3.88-3.18l.73,2.52c-1.28.55-1.47,2.75-3.29,3.39Z"/><path class="cls-9" d="M227.47,52.4a5.59,5.59,0,0,0-3.53-2.95c-2.56-.66-4.2.55-4.37,1s1,0,1,0a2.24,2.24,0,0,0-1.17.91c-.42.69,1-.06,1-.06s-1.05.46-1.18.89,1.25-.3,1.5-.28c0,0-1.23.49-1.22.92s1.42-.27,2.47-.22a17.09,17.09,0,0,1,2.66.5,18,18,0,0,0,2.42.32Z"/><rect class="cls-2" x="179.84" y="89.29" width="105.23" height="4.09" rx="1.95"/><path class="cls-4" d="M285.07,91.24v.09H179.84v-.09a2,2,0,0,1,1.95-1.95H283.13A2,2,0,0,1,285.07,91.24Z"/><rect class="cls-5" x="214.75" y="63.74" width="34.59" height="19.41" rx="1.38"/><rect class="cls-6" x="229.37" y="83.12" width="5.36" height="6.11"/><circle class="cls-13" cx="231.99" cy="73.68" r="2.66"/><path class="cls-5" d="M226.75,87.06h10.42a1.71,1.71,0,0,1,1.7,1.71h0v.46H225.05v-.46A1.71,1.71,0,0,1,226.75,87.06Z"/><text class="cls-14" transform="translate(210.79 107.86) scale(0.9 1)">About Us</text></g></g><rect class="cls-15" width="463.35" height="121.64"/></g></g></svg>
