<svg xmlns="http://www.w3.org/2000/svg" xmlns:xlink="http://www.w3.org/1999/xlink" viewBox="0 0 463.35 121.64"><defs><style>.cls-1,.cls-12,.cls-15,.cls-16{fill:none;}.cls-11,.cls-2{fill:#fff;}.cls-2{opacity:0;}.cls-24,.cls-26,.cls-3{isolation:isolate;}.cls-3{font-size:6.78px;font-family:Roboto-Bold, Roboto;font-weight:700;}.cls-17,.cls-3{fill:#21295b;}.cls-4{fill:#afb3bd;}.cls-5{fill:#f5c5b3;}.cls-6{fill:#42b2fc;}.cls-7{fill:#fec4ad;}.cls-8{fill:#e8d4e5;}.cls-9{fill:#7b2b1a;}.cls-10{fill:#133a50;}.cls-12,.cls-16{stroke:#fff;}.cls-12,.cls-15,.cls-16{stroke-miterlimit:10;}.cls-12{stroke-width:2px;}.cls-13{fill:#4fae86;}.cls-14{fill:#319188;}.cls-15{stroke:#194459;}.cls-18{fill:#ff3a46;}.cls-19{fill:#cfcfcf;}.cls-20{fill:#b3b3b3;}.cls-21{fill:#d6313b;}.cls-22{clip-path:url(#clip-path);}.cls-23{fill:#ffd71d;}.cls-24,.cls-26{opacity:0.7;}.cls-24{fill:url(#radial-gradient);}.cls-25{fill:url(#linear-gradient);}.cls-26{fill:#fd0;}.cls-27{fill:url(#linear-gradient-2);}.cls-28{fill:url(#linear-gradient-3);}.cls-29{fill:#471a16;}</style><clipPath id="clip-path"><rect class="cls-1" x="177.93" y="69.88" width="45.82" height="30.25" rx="4.01"/></clipPath><radialGradient id="radial-gradient" cx="182.76" cy="311.27" r="18.96" gradientTransform="matrix(1, 0, 0, -1, 0, 392)" gradientUnits="userSpaceOnUse"><stop offset="0" stop-color="#fff"/><stop offset="1" stop-color="#fff" stop-opacity="0"/></radialGradient><linearGradient id="linear-gradient" x1="200.84" y1="322.12" x2="200.84" y2="303.23" gradientTransform="matrix(1, 0, 0, -1, 0, 392)" gradientUnits="userSpaceOnUse"><stop offset="0" stop-color="#ffd71d"/><stop offset="1" stop-color="#feb200"/></linearGradient><linearGradient id="linear-gradient-2" x1="462.42" y1="321.06" x2="475.55" y2="321.06" gradientTransform="translate(744.92 392) rotate(180)" gradientUnits="userSpaceOnUse"><stop offset="0" stop-color="#343a44"/><stop offset="0.3" stop-color="#232d3e"/><stop offset="0.64" stop-color="#182439"/><stop offset="1" stop-color="#142138"/></linearGradient><linearGradient id="linear-gradient-3" x1="465.63" y1="322.83" x2="484.2" y2="322.83" xlink:href="#linear-gradient-2"/></defs><g id="Layer_2" data-name="Layer 2"><g id="Layer_1-2" data-name="Layer 1"><rect class="cls-2" width="463.35" height="121.64"/><g id="Layer_2-2" data-name="Layer 2"><g id="OBJECTS"><text class="cls-3" transform="translate(215.36 110.22)">Contact Us</text><path class="cls-4" d="M164.87,65.72c-8.69,5.47-13.23,17.77-6.21,34.18H297a75.29,75.29,0,0,0,4.19-18.4c1-10.14-2.48-20.67-8.56-26.23-15.37-14.08-28.15,5.48-36.23-2.78-4.67-4.77-4.24-18.16-7.88-24.37a37.17,37.17,0,0,0-38.18-18.06c-10,1.62-18.94,6.89-24.41,15.81-7.5,12.21-2,21-5.37,29.39C176.9,64.65,170.67,62.09,164.87,65.72Z"/><path class="cls-5" d="M177.18,44.21a11.79,11.79,0,0,0,1.26-.72l.54-.85a10.34,10.34,0,0,1,.91-.52A5.46,5.46,0,0,0,181,40.79l-.28-.34a4.68,4.68,0,0,1-.53.56.68.68,0,0,1-.4,0,6.66,6.66,0,0,1,.31-.85,8,8,0,0,1,.86-1.31l-.25-.26c-.19.18-.36.37-.53.56l-.41.57a6.29,6.29,0,0,1,.46-.94c.17-.26.36-.61.36-.61l-.28-.19a5,5,0,0,0-.5.71c-.17.3-.48.81-.48.81a8.44,8.44,0,0,1,.35-1,2.11,2.11,0,0,0,.16-.34l-.33-.11a2.41,2.41,0,0,0-.39.7,3.79,3.79,0,0,1-.26.58,4.13,4.13,0,0,1,.21-.84.61.61,0,0,0,.11-.28l-.28-.06s-.52,1-.79,1.55-.49,1.4-.64,1.83a17.8,17.8,0,0,0-.35,1.91Z"/><path class="cls-6" d="M185.18,49.89l-6.58-1.13a22.31,22.31,0,0,1-.07-3.37,8.91,8.91,0,0,1,.36-2.52l-1.77-.24-.6,2.66c-.56,2.47-1.06,4.79-.63,5.3.61.75,6.08,2.26,8,3.67C185,55.11,184.91,52.4,185.18,49.89Z"/><polygon class="cls-7" points="194.5 68.59 194.17 70.86 194.86 72.42 195.36 71.74 195.47 70.47 196.22 70.58 196.58 70.13 196.55 69.17 196.43 66.58 194.5 68.59"/><path class="cls-6" d="M194,51.25a8.73,8.73,0,0,0-2.16-.07,6.86,6.86,0,0,0,.52,3.13c.67,1.37,2.33,6.33,2.54,6.8s-.44,7.47-.44,7.47l2.42-.5a64.31,64.31,0,0,0,1.15-6.77,29.24,29.24,0,0,0-2.21-8.16C195,51.51,195.27,51.7,194,51.25Z"/><path class="cls-7" d="M190.06,46.19s-.53,2.33-.11,2.88c.24.31,1.27,1.44,1.27,1.44s-3.42,1.81-4.43,1.81-.65-2-.65-2,1.1-.86,1.26-1.3a9.82,9.82,0,0,0,.25-1.7Z"/><path class="cls-5" d="M190.46,46.28s0-.85.67-.83c.46,0,.49.43.14,1-.15.23-.17.74-.35.91s-.41-.11-.48-.25A1.62,1.62,0,0,1,190.46,46.28Z"/><path class="cls-5" d="M186.63,46.28s0-.85-.67-.83c-.46,0-.49.43-.14,1,.15.23.17.74.35.91s.41-.11.48-.25A1.62,1.62,0,0,0,186.63,46.28Z"/><path class="cls-5" d="M191.18,44.2a8.74,8.74,0,0,1-.14.87,2.49,2.49,0,0,0,0,.34c-.15,1-.34,2.4-.42,2.61a3.65,3.65,0,0,1-1.2,1.1,2.13,2.13,0,0,1-1.57,0c-.34-.21-1.13-.72-1.25-1.06s-.29-1.64-.43-2.68c0-.11,0-.22-.05-.31a7.56,7.56,0,0,1-.14-.83,2.42,2.42,0,0,1,2.63-2.11C190.58,42.09,191.24,43.34,191.18,44.2Z"/><path class="cls-8" d="M186.79,43.12a4.09,4.09,0,0,1,3.13.11l.6-.38a4.94,4.94,0,0,0-2.14-.46C187.12,42.41,186.79,43.12,186.79,43.12Z"/><path class="cls-9" d="M191,45.07a2.49,2.49,0,0,0,0,.34c-.15,1-.34,2.4-.42,2.61a3.65,3.65,0,0,1-1.2,1.1,2.13,2.13,0,0,1-1.57,0c-.34-.21-1.13-.72-1.25-1.06s-.29-1.64-.43-2.68c0-.11,0-.22-.05-.31l.14-.2a5.9,5.9,0,0,0,.64,1.93c.39.46.46.48.46.48l.79-.19h.06a1.79,1.79,0,0,1,.92,0h0l.06,0,.59.17s.14,0,.53-.48a5.5,5.5,0,0,0,.56-1.93Z"/><path class="cls-9" d="M191.31,43.65s-.15,1-.21,1.2-.15.41-.15.41l-.1-.22a3.41,3.41,0,0,1-.31-1.33l0-.86.28-.26C191.38,42.68,191.44,43,191.31,43.65Z"/><path class="cls-9" d="M186.82,42.89h0l-.14.89a3.27,3.27,0,0,1-.41,1.17v0l-.15.28-.12-.38c0-.17-.16-1-.19-1.13s0-.08,0-.11c-.12-.63,0-.9.56-1Z"/><path class="cls-9" d="M190.81,42.61l-.28.25-.55.2a4.37,4.37,0,0,0-1.92-.35c-1.1.09-1.25.4-1.27.42h0l-.11,0-.54-.12L186,43a3.33,3.33,0,0,1,.22-.6,3.06,3.06,0,0,1,2.67-1h.1a2.54,2.54,0,0,1,1.45.6Z"/><path class="cls-10" d="M193.48,97.89V100h-4.1s.15-.77,2.09-1.13l.29-1Z"/><path class="cls-10" d="M187.24,97.89V100h-4.11s.16-.77,2.11-1.13l.28-1Z"/><path class="cls-10" d="M192.79,66.12s.56,6.87.59,12.48.35,19.78.35,19.78h-2.26s-2.33-13.61-3.18-17.22-3-15-3-15Z"/><path class="cls-10" d="M187.87,73.5s-.43,8.54-.51,10.23,0,14.64,0,14.64-2.12.06-2.12,0-2-13.8-2.26-18-.11-9.06-.45-9.63.92-4.64.92-4.64l3,.8Z"/><path class="cls-11" d="M186.94,49.53s-.94,2.13.48,2.37c2.26.37,2.93-2.51,2.93-2.51l2.48,1.28s0,15.45.93,20.17c.57,2.73-8.85,1.43-10.24-1-1.19-2.1,2.26-19.58,2.26-19.58Z"/><path class="cls-6" d="M190.93,49.66c-.06.1-3.38,9.84-2.25,19,.26,2.14,4.16.37,5.08.37,0,0,.44-6.84.55-9.39s-1.11-3.39-1-4.63a11.87,11.87,0,0,1,1.46-3.46Z"/><path class="cls-6" d="M185.37,69.64c.38-6.38.54-19.72.54-19.72l-2.26-.17s-1.13,11.19-1.13,12.46c0,.51.15,6.66-.19,7.81C183.09,70.13,185.33,70.4,185.37,69.64Z"/><path class="cls-12" d="M209.87,46.19a14.58,14.58,0,0,0-5,2.47,4.91,4.91,0,0,0-1.71,5c.59,1.77,3.05,2.8,4.47,1.59a1.64,1.64,0,0,0,.57-1.79c-.55-1.21-2.44-.64-3.32.35a5.31,5.31,0,0,0-1.46,4.31,3.47,3.47,0,0,0,3.18,3c1.58,0,3.82-2.38,2.47-3.19-1.71-1-3.91,1.41-4.75,3.24a4.21,4.21,0,0,0,1.41,5.28c1.73,1,5.75-.28,4.7-2s-4.42.79-4.85,2.85a4,4,0,0,0,3.27,4.58c2.1.26,5.73-2.13,4.27-3.67-2.09-2.21-5.58,3.43-4.58,6.31a5,5,0,0,0,7.52,2.07,1.72,1.72,0,0,0,.75-1.46c-.13-.94-1.41-1.21-2.33-.91a4,4,0,1,0,4.43,6.17,1.66,1.66,0,0,0,.41-1.34,1.36,1.36,0,0,0-1.59-.91,2.62,2.62,0,0,0-1.58,1.18,4.85,4.85,0,0,0,7.53,6,2,2,0,0,0,.67-1.68,1.59,1.59,0,0,0-1.62-1.17,2.81,2.81,0,0,0-1.88,1A4.91,4.91,0,0,0,222.47,91c2.82,1.14,8.4-2,6.42-4.31-1.32-1.54-3.92,1.79-3.59,3.8a3.82,3.82,0,0,0,4.6,2.85c2-.52,4.54-3.33,3-4.68-1.07-1-2.82,1.06-3.14,2.46a3.3,3.3,0,0,0,1.69,3.61,4.77,4.77,0,0,0,4.42-.51c1.34-.79,2.45-1.9,3.73-2.76a11.66,11.66,0,0,1,8.91-1.66"/><path class="cls-13" d="M299,55.39C296.09,53.57,270.6,75.05,271.53,92c0,0,5-6.7,9.29-10s4.75-6.68,4.74-10.07,6.46-2,7.19-5.74C294,59.6,301.52,57,299,55.39Z"/><path class="cls-14" d="M300.63,71.21c-4.12,2.49-2.91,5.81-5.34,7.76-1.76,1.41-4.71.67-6.18,2.59-1.65,2.17.23,5.15.37,7.77.19,3.6-3,6.31-6.3,7.41-3.8,1.27-8.71.87-10.79-2.9-2.45-4.46-.62-11.18,3.69-13.27,1-.51,2.37-.65,3.23-1.68,1.44-1.74.51-4.23,1.18-6.44s2.78-3.67,4.74-4.34,3.95-.81,5.88-1.59c2.61-1.06,4.9-3.39,7.07-5,1.94-1.41,8.75-4,9.85.56C309,66.32,304.08,69.11,300.63,71.21Z"/><path class="cls-15" d="M301.05,64.5S284.22,73,270.79,100.26"/><path class="cls-16" d="M311.21,77.25S289.57,77,271.59,97.64"/><path class="cls-13" d="M300.48,86.9c-2.06.83-2.62,4.31-4.84,4.75-1.62.32-3.34-1.11-4.92-.37-1.78.85-1.47,3.35-2.19,5-1,2.36-4,3-6.51,2.65-2.92-.43-6.06-2.28-6.25-5.36-.23-3.64,3.1-7.3,6.61-7.23a6.17,6.17,0,0,0,2.67,0c1.5-.63,1.67-2.52,2.81-3.71a5.31,5.31,0,0,1,4.51-1.2c1.52.2,2.89.78,4.4.91,2.07.18,4.32-.57,6.25-.85,1.73-.26,8.79-.12,6.37,3.57C307.71,87.66,303.23,85.8,300.48,86.9Z"/><path class="cls-15" d="M304.93,83.5s-15,1.28-32.51,14.23"/><path class="cls-14" d="M256,99.66s3.42-6,4-6.61c3.52-3.89,8.19-3.93,12.94-3,1.38.28,5,2.2,6.34,1.93,1-.2,2.26-4.11,5.55-3.91s3.5,4.12,3.5,4.12,2.06-4.54,5.36-4.13,3.29,3.49.82,5.76a15.83,15.83,0,0,1,10.35.87c5.09,2.44,2.66,5.64,2.66,5.64Z"/><path class="cls-13" d="M164.4,55.39c2.86-1.82,28.35,19.66,27.42,36.64,0,0-5-6.7-9.29-10s-4.75-6.68-4.74-10.07-6.46-2-7.19-5.74C169.31,59.6,161.83,57,164.4,55.39Z"/><path class="cls-14" d="M162.72,71.21c4.12,2.49,2.91,5.81,5.34,7.76,1.76,1.41,4.71.67,6.18,2.59,1.66,2.17-.23,5.15-.36,7.77-.2,3.6,3,6.31,6.29,7.41,3.8,1.27,8.71.87,10.79-2.9,2.46-4.46.62-11.18-3.69-13.27-1-.51-2.37-.65-3.22-1.68-1.45-1.74-.52-4.23-1.19-6.44s-2.78-3.67-4.74-4.34-4-.81-5.88-1.59c-2.61-1.06-4.89-3.39-7.05-5-1.94-1.41-8.76-4-9.86.56C154.31,66.32,159.27,69.11,162.72,71.21Z"/><path class="cls-15" d="M162.3,64.5s16.83,8.47,30.26,35.76"/><path class="cls-16" d="M152.14,77.25s21.64-.24,39.62,20.39"/><path class="cls-13" d="M162.86,86.9c2.07.83,2.63,4.31,4.85,4.75,1.61.32,3.34-1.11,4.91-.37,1.78.85,1.47,3.35,2.2,5,1,2.36,4,3,6.49,2.65,2.92-.43,6.06-2.28,6.26-5.36.23-3.64-3.11-7.3-6.62-7.23a6.17,6.17,0,0,1-2.67,0c-1.5-.63-1.67-2.52-2.82-3.71a5.33,5.33,0,0,0-4.51-1.2c-1.52.2-2.89.78-4.4.91-2.07.18-4.32-.57-6.26-.85-1.72-.26-8.78-.12-6.36,3.57C155.64,87.66,160.12,85.8,162.86,86.9Z"/><path class="cls-15" d="M158.42,83.5s15,1.28,32.51,14.23"/><path class="cls-14" d="M207.4,99.66s-3.42-6-4-6.61c-3.51-3.89-8.18-3.93-12.93-3-1.38.28-5,2.2-6.34,1.93-1-.2-2.26-4.11-5.56-3.91s-3.49,4.12-3.49,4.12-2.06-4.54-5.36-4.13-3.29,3.49-.82,5.76a15.83,15.83,0,0,0-10.35.87c-5.09,2.44-2.66,5.64-2.66,5.64Z"/><path class="cls-17" d="M244.27,100.2H239a1.13,1.13,0,0,1-1.13-1l-.35-4.2h8.27l-.35,4.2A1.13,1.13,0,0,1,244.27,100.2Z"/><path class="cls-17" d="M275.71,100.2h-5.33a1.13,1.13,0,0,1-1.13-1l-.34-4.2h8.28l-.34,4.2A1.14,1.14,0,0,1,275.71,100.2Z"/><path class="cls-18" d="M276.63,89.43H238l2.73-19.9a3.12,3.12,0,0,1,3.1-2.71h26.93a3.14,3.14,0,0,1,3.11,2.71Z"/><path class="cls-18" d="M271.42,85.57H243.23l2-20A2.9,2.9,0,0,1,248.12,63h18.4a2.91,2.91,0,0,1,2.9,2.61Z"/><polygon class="cls-19" points="238.64 84.91 238.03 89.43 276.63 89.43 276.01 84.91 238.64 84.91"/><polygon class="cls-18" points="280.81 97.15 233.85 97.15 234.72 86.95 279.94 86.95 280.81 97.15"/><circle class="cls-19" cx="257.33" cy="75.39" r="8.59"/><circle class="cls-11" cx="257.33" cy="75.4" r="7.43"/><path class="cls-20" d="M259.41,81.51a1,1,0,0,1-.68-.28.79.79,0,0,1-.12-.15.56.56,0,0,1-.09-.17,1.27,1.27,0,0,1-.06-.18,1.11,1.11,0,0,1,0-.19,1,1,0,0,1,1-1l.19,0,.18.05.16.09.15.12a1,1,0,0,1,.28.68,1.15,1.15,0,0,1,0,.19l-.06.18-.09.17a.79.79,0,0,1-.12.15.58.58,0,0,1-.15.11.51.51,0,0,1-.16.09.64.64,0,0,1-.18.06Z"/><path class="cls-20" d="M256.41,81.85h0a1,1,0,0,1-.81-1.09h0a1,1,0,0,1,1.08-.82h0A1,1,0,0,1,257.5,81h0a1,1,0,0,1-.95.83h-.14Zm-3.1-1.32h0a1,1,0,0,1-.17-1.36h0a1,1,0,0,1,1.35-.16h0a1,1,0,0,1,.17,1.35h0a.91.91,0,0,1-.76.37h0a1,1,0,0,1-.59-.2Zm-2-2.7a1,1,0,0,1,.53-1.25h0a1,1,0,0,1,1.25.53h0a1,1,0,0,1-.53,1.26h0a1.16,1.16,0,0,1-.37.07h0a.94.94,0,0,1-.88-.61Zm.41-2.25a1,1,0,0,1-.82-1.09h0a1,1,0,0,1,1.09-.82h0a1,1,0,0,1,.82,1.08h0a1,1,0,0,1-.95.82h0a.56.56,0,0,1-.13,0Zm.66-2.84a1,1,0,0,1-.17-1.35h0a1,1,0,0,1,1.35-.17h0a1,1,0,0,1,.16,1.36h0a1,1,0,0,1-.76.37h0A1,1,0,0,1,252.35,72.74Zm7.79-1a1,1,0,0,1-.17-1.35h0a1,1,0,0,1,1.35-.17h0a1,1,0,0,1,.17,1.36h0a1,1,0,0,1-.76.37h0a1,1,0,0,1-.58-.21Zm-5.79-1.16a1,1,0,0,1,.52-1.26h0a1,1,0,0,1,1.25.53h0a1,1,0,0,1-.53,1.26h0a1.15,1.15,0,0,1-.36.07h0a1,1,0,0,1-.89-.6Zm3.6.24a1,1,0,0,1-.82-1.09h0a1,1,0,0,1,1.09-.82h0A1,1,0,0,1,259,70h0a1,1,0,0,1-1,.82H258Z"/><path class="cls-20" d="M262.47,74.29l-.18,0a.6.6,0,0,1-.19-.06l-.16-.08-.15-.13a1,1,0,0,1-.28-.68.65.65,0,0,1,0-.19,1.21,1.21,0,0,1,.05-.18l.09-.16c0-.06.08-.1.12-.15a.91.91,0,0,1,.16-.11.65.65,0,0,1,.16-.09l.19,0a.94.94,0,0,1,.86.26.64.64,0,0,1,.13.15.8.8,0,0,1,.08.16.64.64,0,0,1,.06.18,1.23,1.23,0,0,1,0,.19,1,1,0,0,1-1,1Z"/><path class="cls-21" d="M246.25,44.1a4.11,4.11,0,0,1,.83-4.32s7,4.52,14.79,3.25a4.36,4.36,0,0,1-1.54,4.54S252,49.16,246.25,44.1Z"/><path class="cls-18" d="M258.21,34.08c-5-4.23-14.55-4.83-26.61-2.89-10.36,1.67-20.92,5.58-24.44,11.11-1.61,2.52-.52,9.51-.52,9.51a13.39,13.39,0,0,0,13.05-7.62,2.91,2.91,0,0,1,1.5-3.36c7.49-3.59,19.09-4.82,23.41-3.75a3.2,3.2,0,0,1,2.48,2.71,13.38,13.38,0,0,0,14.77,3.14S260.49,36,258.21,34.08Z"/><path class="cls-21" d="M221.64,48a4.13,4.13,0,0,0-2.14-3.83s-5.21,6.49-13,7.73a4.35,4.35,0,0,0,2.89,3.82S217.8,54.56,221.64,48Z"/><g class="cls-22"><rect class="cls-23" x="177.93" y="69.88" width="45.82" height="30.25" rx="4.01"/><path class="cls-23" d="M223.74,73.9a4,4,0,0,0-4-4H181.94a4,4,0,0,0-4,4h0l20.79,16.84a3.33,3.33,0,0,0,4.21,0Z"/><path class="cls-24" d="M180.6,97V74.79a4,4,0,0,1,4-4h37.61a4,4,0,0,0-2.49-.89H181.94a4,4,0,0,0-4,4h0V96.12a4,4,0,0,0,4,4h.18A4,4,0,0,1,180.6,97Z"/><path class="cls-25" d="M198.3,87.81,177.93,69.88h45.81L203.37,87.81A3.83,3.83,0,0,1,198.3,87.81Z"/><path class="cls-26" d="M198.3,87.81,177.93,69.88h45.81L203.37,87.81A3.83,3.83,0,0,1,198.3,87.81Z"/></g><path class="cls-7" d="M237.46,51.58s1.3-3.76,1.39-4.17a54.19,54.19,0,0,0,.65-8.88c0-1.13-.14-2.12-.16-2.26a5.52,5.52,0,0,0-.72-.89l-.22,0v.14l-.31-.27h-.25l0,.12-.36-.18h-.34l.35,1.15c.12.44,0,.47,0,.47a1.09,1.09,0,0,1-.39.08,2.69,2.69,0,0,0-.49,0s1,1.37,1.1,1.5a2.49,2.49,0,0,1,.42,2,52.25,52.25,0,0,1-1.5,5.48l-1.41,4.06Z"/><path class="cls-6" d="M236.75,56.56a30.31,30.31,0,0,1,2-6.86s-2.48-.49-3.11-1.37c0,0-.84,2.08-1.34,3.12S233,53.84,234,54.53,236.61,57.67,236.75,56.56Z"/><path class="cls-10" d="M227.26,98.13v2h3.92s-.15-.74-2-1.08l-.29-1Z"/><path class="cls-10" d="M233.21,98.13v2h3.91s-.14-.74-2-1.08l-.28-1Z"/><path class="cls-10" d="M227.92,67.82s-.55,5.69-.57,11S227,98.6,227,98.6h2.16s2.22-13.85,3-17.29,2.92-13.42,2.92-13.42Z"/><path class="cls-7" d="M231.24,49S231.1,50,231,50.6a4,4,0,0,1-.29,1,12.31,12.31,0,0,1-1.34,1.52S232.94,55,234,55s.68-2.11.68-2.11-1.15-.91-1.32-1.37a9.67,9.67,0,0,1-.26-1.78Z"/><path class="cls-10" d="M232.61,74s.41,9,.49,10.62,0,14,0,14,2,.06,2,0,1.91-14,2.16-18,.11-8.63.43-9.2-.88-3.55-.88-3.55l-2.87-.1Z"/><path class="cls-6" d="M230.08,52.06s-3-1.21-3.52-.21c-.38.75-.05,5.59.11,6.94.15,1.18,1,11.07,1,11.07s1.13,1.75,6.57,1a5.67,5.67,0,0,0,3.13-1.29s-.59-11.8-.75-13a26.66,26.66,0,0,0-.72-3l-1.62-1.06s.52,1.13-.94,1.46C230.35,54.65,230.08,52.06,230.08,52.06Z"/><path class="cls-7" d="M234.1,44.84c.34.13.94.45,1,.73a11.1,11.1,0,0,1,.34,1.62c0,.5.11,1.45.1,2a5.11,5.11,0,0,1-.49,1.92,3,3,0,0,1-1.47.24c-.33-.1-2.31-1.13-2.43-2.37,0,0-.35.18-1-.85a10.5,10.5,0,0,1,.49-2.65c.19-.87,2.34-.18,2.82-.32A1.09,1.09,0,0,0,234.1,44.84Z"/><path class="cls-10" d="M235.11,45.57a8.41,8.41,0,0,1-2.1,1c-.59,0-1.46.84-1.44,1.11a.55.55,0,0,1-.25.42s-.37-.58-.67-.52c-.59.12-.24.84.08,1a3.58,3.58,0,0,0,.64.26,2,2,0,0,1-.23,1.37,8.08,8.08,0,0,0-1.32-2c-1.49-1.3-.41-3.72,1.05-4.18a5.82,5.82,0,0,1,3,0A2.19,2.19,0,0,1,235.11,45.57Z"/><path class="cls-17" d="M231.94,47.64c0,.06.18.07.21.08a3.76,3.76,0,0,1,.31.46c.2.3.53.4,1.16.19.48-.16.41-.56.45-.77s.07-.23.15-.24.12,0,.22.18.14.62.64.54c.35,0,.44-.14.49-.42a2.93,2.93,0,0,0,0-.66c0-.18,0-.28-.11-.3a1.84,1.84,0,0,0-.41,0,1.6,1.6,0,0,0-.68.18c-.16.12-.14.19-.23.21s-.1-.06-.3-.12a6.29,6.29,0,0,0-1.29.14c-.3.05-.7.17-.7.28A1.6,1.6,0,0,0,231.94,47.64Zm2.59-.44c0-.15,0-.14.4-.22s.4-.07.48,0a.78.78,0,0,1,.09.6.4.4,0,0,1-.36.42c-.32.06-.4-.1-.49-.33a1.31,1.31,0,0,1-.12-.47Zm-2.16.24a2.76,2.76,0,0,1,.93-.2c.36,0,.5-.06.56.07a1.34,1.34,0,0,1,0,.49c0,.24-.06.45-.64.56a.64.64,0,0,1-.79-.35A.69.69,0,0,1,232.37,47.44Zm-1.26.37.83-.17.28-.41-.84.16a1.54,1.54,0,0,0-.5.24.68.68,0,0,1,.23.18Z"/><path class="cls-7" d="M224.6,51.92s-.72-4.53-.73-5c0-2.51,1.23-5.87,1.49-7s.43-.92.48-1.07a9.85,9.85,0,0,1,1.88-.42,3.86,3.86,0,0,1,.6-.21,4.26,4.26,0,0,0,.59-.16l-.27.51s-1.13.85-1.21,1a2.48,2.48,0,0,0-.81,1.86c0,2.24,0,4.66,0,4.66l1.07,4.65Z"/><path class="cls-6" d="M226.66,58.79c-.77-2.18-2.54-8-2.54-8s2.62-.66,3.36-1.46L228.73,53c.4,1.2,1,2.54,0,3.1S227,59.83,226.66,58.79Z"/><path class="cls-27" d="M277.29,62.45c.68.63,1.16.42,2.18,3.91.65,2.23,3,13.49,3,13.49l-1.41.61a55,55,0,0,0-4.17-9.74,19.39,19.39,0,0,1-1.54-4.2l-4.15-.25c-2.59-1.07-1.69-4.85-1.69-4.85S276.61,61.82,277.29,62.45Z"/><path class="cls-28" d="M261.57,59.1l3.75-2.38,3.62,2.82L273.45,61l0,0A17.12,17.12,0,0,1,278,63.15c.68.63,2,1.53.93,5-.69,2.22-3.7,13.46-3.7,13.46l-1.52-.28s.54-6.51,1.08-11.39c.27-2.36.36-3,.36-3S265,68,261.78,66.31C259.51,65.1,261.57,60.92,261.57,59.1Z"/><path class="cls-10" d="M275.29,80.78s0,.41-.7.6a1.14,1.14,0,0,1-1.1-.36l-.15,1.34,2.1,1.47h1.74l-.94-1Z"/><path class="cls-10" d="M282.28,78.93a.73.73,0,0,1-.26.95,1.1,1.1,0,0,1-1.16,0l.27,1.32,4.94-1.55Z"/><path class="cls-7" d="M276.58,45.62a9.88,9.88,0,0,1-.83-1l-.18-.86s-.34-.44-.59-.71a4.62,4.62,0,0,1-.49-1.41l.33-.2a4.27,4.27,0,0,0,.27.63.61.61,0,0,0,.32.13,5.34,5.34,0,0,0,0-.8,7,7,0,0,0-.3-1.36l.28-.13c.1.2.19.41.27.62s.16.6.16.6c0-.31,0-.62-.08-.92s-.12-.61-.12-.61l.28-.08a5.08,5.08,0,0,1,.2.74c0,.31.15.82.15.82a7.22,7.22,0,0,0,0-.93,1.84,1.84,0,0,1,0-.33h.31a2.38,2.38,0,0,1,.11.7,5.44,5.44,0,0,0,0,.57,3.31,3.31,0,0,0,.09-.77.53.53,0,0,1,0-.25l.24,0s.13,1,.18,1.52,0,1.3,0,1.69,0,.73,0,.73Z"/><path class="cls-7" d="M270.24,46.73a37.36,37.36,0,0,0,3.85,2.75s.72-1.8,1.06-3.07c.41-1.53.53-2.23.53-2.23l1.46-.12s-.47,3.9-1,6.54-1.26,2.11-1.87,2-6.41-3.24-6.41-3.24l.62-3.31S268.86,45.59,270.24,46.73Z"/><path class="cls-29" d="M264.11,37.37a3.68,3.68,0,0,1,2.75.28c1.79,1.11.93,4.13.82,4.83s.53,2,.52,2.78a2.7,2.7,0,0,1-.83,1.94,1.34,1.34,0,0,0-.23.64,6,6,0,0,1-.84-2.46c-.14-1.43-.45-1.09-1.17-2.67a12,12,0,0,1-.74-4Z"/><path class="cls-29" d="M265.62,38.39l-1.49-1a2.21,2.21,0,0,0-2,1,10.15,10.15,0,0,0-1.16,4,39.74,39.74,0,0,0-.56,4.47c0,.92,1.14,1,1.14,1l3.75-1.62a11.36,11.36,0,0,1,0-4.07A19.84,19.84,0,0,0,265.62,38.39Z"/><path class="cls-7" d="M266.85,38.71a22.16,22.16,0,0,1,.48,2.71c0,.88-.07,2.33-.65,2.72s-1.68.09-2.48-.25a1.89,1.89,0,0,1-1.15-1.41,8.32,8.32,0,0,1,.09-2.86,1.73,1.73,0,0,1,1.52-1.51A5.2,5.2,0,0,1,266.85,38.71Z"/><path class="cls-7" d="M263.58,42a8.7,8.7,0,0,1-.25,3.22c-.32.71-1.6,1-1.6,1A7.27,7.27,0,0,0,263,50.05c1.29,1.9,5.32,2.6,5.32,2.6a17.91,17.91,0,0,0,1.2-3.36,3.92,3.92,0,0,0-.71-3.14s-1.09-.35-1.61-.56c-1.27-.48-1.13-2.5-1.13-2.5Z"/><path class="cls-6" d="M266,47a18.69,18.69,0,0,1-3.39-1.18l-2.58,1.55s-1.51,1.44,1.08,5.25c0,0,1,3.46-.62,9.57,0,0,.43,1.57,2.85.73,2.09-.72,2.13-1.28,4-1.74a15.19,15.19,0,0,0,3.38-1.11c-1.41-2.12-1.16-5.44-1.16-5.44s1.6-1.54.91-3.11a21.83,21.83,0,0,1-1.32-5.46l-1.38-.35a11.1,11.1,0,0,1-1.1,1.17A.61.61,0,0,1,266,47Z"/><path class="cls-11" d="M267.17,45.6S266.85,46.78,266,47c0,0,.32,1.61,1.08,1.33,1.08-.39.66-2.63.66-2.63Z"/><path class="cls-11" d="M262.33,45.67s.52,2.46,1.88,2.66S266,47,266,47s-2.89-.85-3.17-1.74Z"/><path class="cls-29" d="M264.74,38.09c-.25,0-.44,1.2-.46,1.87s-1,1.19-.59,2.65.39,2.87,1,4.47a2.49,2.49,0,0,1-.46,2.74,22.13,22.13,0,0,1-1.69-2.07,1.65,1.65,0,0,0-1.8-.81s1.92-3.73,1.85-4.74-.24-2.54.57-3.46A1.57,1.57,0,0,1,264.74,38.09Z"/><path class="cls-7" d="M263.73,41.07s-.54-.59-.89-.5-.37.62-.1,1,1.26.68,1.26.68Z"/><path class="cls-29" d="M264.94,39.93a7,7,0,0,0,1.52-.11,2.34,2.34,0,0,1,1.38.14l-.37-1.61a5,5,0,0,0-1.93-.62c-1,0-1.91.39-1.41.72A3.26,3.26,0,0,1,264.94,39.93Z"/><path class="cls-7" d="M262.26,49.2c-.18,2-.77,7.78-.77,7.78,1.84,1.61,4.44,4.28,4.44,4.28s-.74,1.47-1.06,1.22c-2.54-2-5.43-3.16-5.64-4.52-.34-2.26-.46-8,.37-9.81C260.26,46.71,262.44,47.06,262.26,49.2Z"/><path class="cls-7" d="M267.05,61.44c.77.29,1.25.57,1.2.85s-.68-.16-1.08-.15a2.14,2.14,0,0,0,.94.92c.51.25.79.6.52.89s-.78.71-1.1.57-1.49-1-1.93-1.19-.61-.77-.85-.93.42-1.3.42-1.3l.75.16a3.36,3.36,0,0,0,.63.06A1.46,1.46,0,0,1,267.05,61.44Z"/><line class="cls-15" x1="145.64" y1="100.03" x2="317.71" y2="100.03"/></g></g></g></g></svg>
