<svg xmlns="http://www.w3.org/2000/svg" xmlns:xlink="http://www.w3.org/1999/xlink" viewBox="0 0 70 41.69"><defs><style>.cls-1,.cls-12,.cls-15,.cls-16{fill:none;}.cls-2{isolation:isolate;}.cls-3{font-size:2.76px;font-family:Roboto-Black, Roboto;font-weight:800;}.cls-17,.cls-3{fill:#21295b;}.cls-4{fill:#afb3bd;}.cls-5{fill:#f5c5b3;}.cls-6{fill:#42b2fc;}.cls-7{fill:#fec4ad;}.cls-8{fill:#e8d4e5;}.cls-19,.cls-24,.cls-8{mix-blend-mode:multiply;}.cls-9{fill:#7b2b1a;}.cls-10{fill:#133a50;}.cls-11{fill:#fff;}.cls-12,.cls-16{stroke:#fff;}.cls-12,.cls-15,.cls-16{stroke-miterlimit:10;}.cls-12{stroke-width:2px;}.cls-13{fill:#4fae86;}.cls-14{fill:#319188;}.cls-15{stroke:#194459;}.cls-18{fill:#ff3a46;}.cls-19{fill:#cfcfcf;}.cls-20{fill:#b3b3b3;}.cls-21{fill:#d6313b;}.cls-22{clip-path:url(#clip-path);}.cls-23,.cls-24{fill:#ffd71d;}.cls-25,.cls-27{opacity:0.7;mix-blend-mode:overlay;}.cls-25{fill:url(#radial-gradient);}.cls-26{fill:url(#linear-gradient);}.cls-27{fill:#fd0;}.cls-28{fill:url(#linear-gradient-2);}.cls-29{fill:url(#linear-gradient-3);}.cls-30{fill:#471a16;}</style><clipPath id="clip-path"><rect class="cls-1" x="13.13" y="24.53" width="18.64" height="12.31" rx="6.15"/></clipPath><radialGradient id="radial-gradient" cx="15.1" cy="28.95" r="7.72" gradientUnits="userSpaceOnUse"><stop offset="0" stop-color="#fff"/><stop offset="1" stop-color="#fff" stop-opacity="0"/></radialGradient><linearGradient id="linear-gradient" x1="22.45" y1="24.53" x2="22.45" y2="32.22" gradientUnits="userSpaceOnUse"><stop offset="0" stop-color="#ffd71d"/><stop offset="1" stop-color="#feb200"/></linearGradient><linearGradient id="linear-gradient-2" x1="335.74" y1="24.96" x2="341.08" y2="24.96" gradientTransform="matrix(-1, 0, 0, 1, 391.41, 0)" gradientUnits="userSpaceOnUse"><stop offset="0" stop-color="#343a44"/><stop offset="0.3" stop-color="#232d3e"/><stop offset="0.64" stop-color="#182439"/><stop offset="1" stop-color="#142138"/></linearGradient><linearGradient id="linear-gradient-3" x1="337.04" y1="24.24" x2="344.6" y2="24.24" xlink:href="#linear-gradient-2"/></defs><g class="cls-2"><g id="Layer_2" data-name="Layer 2"><g id="OBJECTS"><text class="cls-3" transform="translate(28.36 40.95)">Contact Us</text><path class="cls-4" d="M7.82,22.84C4.29,25.06,2.44,30.07,5.3,36.75H61.58a31.07,31.07,0,0,0,1.71-7.49c.39-4.12-1-8.41-3.49-10.67-6.25-5.72-11.45,2.23-14.74-1.13-1.9-1.94-1.72-7.39-3.2-9.92A15.13,15.13,0,0,0,26.32.2a14,14,0,0,0-9.93,6.42c-3.05,5-.83,8.53-2.17,12C12.71,22.4,10.18,21.36,7.82,22.84Z"/><path class="cls-5" d="M12.83,14.09a5.43,5.43,0,0,0,.51-.29l.22-.35a4.2,4.2,0,0,1,.37-.21,2.15,2.15,0,0,0,.44-.54l-.11-.14a1.46,1.46,0,0,1-.22.23.31.31,0,0,1-.16,0,2.55,2.55,0,0,1,.13-.35,2.75,2.75,0,0,1,.35-.54l-.1-.1L14,12l-.16.24a3.35,3.35,0,0,1,.18-.39c.07-.1.15-.24.15-.24l-.12-.08a2.31,2.31,0,0,0-.2.29l-.2.33a3.84,3.84,0,0,1,.15-.41.55.55,0,0,0,.06-.14l-.13,0a1.08,1.08,0,0,0-.16.28,1.06,1.06,0,0,1-.11.24,1.43,1.43,0,0,1,.09-.34l.05-.11-.11,0s-.22.39-.33.63-.19.56-.26.74a7.44,7.44,0,0,0-.14.78Z"/><path class="cls-6" d="M16.08,16.4l-2.67-.46a9.42,9.42,0,0,1,0-1.37,4.15,4.15,0,0,1,.14-1l-.71-.1s-.14.63-.25,1.09a5,5,0,0,0-.26,2.15c.25.31,2.48.93,3.24,1.5C16,18.52,16,17.42,16.08,16.4Z"/><polygon class="cls-7" points="19.88 24.01 19.74 24.93 20.02 25.57 20.23 25.29 20.27 24.77 20.57 24.82 20.72 24.63 20.71 24.25 20.66 23.19 19.88 24.01"/><path class="cls-6" d="M19.69,17a3.84,3.84,0,0,0-.88,0A2.82,2.82,0,0,0,19,18.2c.27.55.95,2.58,1,2.76S19.88,24,19.88,24l1-.21a26.91,26.91,0,0,0,.47-2.75,12,12,0,0,0-.9-3.32C20.06,17.06,20.19,17.14,19.69,17Z"/><path class="cls-7" d="M18.07,14.9s-.22.94-.05,1.16.52.59.52.59a8,8,0,0,1-1.8.74c-.41,0-.26-.82-.26-.82A2.36,2.36,0,0,0,17,16a4.72,4.72,0,0,0,.1-.7Z"/><path class="cls-5" d="M18.23,14.93s0-.34.28-.34.2.18,0,.4-.06.3-.14.36-.17,0-.2-.1A.77.77,0,0,1,18.23,14.93Z"/><path class="cls-5" d="M16.67,14.93s0-.34-.27-.34-.2.18,0,.4.06.3.14.36.17,0,.19-.1S16.67,14.93,16.67,14.93Z"/><path class="cls-5" d="M18.53,14.09c0,.11,0,.18-.06.35a.52.52,0,0,0,0,.14c-.06.41-.14,1-.17,1.06a1.64,1.64,0,0,1-.49.45.88.88,0,0,1-.64,0c-.14-.08-.46-.29-.51-.43s-.11-.67-.17-1.09a.74.74,0,0,1,0-.12c0-.17-.05-.23-.06-.34a1,1,0,0,1,1.07-.86C18.28,13.23,18.55,13.74,18.53,14.09Z"/><path class="cls-8" d="M16.74,13.64a1.66,1.66,0,0,1,1.27,0l.25-.16a2.12,2.12,0,0,0-.87-.18C16.87,13.36,16.74,13.64,16.74,13.64Z"/><path class="cls-9" d="M18.47,14.44a.52.52,0,0,0,0,.14c-.06.41-.14,1-.17,1.06a1.64,1.64,0,0,1-.49.45.88.88,0,0,1-.64,0c-.14-.08-.46-.29-.51-.43s-.11-.67-.17-1.09a.74.74,0,0,1,0-.12l.05-.09a2.68,2.68,0,0,0,.26.79c.16.18.19.19.19.19l.32-.08h0a.77.77,0,0,1,.37,0h0l.25.07s.05,0,.21-.19a2.17,2.17,0,0,0,.23-.79Z"/><path class="cls-9" d="M18.58,13.86s-.06.42-.08.49l-.07.17,0-.09a1.29,1.29,0,0,1-.12-.54v-.36l.12-.1C18.61,13.47,18.63,13.6,18.58,13.86Z"/><path class="cls-9" d="M16.75,13.55h0l-.05.37a1.66,1.66,0,0,1-.17.47h0l-.06.11a1.47,1.47,0,0,1,0-.16c0-.06-.07-.4-.08-.45v-.05c0-.25,0-.36.22-.4Z"/><path class="cls-9" d="M18.38,13.43l-.12.1-.22.08a2.09,2.09,0,0,0-.79-.14c-.44,0-.5.17-.51.17h0l-.22,0h0a1.11,1.11,0,0,1,.09-.25,1.22,1.22,0,0,1,1.08-.39h0a1.1,1.1,0,0,1,.59.25Z"/><path class="cls-10" d="M19.46,35.93v.87H17.79s.06-.32.86-.46l.11-.41Z"/><path class="cls-10" d="M16.92,35.93v.87H15.25s.07-.32.86-.46l.11-.41Z"/><path class="cls-10" d="M19.18,23s.23,2.8.24,5.08.15,8.05.15,8.05h-.93s-.94-5.54-1.29-7S16.11,23,16.11,23Z"/><path class="cls-10" d="M17.18,26S17,29.48,17,30.17s0,5.95,0,5.95a8.22,8.22,0,0,1-.86,0s-.82-5.61-.92-7.3,0-3.68-.19-3.92A6.78,6.78,0,0,1,15.38,23l1.22.33Z"/><path class="cls-11" d="M16.8,16.25s-.38.87.19,1c.92.15,1.2-1,1.2-1l1,.52a70.09,70.09,0,0,0,.38,8.2c.23,1.11-3.61.58-4.17-.4s.92-8,.92-8Z"/><path class="cls-6" d="M18.43,16.31A19.27,19.27,0,0,0,17.51,24c.1.87,1.69.15,2.07.15,0,0,.18-2.78.22-3.82s-.45-1.38-.4-1.88A4.62,4.62,0,0,1,20,17.08Z"/><path class="cls-6" d="M16.16,24.43c.16-2.59.22-8,.22-8l-.91-.07S15,20.9,15,21.41a25.21,25.21,0,0,1-.08,3.18C15.23,24.63,16.14,24.75,16.16,24.43Z"/><path class="cls-12" d="M26.13,14.9a5.75,5.75,0,0,0-2,1,2,2,0,0,0-.7,2,1.23,1.23,0,0,0,1.82.65.65.65,0,0,0,.23-.73c-.22-.49-1-.26-1.35.14a2.2,2.2,0,0,0-.6,1.76A1.42,1.42,0,0,0,24.8,21c.64,0,1.55-1,1-1.3s-1.59.58-1.93,1.32a1.72,1.72,0,0,0,.57,2.15c.7.41,2.34-.11,1.91-.8s-1.79.32-2,1.16a1.61,1.61,0,0,0,1.33,1.86c.85.11,2.33-.86,1.74-1.49-.85-.9-2.27,1.4-1.86,2.57a2,2,0,0,0,3.05.84.7.7,0,0,0,.31-.59c-.06-.39-.58-.5-.95-.37a1.62,1.62,0,1,0,1.81,2.51.71.71,0,0,0,.17-.55.56.56,0,0,0-.65-.37,1,1,0,0,0-.64.48,2,2,0,0,0,3.06,2.46.85.85,0,0,0,.27-.69.63.63,0,0,0-.66-.47,1.11,1.11,0,0,0-.77.39,2,2,0,0,0,.66,3.07c1.15.47,3.42-.81,2.61-1.75-.53-.63-1.59.73-1.46,1.55a1.56,1.56,0,0,0,1.87,1.16c.8-.21,1.85-1.36,1.24-1.91-.44-.39-1.15.43-1.28,1a1.34,1.34,0,0,0,.69,1.47,1.94,1.94,0,0,0,1.8-.21c.54-.31,1-.77,1.52-1.12a4.77,4.77,0,0,1,3.62-.68"/><path class="cls-13" d="M62.37,18.64c-1.16-.75-11.53,8-11.15,14.9A24.48,24.48,0,0,1,55,29.49a4.47,4.47,0,0,0,1.93-4.1c0-1.38,2.63-.81,2.93-2.33C60.37,20.35,63.42,19.31,62.37,18.64Z"/><path class="cls-14" d="M63.05,25.07c-1.68,1-1.18,2.37-2.17,3.16-.72.57-1.92.27-2.51,1.06s.09,2.09.14,3.15c.08,1.47-1.23,2.57-2.56,3-1.54.52-3.54.35-4.39-1.18a4.15,4.15,0,0,1,1.5-5.4c.43-.21,1-.26,1.32-.68.58-.71.21-1.73.48-2.62a3,3,0,0,1,1.93-1.77c.8-.27,1.61-.33,2.39-.65a14.92,14.92,0,0,0,2.87-2c.79-.57,3.56-1.64,4,.23C66.47,23.08,64.46,24.22,63.05,25.07Z"/><path class="cls-15" d="M63.22,22.35s-6.84,3.44-12.31,14.54"/><path class="cls-16" d="M67.36,27.53s-8.81-.1-16.12,8.3"/><path class="cls-13" d="M63,31.46c-.84.33-1.06,1.75-2,1.93-.66.13-1.36-.45-2-.15s-.6,1.36-.89,2a2.4,2.4,0,0,1-2.65,1.08c-1.19-.17-2.46-.93-2.54-2.18a2.87,2.87,0,0,1,2.69-2.94,2.46,2.46,0,0,0,1.08,0c.61-.26.68-1,1.15-1.51a2.16,2.16,0,0,1,1.83-.49c.62.08,1.17.31,1.79.37A11.19,11.19,0,0,0,64,29.27c.71-.1,3.58-.05,2.59,1.46C65.93,31.77,64.11,31,63,31.46Z"/><path class="cls-15" d="M64.8,30.07s-6.11.52-13.23,5.79"/><path class="cls-14" d="M44.87,36.65s1.4-2.44,1.62-2.69c1.43-1.58,3.33-1.6,5.27-1.2.56.11,2,.89,2.57.78s.93-1.67,2.26-1.59S58,33.63,58,33.63s.84-1.85,2.18-1.68,1.33,1.42.33,2.34a6.41,6.41,0,0,1,4.21.36c2.07,1,1.08,2.29,1.08,2.29Z"/><path class="cls-13" d="M7.63,18.64c1.16-.75,11.53,8,11.15,14.9A24.48,24.48,0,0,0,15,29.49a4.47,4.47,0,0,1-1.93-4.1c0-1.38-2.63-.81-2.93-2.33C9.63,20.35,6.58,19.31,7.63,18.64Z"/><path class="cls-14" d="M7,25.07c1.68,1,1.18,2.37,2.17,3.16.72.57,1.92.27,2.51,1.06s-.09,2.09-.14,3.15c-.08,1.47,1.23,2.57,2.56,3,1.54.52,3.54.35,4.39-1.18a4.15,4.15,0,0,0-1.5-5.4c-.43-.21-1-.26-1.32-.68-.58-.71-.21-1.73-.48-2.62a3,3,0,0,0-1.93-1.77c-.8-.27-1.61-.33-2.39-.65a14.92,14.92,0,0,1-2.87-2c-.79-.57-3.56-1.64-4,.23C3.53,23.08,5.54,24.22,7,25.07Z"/><path class="cls-15" d="M6.78,22.35s6.84,3.44,12.31,14.54"/><path class="cls-16" d="M2.64,27.53s8.81-.1,16.12,8.3"/><path class="cls-13" d="M7,31.46c.84.33,1.06,1.75,2,1.93.66.13,1.36-.45,2-.15s.6,1.36.89,2a2.4,2.4,0,0,0,2.65,1.08c1.19-.17,2.46-.93,2.54-2.18a2.87,2.87,0,0,0-2.69-2.94,2.46,2.46,0,0,1-1.08,0c-.61-.26-.68-1-1.15-1.51a2.16,2.16,0,0,0-1.83-.49c-.62.08-1.17.31-1.79.37A11.19,11.19,0,0,1,6,29.27c-.71-.1-3.58-.05-2.59,1.46C4.07,31.77,5.89,31,7,31.46Z"/><path class="cls-15" d="M5.2,30.07s6.11.52,13.23,5.79"/><path class="cls-14" d="M25.13,36.65s-1.4-2.44-1.62-2.69c-1.43-1.58-3.33-1.6-5.27-1.2-.56.11-2,.89-2.57.78s-.93-1.67-2.26-1.59S12,33.63,12,33.63,11.14,31.78,9.8,32s-1.33,1.42-.33,2.34a6.41,6.41,0,0,0-4.21.36c-2.07,1-1.08,2.29-1.08,2.29Z"/><path class="cls-17" d="M40.12,36.86H38a.46.46,0,0,1-.46-.42l-.14-1.71h3.36l-.14,1.71A.46.46,0,0,1,40.12,36.86Z"/><path class="cls-17" d="M52.91,36.86H50.75a.46.46,0,0,1-.46-.42l-.14-1.71h3.36l-.14,1.71A.46.46,0,0,1,52.91,36.86Z"/><path class="cls-18" d="M53.29,32.49H37.58l1.11-8.1A1.28,1.28,0,0,1,40,23.29H50.91a1.28,1.28,0,0,1,1.27,1.1Z"/><path class="cls-18" d="M51.17,30.91H39.7l.82-8.13a1.18,1.18,0,0,1,1.17-1.06h7.49a1.17,1.17,0,0,1,1.17,1.06Z"/><polygon class="cls-19" points="37.84 30.65 37.58 32.48 53.29 32.48 53.04 30.65 37.84 30.65"/><polygon class="cls-18" points="54.99 35.63 35.88 35.63 36.24 31.48 54.63 31.48 54.99 35.63"/><circle class="cls-19" cx="45.44" cy="26.78" r="3.5" transform="translate(-7.25 29.13) rotate(-33.07)"/><circle class="cls-11" cx="45.44" cy="26.78" r="3.02" transform="translate(-0.61 1.07) rotate(-1.34)"/><path class="cls-20" d="M46.28,29.26a.43.43,0,0,1-.28-.11l0-.06,0-.07a.19.19,0,0,1,0-.07.22.22,0,0,1,0-.08.43.43,0,0,1,.11-.28.39.39,0,0,1,.36-.1l.07,0,.07,0,.06.05a.43.43,0,0,1,.11.28V29l0,.07,0,.07,0,.06-.06.05-.07,0-.07,0Z"/><path class="cls-20" d="M45.06,29.4h0a.39.39,0,0,1-.33-.44h0a.4.4,0,0,1,.45-.34h0a.4.4,0,0,1,.33.45h0a.41.41,0,0,1-.39.34h-.06Zm-1.26-.53h0a.4.4,0,0,1-.06-.56h0a.38.38,0,0,1,.55-.06h0a.39.39,0,0,1,.06.55h0A.37.37,0,0,1,44,29h0A.46.46,0,0,1,43.8,28.87ZM43,27.77a.39.39,0,0,1,.22-.51h0a.39.39,0,0,1,.51.22h0a.4.4,0,0,1-.22.51h0a.39.39,0,0,1-.15,0h0A.39.39,0,0,1,43,27.77Zm.17-.92a.39.39,0,0,1-.34-.44h0a.4.4,0,0,1,.45-.34h0a.4.4,0,0,1,.33.45h0a.41.41,0,0,1-.39.34h-.05Zm.27-1.15a.39.39,0,0,1-.07-.55h0a.39.39,0,0,1,.55-.07h0a.4.4,0,0,1,.07.55h0a.4.4,0,0,1-.31.15h0A.41.41,0,0,1,43.42,25.7Zm3.16-.39a.39.39,0,0,1-.06-.55h0a.39.39,0,0,1,.55-.07h0a.39.39,0,0,1,.06.55h0a.37.37,0,0,1-.31.15h0A.46.46,0,0,1,46.58,25.31Zm-2.35-.48a.38.38,0,0,1,.21-.51h0a.39.39,0,0,1,.51.22h0a.39.39,0,0,1-.21.51h0l-.15,0h0A.38.38,0,0,1,44.23,24.83Zm1.46.1a.39.39,0,0,1-.33-.44h0a.39.39,0,0,1,.44-.34h0a.4.4,0,0,1,.34.45h0a.4.4,0,0,1-.39.33h-.06Z"/><path class="cls-20" d="M47.53,26.33h-.08l-.07,0-.07,0-.06-.05a.39.39,0,0,1-.11-.28.17.17,0,0,1,0-.07.24.24,0,0,1,0-.08l0-.06s0,0,0-.06l.06-.05.07,0,.07,0a.37.37,0,0,1,.36.11s0,0,0,.06l0,.06a.24.24,0,0,1,0,.08.17.17,0,0,1,0,.07.39.39,0,0,1-.11.28A.44.44,0,0,1,47.53,26.33Z"/><path class="cls-21" d="M40.93,14.05a1.67,1.67,0,0,1,.34-1.76,9.51,9.51,0,0,0,6,1.32,1.77,1.77,0,0,1-.62,1.85S43.26,16.11,40.93,14.05Z"/><path class="cls-18" d="M45.79,10c-2-1.73-5.91-2-10.82-1.18-4.22.68-8.51,2.27-9.94,4.52-.66,1-.21,3.87-.21,3.87a5.43,5.43,0,0,0,5.3-3.09,1.19,1.19,0,0,1,.61-1.37c3.05-1.46,7.77-2,9.53-1.53a1.29,1.29,0,0,1,1,1.1,5.44,5.44,0,0,0,6,1.28S46.72,10.75,45.79,10Z"/><path class="cls-21" d="M30.92,15.61a1.69,1.69,0,0,0-.87-1.56,9.55,9.55,0,0,1-5.3,3.15,1.76,1.76,0,0,0,1.17,1.55S29.35,18.3,30.92,15.61Z"/><g class="cls-22"><rect class="cls-23" x="13.13" y="24.53" width="18.64" height="12.31" rx="6.15"/><path class="cls-24" d="M31.77,26.17a1.64,1.64,0,0,0-1.63-1.64H14.77a1.64,1.64,0,0,0-1.64,1.64L21.59,33a1.37,1.37,0,0,0,1.71,0Z"/><path class="cls-25" d="M14.22,35.57v-9a1.63,1.63,0,0,1,1.63-1.63H31.16a1.59,1.59,0,0,0-1-.37H14.77a1.64,1.64,0,0,0-1.64,1.64v9a1.63,1.63,0,0,0,1.64,1.63h.07A1.63,1.63,0,0,1,14.22,35.57Z"/><path class="cls-26" d="M21.42,31.83l-8.29-7.3H31.77l-8.29,7.3A1.56,1.56,0,0,1,21.42,31.83Z"/><path class="cls-27" d="M21.42,31.83l-8.29-7.3H31.77l-8.29,7.3A1.56,1.56,0,0,1,21.42,31.83Z"/></g><path class="cls-7" d="M37.35,17.09s.53-1.53.57-1.7a21.52,21.52,0,0,0,.26-3.61c0-.46,0-.86-.06-.92a1.71,1.71,0,0,0-.3-.37h-.08v.06l-.12-.11h-.1v.05l-.15-.07h-.14s.09.29.14.47,0,.19,0,.19-.11.05-.16,0H37s.43.56.45.61a1,1,0,0,1,.17.81A19.58,19.58,0,0,1,37,14.75s-.57,1.65-.57,1.65Z"/><path class="cls-6" d="M37.07,19.12a12.15,12.15,0,0,1,.82-2.8s-1-.2-1.27-.56c0,0-.35.85-.55,1.27s-.53,1-.14,1.26S37,19.56,37.07,19.12Z"/><path class="cls-10" d="M33.2,36v.82h1.6s-.06-.29-.82-.43L33.87,36Z"/><path class="cls-10" d="M35.63,36v.82h1.59s-.06-.29-.82-.43L36.29,36Z"/><path class="cls-10" d="M33.47,23.7s-.22,2.31-.23,4.49-.14,8-.14,8H34s.91-5.64,1.24-7,1.18-5.46,1.18-5.46Z"/><path class="cls-7" d="M34.82,16s0,.44-.1.67a2.47,2.47,0,0,1-.12.41,5.77,5.77,0,0,1-.54.62,8.29,8.29,0,0,0,1.88.77c.43,0,.28-.86.28-.86s-.47-.37-.54-.56a4.06,4.06,0,0,1-.11-.72Z"/><path class="cls-10" d="M35.38,26.21l.2,4.32c0,.65,0,5.68,0,5.68a7.48,7.48,0,0,0,.82,0s.78-5.71.88-7.32,0-3.51.18-3.73-.37-1.45-.37-1.45l-1.16-.05Z"/><path class="cls-6" d="M34.35,17.28s-1.23-.49-1.43-.08A12.29,12.29,0,0,0,33,20c.06.48.39,4.5.39,4.5s.46.72,2.67.43a2.33,2.33,0,0,0,1.27-.52s-.24-4.81-.3-5.29a10.74,10.74,0,0,0-.3-1.23L36,17.48s.21.46-.38.59A1,1,0,0,1,34.35,17.28Z"/><path class="cls-7" d="M36,14.34c.14.06.38.19.41.3s.12.46.14.66,0,.59,0,.83a2.22,2.22,0,0,1-.2.78,1.22,1.22,0,0,1-.6.1c-.14,0-.94-.45-1-1,0,0-.14.07-.4-.35a3.93,3.93,0,0,1,.2-1.08c.07-.36.95-.08,1.15-.13A.47.47,0,0,0,36,14.34Z"/><path class="cls-10" d="M36.4,14.64a3.46,3.46,0,0,1-.86.41c-.24,0-.59.35-.58.45a.24.24,0,0,1-.1.17s-.15-.24-.28-.21-.1.35,0,.41a1.78,1.78,0,0,0,.25.11,1,1,0,0,1,0,.26,1.13,1.13,0,0,1-.11.3,3.33,3.33,0,0,0-.54-.83,1.06,1.06,0,0,1,.43-1.7,2.45,2.45,0,0,1,1.23,0A.89.89,0,0,1,36.4,14.64Z"/><path class="cls-17" d="M35.11,15.49s.07,0,.08,0,0,0,.13.18.22.17.47.08.17-.23.18-.31,0-.09.07-.1,0,0,.08.07.06.26.27.23.17-.06.19-.18a.86.86,0,0,0,0-.27c0-.07,0-.11,0-.12l-.17,0a.67.67,0,0,0-.28.07c-.06.05-.06.08-.09.09s0,0-.12,0a2.15,2.15,0,0,0-.53.06c-.12,0-.28.06-.28.11A.37.37,0,0,0,35.11,15.49Zm1-.19c0-.06,0-.05.16-.08s.17,0,.2,0a.37.37,0,0,1,0,.25.18.18,0,0,1-.15.17c-.13,0-.16,0-.2-.13A.6.6,0,0,1,36.16,15.3Zm-.88.1a1.3,1.3,0,0,1,.38-.08c.15,0,.21,0,.23,0a.69.69,0,0,1,0,.2c0,.1,0,.18-.26.23a.26.26,0,0,1-.32-.15A.28.28,0,0,1,35.28,15.4Zm-.51.15.34-.06.11-.17-.34.07a.63.63,0,0,0-.2.09A.25.25,0,0,1,34.77,15.55Z"/><path class="cls-7" d="M32.12,17.23s-.29-1.84-.29-2a11.66,11.66,0,0,1,.6-2.83c.11-.45.18-.38.2-.44a4.55,4.55,0,0,1,.76-.17,1.67,1.67,0,0,1,.24-.08l.25-.07-.12.21s-.46.35-.49.39a1,1,0,0,0-.33.76c0,.91,0,1.9,0,1.9l.43,1.89Z"/><path class="cls-6" d="M33,20c-.32-.89-1-3.27-1-3.27a3.94,3.94,0,0,0,1.36-.6l.51,1.51c.17.49.41,1,0,1.26S33.12,20.45,33,20Z"/><path class="cls-28" d="M53.56,21.51c.27.26.47.17.88,1.59.27.91,1.24,5.49,1.24,5.49l-.58.25a21.71,21.71,0,0,0-1.69-4,7.5,7.5,0,0,1-.63-1.71l-1.69-.11c-1.06-.43-.69-2-.69-2A15.3,15.3,0,0,1,53.56,21.51Z"/><path class="cls-29" d="M47.16,20.15l1.53-1,1.47,1.15,1.83.59h0a6.74,6.74,0,0,1,1.84.87c.28.25.83.62.39,2-.28.9-1.51,5.48-1.51,5.48l-.62-.11s.22-2.65.44-4.63c.11-1,.15-1.23.15-1.23s-4.1.44-5.42-.25C46.33,22.59,47.16,20.89,47.16,20.15Z"/><path class="cls-10" d="M52.74,29s0,.17-.28.24a.44.44,0,0,1-.45-.15l-.06.55.85.6h.71l-.38-.43Z"/><path class="cls-10" d="M55.58,28.21a.29.29,0,0,1-.1.39.46.46,0,0,1-.47,0l.11.54,2-.63Z"/><path class="cls-7" d="M53.27,14.66a4.73,4.73,0,0,1-.34-.4l-.07-.35s-.14-.18-.24-.29a1.8,1.8,0,0,1-.2-.58l.13-.08s.08.21.11.26a.26.26,0,0,0,.13,0,1.8,1.8,0,0,0,0-.33,3,3,0,0,0-.13-.55l.12-.05s.08.17.11.25l.06.24s0-.26,0-.37a2.45,2.45,0,0,1,0-.25l.12,0a2.54,2.54,0,0,1,.08.3c0,.13.06.34.06.34a2.33,2.33,0,0,0,0-.38c0-.09,0-.14,0-.14h.13a1.07,1.07,0,0,1,0,.28.94.94,0,0,0,0,.23,1.77,1.77,0,0,0,0-.31.29.29,0,0,1,0-.11l.09,0s.06.39.08.62,0,.53,0,.7V14Z"/><path class="cls-7" d="M50.69,15.11a14.69,14.69,0,0,0,1.57,1.13s.29-.74.43-1.26.22-.9.22-.9L53.5,14s-.19,1.58-.42,2.66-.51.86-.76.81-2.61-1.32-2.61-1.32L50,14.83S50.13,14.65,50.69,15.11Z"/><path class="cls-30" d="M48.2,11.31a1.42,1.42,0,0,1,1.11.11c.73.45.38,1.68.34,2s.21.8.21,1.13a1.12,1.12,0,0,1-.34.79.69.69,0,0,0-.09.26,2.36,2.36,0,0,1-.34-1c-.06-.58-.19-.44-.48-1.08a4.8,4.8,0,0,1-.3-1.6Z"/><path class="cls-30" d="M48.8,11.72l-.6-.41a.89.89,0,0,0-.82.39,4.19,4.19,0,0,0-.48,1.63c-.06.5-.24,1.44-.23,1.82s.47.42.47.42l1.52-.66a4.45,4.45,0,0,1,0-1.65A8.66,8.66,0,0,0,48.8,11.72Z"/><path class="cls-7" d="M49.31,11.85A8.76,8.76,0,0,1,49.5,13c0,.36,0,1-.26,1.11s-.68,0-1-.1a.75.75,0,0,1-.46-.57,3.35,3.35,0,0,1,0-1.17.7.7,0,0,1,.62-.61A2.05,2.05,0,0,1,49.31,11.85Z"/><path class="cls-7" d="M48,13.18a3.46,3.46,0,0,1-.1,1.31c-.13.28-.65.41-.65.41a3,3,0,0,0,.5,1.57c.53.77,2.16,1.05,2.16,1.05a7.1,7.1,0,0,0,.49-1.36,1.59,1.59,0,0,0-.29-1.28l-.65-.23c-.52-.19-.46-1-.46-1Z"/><path class="cls-6" d="M49,15.24a7.38,7.38,0,0,1-1.38-.48l-1.05.63s-.62.59.44,2.13a8.1,8.1,0,0,1-.25,3.9s.17.64,1.16.3.86-.53,1.6-.71a6.53,6.53,0,0,0,1.39-.45,4.11,4.11,0,0,1-.48-2.22s.66-.62.38-1.26a8.67,8.67,0,0,1-.54-2.23l-.56-.14a4,4,0,0,1-.45.48A.25.25,0,0,1,49,15.24Z"/><path class="cls-11" d="M49.44,14.65s-.13.48-.46.59c0,0,.13.66.44.54s.27-1.07.27-1.07Z"/><path class="cls-11" d="M47.47,14.68s.21,1,.77,1.09.74-.53.74-.53-1.18-.35-1.29-.71Z"/><path class="cls-30" d="M48.45,11.6c-.1,0-.18.49-.19.76s-.41.48-.23,1.08.15,1.16.39,1.82a1,1,0,0,1-.19,1.11,8.4,8.4,0,0,1-.68-.84.68.68,0,0,0-.73-.33,8,8,0,0,0,.75-1.93,2,2,0,0,1,.23-1.41A.63.63,0,0,1,48.45,11.6Z"/><path class="cls-7" d="M48,12.81s-.22-.24-.36-.2-.15.25,0,.43.51.27.51.27Z"/><path class="cls-30" d="M48.53,12.35a2.49,2.49,0,0,0,.62,0,1,1,0,0,1,.56.06l-.15-.65a2.08,2.08,0,0,0-.78-.26c-.42,0-.78.16-.58.3S48.53,12.35,48.53,12.35Z"/><path class="cls-7" d="M47.44,16.12c-.07.82-.31,3.17-.31,3.17.75.65,1.81,1.74,1.81,1.74s-.31.59-.43.49c-1-.8-2.21-1.28-2.3-1.84a11.24,11.24,0,0,1,.16-4C46.63,15.1,47.52,15.25,47.44,16.12Z"/><path class="cls-7" d="M49.39,21.1c.31.12.51.23.49.35s-.28-.07-.44-.06a.9.9,0,0,0,.38.37c.21.1.32.25.21.37s-.31.28-.44.22S49,22,48.8,21.87s-.25-.32-.34-.38.17-.53.17-.53l.31.07a1.47,1.47,0,0,0,.25,0A.64.64,0,0,1,49.39,21.1Z"/><line class="cls-15" y1="36.8" x2="70" y2="36.8"/></g></g></g></svg>
